<?xml version="1.0" encoding="UTF-8" standalone="no"?>
<!-- Created with Inkscape (http://www.inkscape.org/) -->

<svg
   version="1.1"
   id="svg1"
   width="285.53555"
   height="51.518543"
   viewBox="0 0 285.53556 51.518543"
   sodipodi:docname="coupling_monolithic.pdf"
   xmlns:inkscape="http://www.inkscape.org/namespaces/inkscape"
   xmlns:sodipodi="http://sodipodi.sourceforge.net/DTD/sodipodi-0.dtd"
   xmlns="http://www.w3.org/2000/svg"
   xmlns:svg="http://www.w3.org/2000/svg">
  <defs
     id="defs1" />
  <sodipodi:namedview
     id="namedview1"
     pagecolor="#ffffff"
     bordercolor="#000000"
     borderopacity="0.25"
     inkscape:showpageshadow="2"
     inkscape:pageopacity="0.0"
     inkscape:pagecheckerboard="0"
     inkscape:deskcolor="#d1d1d1" />
  <g
     id="g1"
     inkscape:groupmode="layer"
     inkscape:label="1"
     transform="translate(-88.097655,-14.7458)">
    <path
       id="path1"
       d="M 6.64186,22.20865 H 93.9622 V -3.70555 H 6.64186 Z"
       style="fill:#005293;fill-opacity:1;fill-rule:nonzero;stroke:none"
       transform="matrix(1.3333333,0,0,-1.3333333,83.768,44.357333)" />
    <path
       id="path2"
       d="m 37.31201,9.25156 h 85.5076 v -25.68182 h -85.5076 z"
       style="fill:#e37222;fill-opacity:1;fill-rule:nonzero;stroke:none"
       transform="matrix(1.3333333,0,0,-1.3333333,83.768,44.357333)" />
    <path
       id="path3"
       d="M 37.31201,9.25156 H 93.96219 V -3.70553 H 37.31201 Z"
       style="fill:#a2ad00;fill-opacity:1;fill-rule:nonzero;stroke:none"
       transform="matrix(1.3333333,0,0,-1.3333333,83.768,44.357333)" />
    <path
       id="path4"
       d="M 3.2472422,17.530437 H 3.9386484 V 0.303875 h 2.625 V -0.38753125 H 3.2472422 Z m 0,17.920899 h 3.3164062 v -0.679688 h -2.625 V 17.533367 H 3.2472422 Z m 0,0"
       style="fill:#000000;fill-opacity:1;fill-rule:nonzero;stroke:none"
       aria-label="&#10;"
       transform="matrix(1.3333333,0,0,1.3333333,83.768,17.657333)" />
    <g
       id="g4"
       aria-label="M&#10;F&#10;ff"
       transform="matrix(1.3333333,0,0,1.3333333,99.265333,26.930667)"
       style="fill:#ffffff;fill-opacity:1">
      <path
         id="path5"
         d="M 5.4377187,-1.3132344 3.0470937,-6.5866719 C 2.941625,-6.8327656 2.8244375,-6.8327656 2.6135,-6.8327656 H 0.39865625 v 0.46875 H 1.4767812 v 5.60156247 c 0,0.22265625 -0.011719,0.234375 -0.2929687,0.2578125 C 0.9494375,-0.46948438 0.926,-0.46948438 0.64475,-0.46948438 H 0.39865625 v 0.468750005 c 0.375,-0.035156255 0.94921875,-0.035156255 1.33593745,-0.035156255 0.421875,0 0.9375,0 1.3476563,0.035156255 V -0.46948438 H 2.8244375 c -0.1757813,0 -0.3398438,-0.0117188 -0.5273438,-0.0351563 -0.28125,-0.0234375 -0.2929687,-0.0351563 -0.2929687,-0.2578125 V -6.2351094 h 0.011719 l 2.7070313,5.98828127 c 0.09375,0.19921875 0.2109375,0.246093755 0.3164062,0.246093755 0.1992188,0 0.28125,-0.152343755 0.3164063,-0.234375005 L 8.1330312,-6.3640156 H 8.14475 v 5.89453122 H 7.0783437 v 0.468750005 c 0.3515625,-0.035156255 1.2773438,-0.035156255 1.6875,-0.035156255 0.4101563,0 1.3476563,0 1.6992183,0.035156255 V -0.46948438 H 9.3986562 V -6.3640156 h 1.0664058 v -0.46875 H 8.2736562 c -0.2226562,0 -0.3398437,0 -0.4453125,0.2460937 z m 0,0"
         style="fill:#ffffff;fill-opacity:1;fill-rule:nonzero;stroke:none" />
      <path
         id="path6"
         d="m 13.254125,-6.6218281 h 0.75 c 0.527344,0 0.621094,0.09375 0.621094,0.3164062 0,0.1054688 0,0.1171875 -0.04687,0.3164063 -0.01172,0.046875 -0.02344,0.058594 -0.02344,0.082031 0,0.070312 0.04687,0.1054688 0.117188,0.1054688 0.09375,0 0.105468,-0.035156 0.140625,-0.1640625 l 0.375,-1.4765625 c 0,-0.023437 0.02344,-0.1289063 0.02344,-0.140625 0,-0.070312 -0.04687,-0.1054688 -0.117187,-0.1054688 -0.09375,0 -0.105469,0.046875 -0.140625,0.1757813 -0.140625,0.5390625 -0.339844,0.6445312 -0.9375,0.6445312 h -0.691407 l 0.433594,-1.7460937 c 0.05859,-0.2226563 0.07031,-0.2460938 0.363281,-0.2460938 h 1.066407 c 0.925781,0 1.101562,0.2226563 1.101562,0.8085938 0,0.2226562 -0.03516,0.375 -0.03516,0.4335937 0,0.046875 0.02344,0.1171875 0.117187,0.1171875 0.105469,0 0.117188,-0.070312 0.128907,-0.1875 l 0.128906,-1.2070312 c 0.02344,-0.2109375 -0.03516,-0.2109375 -0.199219,-0.2109375 h -3.726562 c -0.128907,0 -0.222657,0 -0.222657,0.1523437 0,0.09375 0.08203,0.09375 0.222657,0.09375 0,0 0.140625,0 0.269531,0.023437 0.140625,0.011719 0.152344,0.023437 0.152344,0.09375 0,0.046875 -0.02344,0.1171875 -0.02344,0.1523438 l -0.914062,3.6445312 c -0.07031,0.2695313 -0.08203,0.328125 -0.621094,0.328125 -0.117188,0 -0.210938,0 -0.210938,0.140625 0,0.070312 0.04687,0.1054688 0.117188,0.1054688 0.199219,0 0.714844,-0.023437 0.914062,-0.023437 H 12.926 c 0.175781,0 0.375,0.023437 0.550781,0.023437 0.04687,0 0.152344,0 0.152344,-0.1523438 0,-0.09375 -0.08203,-0.09375 -0.246094,-0.09375 -0.01172,0 -0.1875,0 -0.363281,-0.023437 -0.140625,-0.011719 -0.210938,-0.011719 -0.210938,-0.1171875 0,-0.023437 0,-0.046875 0.02344,-0.1171875 z m 0.457031,6.33105466 h 0.679688 c 0.140625,0 0.234375,0 0.234375,-0.15234375 0,-0.09375 -0.09375,-0.09375 -0.210938,-0.09375 h -0.65625 c 0.164063,-0.89062501 0.222656,-1.20703121 0.28125,-1.41796871 0.03516,-0.1523438 0.1875,-0.2929688 0.351563,-0.2929688 0,0 0.199218,0 0.328125,0.082031 -0.292969,0.09375 -0.304688,0.3398437 -0.304688,0.3867187 0,0.1523438 0.117188,0.2578125 0.269531,0.2578125 0.199219,0 0.398438,-0.1640625 0.398438,-0.4335937 0,-0.3164063 -0.339844,-0.4921875 -0.691406,-0.4921875 -0.304688,0 -0.644532,0.1757812 -0.84375,0.5273437 -0.128907,0.2578125 -0.1875,0.5742188 -0.339844,1.38281251 h -0.550781 c -0.140625,0 -0.222657,0 -0.222657,0.15234375 0,0.09375 0.08203,0.09375 0.210938,0.09375 h 0.515625 c 0,0.046875 -0.445313,2.55468754 -0.609375,3.29296874 -0.03516,0.1640625 -0.152344,0.6914063 -0.492188,0.6914063 0,0 -0.175781,0 -0.304687,-0.082031 0.28125,-0.09375 0.304687,-0.3515625 0.304687,-0.3867187 0,-0.1523438 -0.117187,-0.2578125 -0.28125,-0.2578125 -0.1875,0 -0.398437,0.1640625 -0.398437,0.421875 0,0.3164062 0.328125,0.4921875 0.679687,0.4921875 0.445313,0 0.75,-0.4570313 0.84375,-0.609375 0.246094,-0.46875 0.410157,-1.3242188 0.421875,-1.40625 z m 4.666992,0 h 0.679688 c 0.140625,0 0.234375,0 0.234375,-0.15234375 0,-0.09375 -0.09375,-0.09375 -0.210938,-0.09375 h -0.65625 c 0.164063,-0.89062501 0.222657,-1.20703121 0.28125,-1.41796871 0.03516,-0.1523438 0.1875,-0.2929688 0.351563,-0.2929688 0,0 0.199219,0 0.328125,0.082031 -0.292969,0.09375 -0.304688,0.3398437 -0.304688,0.3867187 0,0.1523438 0.117188,0.2578125 0.269532,0.2578125 0.199218,0 0.398437,-0.1640625 0.398437,-0.4335937 0,-0.3164063 -0.339844,-0.4921875 -0.691406,-0.4921875 -0.304688,0 -0.644531,0.1757812 -0.84375,0.5273437 -0.128906,0.2578125 -0.1875,0.5742188 -0.339844,1.38281251 h -0.550781 c -0.140625,0 -0.222656,0 -0.222656,0.15234375 0,0.09375 0.08203,0.09375 0.210937,0.09375 h 0.515625 c 0,0.046875 -0.445312,2.55468754 -0.609375,3.29296874 -0.03516,0.1640625 -0.152344,0.6914063 -0.492187,0.6914063 0,0 -0.175782,0 -0.304688,-0.082031 0.28125,-0.09375 0.304688,-0.3515625 0.304688,-0.3867187 0,-0.1523438 -0.117188,-0.2578125 -0.28125,-0.2578125 -0.1875,0 -0.398438,0.1640625 -0.398438,0.421875 0,0.3164062 0.328125,0.4921875 0.679688,0.4921875 0.445312,0 0.75,-0.4570313 0.84375,-0.609375 0.246093,-0.46875 0.410156,-1.3242188 0.421875,-1.40625 z m 0,0"
         style="fill:#ffffff;fill-opacity:1;fill-rule:nonzero;stroke:none" />
    </g>
    <g
       id="g6"
       aria-label="M&#10;F&#10;fi"
       transform="matrix(1.3333333,0,0,1.3333333,158.70933,26.930667)"
       style="fill:#ffffff;fill-opacity:1;stroke:none;stroke-opacity:1">
      <path
         id="path7"
         d="M 5.4387031,-1.3132344 3.0480781,-6.5866719 C 2.9426094,-6.8327656 2.8254219,-6.8327656 2.6144844,-6.8327656 H 0.39964062 v 0.46875 H 1.4777656 v 5.60156247 c 0,0.22265625 -0.011719,0.234375 -0.2929687,0.2578125 -0.23437503,0.0351563 -0.25781253,0.0351563 -0.53906253,0.0351563 H 0.39964062 v 0.468750005 c 0.375,-0.035156255 0.94921878,-0.035156255 1.33593748,-0.035156255 0.421875,0 0.9375,0 1.3476563,0.035156255 V -0.46948438 H 2.8254219 c -0.1757813,0 -0.3398438,-0.0117188 -0.5273438,-0.0351563 -0.28125,-0.0234375 -0.2929687,-0.0351563 -0.2929687,-0.2578125 V -6.2351094 h 0.011719 l 2.7070313,5.98828127 c 0.09375,0.19921875 0.2109375,0.246093755 0.3164062,0.246093755 0.1992188,0 0.28125,-0.152343755 0.3164063,-0.234375005 L 8.1340156,-6.3640156 h 0.011719 v 5.89453122 H 7.0793281 v 0.468750005 c 0.3515625,-0.035156255 1.2773438,-0.035156255 1.6875,-0.035156255 0.4101563,0 1.3476559,0 1.6992189,0.035156255 V -0.46948438 H 9.3996406 V -6.3640156 h 1.0664064 v -0.46875 H 8.2746406 c -0.2226562,0 -0.3398437,0 -0.4453125,0.2460937 z m 0,0"
         style="fill:#ffffff;fill-opacity:1;fill-rule:nonzero;stroke:none;stroke-opacity:1" />
      <path
         id="path8"
         d="m 13.255109,-6.6218281 h 0.75 c 0.527344,0 0.621094,0.09375 0.621094,0.3164062 0,0.1054688 0,0.1171875 -0.04687,0.3164063 -0.01172,0.046875 -0.02344,0.058594 -0.02344,0.082031 0,0.070312 0.04687,0.1054688 0.117187,0.1054688 0.09375,0 0.105469,-0.035156 0.140625,-0.1640625 l 0.375,-1.4765625 c 0,-0.023437 0.02344,-0.1289063 0.02344,-0.140625 0,-0.070312 -0.04687,-0.1054688 -0.117188,-0.1054688 -0.09375,0 -0.105469,0.046875 -0.140625,0.1757813 -0.140625,0.5390625 -0.339844,0.6445312 -0.9375,0.6445312 h -0.691406 l 0.433594,-1.7460937 c 0.05859,-0.2226563 0.07031,-0.2460938 0.363281,-0.2460938 h 1.066406 c 0.925781,0 1.101563,0.2226563 1.101563,0.8085938 0,0.2226562 -0.03516,0.375 -0.03516,0.4335937 0,0.046875 0.02344,0.1171875 0.117188,0.1171875 0.105469,0 0.117187,-0.070312 0.128906,-0.1875 l 0.128906,-1.2070312 c 0.02344,-0.2109375 -0.03516,-0.2109375 -0.199218,-0.2109375 h -3.726563 c -0.128906,0 -0.222656,0 -0.222656,0.1523437 0,0.09375 0.08203,0.09375 0.222656,0.09375 0,0 0.140625,0 0.269531,0.023437 0.140625,0.011719 0.152344,0.023437 0.152344,0.09375 0,0.046875 -0.02344,0.1171875 -0.02344,0.1523438 l -0.914063,3.6445312 c -0.07031,0.2695313 -0.08203,0.328125 -0.621094,0.328125 -0.117187,0 -0.210937,0 -0.210937,0.140625 0,0.070312 0.04687,0.1054688 0.117187,0.1054688 0.199219,0 0.714844,-0.023437 0.914063,-0.023437 h 0.539062 c 0.175782,0 0.375,0.023437 0.550782,0.023437 0.04687,0 0.152343,0 0.152343,-0.1523438 0,-0.09375 -0.08203,-0.09375 -0.246093,-0.09375 -0.01172,0 -0.1875,0 -0.363282,-0.023437 -0.140625,-0.011719 -0.210937,-0.011719 -0.210937,-0.1171875 0,-0.023437 0,-0.046875 0.02344,-0.1171875 z m 0.457032,6.33105466 h 0.679687 c 0.140625,0 0.234375,0 0.234375,-0.15234375 0,-0.09375 -0.09375,-0.09375 -0.210937,-0.09375 h -0.65625 c 0.164062,-0.89062501 0.222656,-1.20703121 0.28125,-1.41796871 0.03516,-0.1523438 0.1875,-0.2929688 0.351562,-0.2929688 0,0 0.199219,0 0.328125,0.082031 -0.292969,0.09375 -0.304687,0.3398437 -0.304687,0.3867187 0,0.1523438 0.117187,0.2578125 0.269531,0.2578125 0.199219,0 0.398437,-0.1640625 0.398437,-0.4335937 0,-0.3164063 -0.339843,-0.4921875 -0.691406,-0.4921875 -0.304687,0 -0.644531,0.1757812 -0.84375,0.5273437 -0.128906,0.2578125 -0.1875,0.5742188 -0.339844,1.38281251 h -0.550781 c -0.140625,0 -0.222656,0 -0.222656,0.15234375 0,0.09375 0.08203,0.09375 0.210937,0.09375 h 0.515625 c 0,0.046875 -0.445312,2.55468754 -0.609375,3.29296874 -0.03516,0.1640625 -0.152343,0.6914063 -0.492187,0.6914063 0,0 -0.175781,0 -0.304688,-0.082031 0.28125,-0.09375 0.304688,-0.3515625 0.304688,-0.3867187 0,-0.1523438 -0.117188,-0.2578125 -0.28125,-0.2578125 -0.1875,0 -0.398438,0.1640625 -0.398438,0.421875 0,0.3164062 0.328125,0.4921875 0.679688,0.4921875 0.445312,0 0.75,-0.4570313 0.84375,-0.609375 0.246094,-0.46875 0.410156,-1.3242188 0.421875,-1.40625 z m 4.092773,-1.60546876 c 0,-0.1054687 -0.08203,-0.2578125 -0.28125,-0.2578125 -0.1875,0 -0.386719,0.1757813 -0.386719,0.375 0,0.1171875 0.08203,0.2695313 0.269532,0.2695313 0.210937,0 0.398437,-0.1992188 0.398437,-0.3867188 z m -1.429687,3.5390625 c -0.02344,0.09375 -0.05859,0.1757813 -0.05859,0.2929688 0,0.328125 0.28125,0.5976562 0.667969,0.5976562 0.691406,0 0.996093,-0.9609375 0.996093,-1.0664062 0,-0.09375 -0.08203,-0.09375 -0.105468,-0.09375 -0.105469,0 -0.105469,0.046875 -0.140625,0.1171875 -0.152344,0.5625 -0.457032,0.84375 -0.738282,0.84375 -0.140625,0 -0.175781,-0.082031 -0.175781,-0.2460938 0,-0.1523437 0.05859,-0.2929687 0.117188,-0.4453125 0.07031,-0.1875 0.140625,-0.375 0.222656,-0.5507812 0.05859,-0.16406254 0.316406,-0.80859379 0.339844,-0.89062504 0.02344,-0.0703125 0.04687,-0.15234375 0.04687,-0.22265625 0,-0.328125 -0.28125,-0.5859375 -0.667969,-0.5859375 -0.691406,0 -1.007813,0.94921875 -1.007813,1.06640625 0,0.0820312 0.09375,0.0820312 0.117188,0.0820312 0.09375,0 0.105469,-0.0351563 0.128906,-0.10546875 0.175781,-0.59765625 0.480469,-0.85546875 0.738281,-0.85546875 0.117188,0 0.175782,0.0585938 0.175782,0.24609375 0,0.1640625 -0.03516,0.26953125 -0.210938,0.703125 z m 0,0"
         style="fill:#ffffff;fill-opacity:1;fill-rule:nonzero;stroke:none;stroke-opacity:1" />
    </g>
    <path
       id="path9"
       d="m 4.5806641,-3.1882344 c 0,-0.796875 -0.046875,-1.59375 -0.3984375,-2.3320312 -0.4570313,-0.9609375 -1.2773438,-1.1132813 -1.6875,-1.1132813 -0.5976563,0 -1.3359375,0.2578125 -1.73437504,1.1835938 -0.328125,0.6914062 -0.375,1.4648437 -0.375,2.2617187 0,0.75 0.046875,1.640625 0.4453125,2.40234377 0.43359374,0.80859375 1.16015624,1.0078125 1.65234374,1.0078125 0.5390625,0 1.2890625,-0.2109375 1.734375,-1.16015625 C 4.5337891,-1.6296406 4.5806641,-2.4030781 4.5806641,-3.1882344 Z M 2.4830078,-7.34375e-4 c -0.3867187,0 -0.984375,-0.246093755 -1.1601562,-1.207031225 -0.1054688,-0.5976563 -0.1054688,-1.5117188 -0.1054688,-2.0976563 0,-0.6445312 0,-1.3007812 0.082031,-1.8398437 0.1875,-1.1835938 0.9257812,-1.265625 1.1835937,-1.265625 0.328125,0 0.984375,0.1757812 1.171875,1.1601562 0.09375,0.5625 0.09375,1.3125 0.09375,1.9453125 0,0.75 0,1.4179688 -0.1054687,2.0625 C 3.49082,-0.30542188 2.92832,-7.34375e-4 2.4830078,-7.34375e-4 Z m 0,0"
       style="fill:#000000;fill-opacity:1;fill-rule:nonzero;stroke:none"
       aria-label="0"
       transform="matrix(1.3333333,0,0,1.3333333,224.96667,26.930667)" />
    <g
       id="g9"
       aria-label="M&#10;F&#10;if"
       transform="matrix(1.3333333,0,0,1.3333333,100.49733,44.206667)"
       style="fill:#ffffff;fill-opacity:1">
      <path
         id="path10"
         d="M 5.4365703,-1.3122266 3.0459453,-6.5856641 C 2.9404766,-6.8317578 2.8232891,-6.8317578 2.6123516,-6.8317578 H 0.39750781 v 0.46875 H 1.4756328 v 5.60156249 c 0,0.22265625 -0.011719,0.234375 -0.2929687,0.2578125 -0.23437504,0.0351563 -0.25781254,0.0351563 -0.53906254,0.0351563 H 0.39750781 V 2.734375e-4 C 0.77250781,-0.03488281 1.3467266,-0.03488281 1.7334453,-0.03488281 c 0.421875,0 0.9375,0 1.3476563,0.0351562475 V -0.46847656 H 2.8232891 c -0.1757813,0 -0.3398438,-0.0117188 -0.5273438,-0.0351563 -0.28125,-0.0234375 -0.2929687,-0.0351563 -0.2929687,-0.2578125 V -6.2341016 h 0.011719 l 2.7070313,5.98828129 c 0.09375,0.19921875 0.2109375,0.2460937475 0.3164062,0.2460937475 0.1992188,0 0.28125,-0.1523437475 0.3164063,-0.2343749975 L 8.1318828,-6.3630078 h 0.011719 v 5.89453124 H 7.0771953 V 2.734375e-4 C 7.4287578,-0.03488281 8.3545391,-0.03488281 8.7646953,-0.03488281 c 0.4101563,0 1.3476567,0 1.6992187,0.0351562475 V -0.46847656 H 9.3975078 V -6.3630078 h 1.0664062 v -0.46875 H 8.2725078 c -0.2226562,0 -0.3398437,0 -0.4453125,0.2460937 z m 0,0"
         style="fill:#ffffff;fill-opacity:1;fill-rule:nonzero;stroke:none" />
      <path
         id="path11"
         d="m 13.255906,-6.62375 h 0.75 c 0.527344,0 0.621094,0.09375 0.621094,0.3164063 0,0.1054687 0,0.1171875 -0.04687,0.3164062 -0.01172,0.046875 -0.02344,0.058594 -0.02344,0.082031 0,0.070312 0.04687,0.1054687 0.117188,0.1054687 0.09375,0 0.105469,-0.035156 0.140625,-0.1640625 l 0.375,-1.4765625 c 0,-0.023437 0.02344,-0.1289062 0.02344,-0.140625 0,-0.070312 -0.04687,-0.1054687 -0.117187,-0.1054687 -0.09375,0 -0.105469,0.046875 -0.140625,0.1757812 -0.140625,0.5390625 -0.339844,0.6445313 -0.9375,0.6445313 h -0.691406 l 0.433593,-1.7460938 c 0.05859,-0.2226562 0.07031,-0.2460937 0.363282,-0.2460937 h 1.0664 c 0.925781,0 1.101562,0.2226562 1.101562,0.8085937 0,0.2226563 -0.03516,0.375 -0.03516,0.4335938 0,0.046875 0.02344,0.1171875 0.117188,0.1171875 0.105468,0 0.117187,-0.070312 0.128906,-0.1875 l 0.128906,-1.2070313 C 16.654344,-9.108125 16.59575,-9.108125 16.431687,-9.108125 h -3.726562 c -0.128906,0 -0.222656,0 -0.222656,0.1523438 0,0.09375 0.08203,0.09375 0.222656,0.09375 0,0 0.140625,0 0.269531,0.023437 0.140625,0.011719 0.152344,0.023437 0.152344,0.09375 0,0.046875 -0.02344,0.1171875 -0.02344,0.1523437 l -0.91406,3.6445318 c -0.07031,0.2695312 -0.08203,0.328125 -0.621094,0.328125 -0.117187,0 -0.210937,0 -0.210937,0.140625 0,0.070312 0.04687,0.1054687 0.117187,0.1054687 0.199219,0 0.714844,-0.023437 0.914063,-0.023437 h 0.539062 c 0.175781,0 0.375,0.023437 0.550781,0.023437 0.04687,0 0.152344,0 0.152344,-0.1523437 0,-0.09375 -0.08203,-0.09375 -0.246094,-0.09375 -0.01172,0 -0.1875,0 -0.363281,-0.023437 C 12.880906,-4.655 12.810594,-4.655 12.810594,-4.7604687 c 0,-0.023437 0,-0.046875 0.02344,-0.1171875 z m -0.117187,4.7285156 c 0,-0.1054687 -0.08203,-0.2578125 -0.28125,-0.2578125 -0.1875,0 -0.386719,0.1757813 -0.386719,0.375 0,0.1171875 0.08203,0.2695313 0.269531,0.2695313 0.210938,0 0.398438,-0.1992188 0.398438,-0.3867188 z m -1.429688,3.5390625 c -0.02344,0.09375 -0.05859,0.1757813 -0.05859,0.2929688 0,0.328125 0.28125,0.5976562 0.667969,0.5976562 0.691406,0 0.996094,-0.9609375 0.996094,-1.0664062 0,-0.09375 -0.08203,-0.09375 -0.105469,-0.09375 -0.105469,0 -0.105469,0.046875 -0.140625,0.1171875 -0.152344,0.5625 -0.457031,0.84375 -0.738281,0.84375 -0.140625,0 -0.175781,-0.082031 -0.175781,-0.2460938 0,-0.1523437 0.05859,-0.2929687 0.117187,-0.4453125 0.07031,-0.1875 0.140625,-0.375 0.222656,-0.5507812 0.05859,-0.16406252 0.316407,-0.80859377 0.339844,-0.89062502 0.02344,-0.0703125 0.04687,-0.15234375 0.04687,-0.22265625 0,-0.328125 -0.28125,-0.5859375 -0.667969,-0.5859375 -0.691406,0 -1.007812,0.94921875 -1.007812,1.06640625 0,0.0820313 0.09375,0.0820313 0.117187,0.0820313 0.09375,0 0.105469,-0.0351563 0.128907,-0.10546875 0.175781,-0.59765625 0.480468,-0.85546875 0.738281,-0.85546875 0.117187,0 0.175781,0.0585938 0.175781,0.24609375 0,0.1640625 -0.03516,0.26953125 -0.210937,0.703125 z m 4.822266,-1.93359372 h 0.679687 c 0.140625,0 0.234375,0 0.234375,-0.15234375 0,-0.09375 -0.09375,-0.09375 -0.210937,-0.09375 h -0.65625 c 0.164062,-0.89062503 0.222656,-1.20703123 0.28125,-1.41796873 0.03516,-0.1523438 0.1875,-0.2929688 0.351562,-0.2929688 0,0 0.199219,0 0.328125,0.082031 -0.292968,0.09375 -0.304687,0.3398437 -0.304687,0.3867187 0,0.1523438 0.117187,0.2578125 0.269531,0.2578125 0.199219,0 0.398438,-0.1640625 0.398438,-0.4335937 0,-0.3164063 -0.339844,-0.4921875 -0.691407,-0.4921875 -0.304687,0 -0.644531,0.1757812 -0.84375,0.5273437 -0.128906,0.2578125 -0.1875,0.5742188 -0.339843,1.38281253 h -0.550782 c -0.140625,0 -0.222656,0 -0.222656,0.15234375 0,0.09375 0.08203,0.09375 0.210938,0.09375 h 0.515625 c 0,0.046875 -0.445313,2.55468752 -0.609375,3.29296872 -0.03516,0.1640625 -0.152344,0.6914063 -0.492188,0.6914063 0,0 -0.175781,0 -0.304687,-0.082031 0.28125,-0.09375 0.304687,-0.3515625 0.304687,-0.3867187 0,-0.1523438 -0.117187,-0.2578125 -0.28125,-0.2578125 -0.1875,0 -0.398437,0.1640625 -0.398437,0.421875 0,0.3164062 0.328125,0.4921875 0.679687,0.4921875 0.445313,0 0.75,-0.4570313 0.84375,-0.609375 0.246094,-0.46875 0.410156,-1.3242188 0.421875,-1.40625 z m 0,0"
         style="fill:#ffffff;fill-opacity:1;fill-rule:nonzero;stroke:none" />
    </g>
    <g
       id="g11"
       aria-label="M&#10;F&#10;ii&#10;+M&#10;S&#10;ii"
       transform="matrix(1.3333333,0,0,1.3333333,140.15867,44.206667)"
       style="fill:#ffffff;fill-opacity:1">
      <path
         id="path12"
         d="M 5.4386172,-1.3122266 3.0479922,-6.5856641 C 2.9425234,-6.8317578 2.8253359,-6.8317578 2.6143984,-6.8317578 H 0.39955469 v 0.46875 H 1.4776797 v 5.60156249 c 0,0.22265625 -0.011719,0.234375 -0.2929688,0.2578125 -0.23437496,0.0351563 -0.25781246,0.0351563 -0.53906246,0.0351563 H 0.39955469 V 2.734375e-4 C 0.77455469,-0.03488281 1.3487734,-0.03488281 1.7354922,-0.03488281 c 0.421875,0 0.9375,0 1.3476562,0.0351562475 V -0.46847656 H 2.8253359 c -0.1757812,0 -0.3398437,-0.0117188 -0.5273437,-0.0351563 -0.28125,-0.0234375 -0.2929688,-0.0351563 -0.2929688,-0.2578125 V -6.2341016 h 0.011719 l 2.7070312,5.98828129 c 0.09375,0.19921875 0.2109375,0.2460937475 0.3164063,0.2460937475 0.1992187,0 0.28125,-0.1523437475 0.3164062,-0.2343749975 L 8.1339297,-6.3630078 h 0.011719 v 5.89453124 H 7.0792422 V 2.734375e-4 C 7.4308047,-0.03488281 8.3565859,-0.03488281 8.7667422,-0.03488281 c 0.4101562,0 1.3476558,0 1.6992188,0.0351562475 V -0.46847656 H 9.3995547 V -6.3630078 h 1.0664063 v -0.46875 H 8.2745547 c -0.2226563,0 -0.3398438,0 -0.4453125,0.2460937 z m 0,0"
         style="fill:#ffffff;fill-opacity:1;fill-rule:nonzero;stroke:none" />
      <path
         id="path13"
         d="m 13.255023,-6.62375 h 0.75 c 0.527344,0 0.621094,0.09375 0.621094,0.3164063 0,0.1054687 0,0.1171875 -0.04687,0.3164062 -0.01172,0.046875 -0.02344,0.058594 -0.02344,0.082031 0,0.070312 0.04687,0.1054687 0.117187,0.1054687 0.09375,0 0.105469,-0.035156 0.140625,-0.1640625 l 0.375,-1.4765625 c 0,-0.023437 0.02344,-0.1289062 0.02344,-0.140625 0,-0.070312 -0.04687,-0.1054687 -0.117188,-0.1054687 -0.09375,0 -0.105469,0.046875 -0.140625,0.1757812 -0.140625,0.5390625 -0.339844,0.6445313 -0.9375,0.6445313 H 13.32534 l 0.433594,-1.7460938 c 0.05859,-0.2226562 0.07031,-0.2460937 0.363281,-0.2460937 h 1.066406 c 0.925781,0 1.101563,0.2226562 1.101563,0.8085937 0,0.2226563 -0.03516,0.375 -0.03516,0.4335938 0,0.046875 0.02344,0.1171875 0.117188,0.1171875 0.105469,0 0.117187,-0.070312 0.128906,-0.1875 l 0.128906,-1.2070313 c 0.02344,-0.2109375 -0.03516,-0.2109375 -0.199218,-0.2109375 h -3.726563 c -0.128906,0 -0.222656,0 -0.222656,0.1523438 0,0.09375 0.08203,0.09375 0.222656,0.09375 0,0 0.140625,0 0.269531,0.023437 0.140625,0.011719 0.152344,0.023437 0.152344,0.09375 0,0.046875 -0.02344,0.1171875 -0.02344,0.1523437 l -0.914063,3.6445313 c -0.07031,0.2695312 -0.08203,0.328125 -0.621094,0.328125 -0.117187,0 -0.210937,0 -0.210937,0.140625 0,0.070312 0.04687,0.1054687 0.117187,0.1054687 0.199219,0 0.714844,-0.023437 0.914063,-0.023437 h 0.539062 c 0.175782,0 0.375,0.023437 0.550782,0.023437 0.04687,0 0.152343,0 0.152343,-0.1523437 0,-0.09375 -0.08203,-0.09375 -0.246093,-0.09375 -0.01172,0 -0.1875,0 -0.363282,-0.023437 C 12.880023,-4.655 12.809711,-4.655 12.809711,-4.7604687 c 0,-0.023437 0,-0.046875 0.02344,-0.1171875 z m -0.117187,4.7285156 c 0,-0.1054687 -0.08203,-0.2578125 -0.28125,-0.2578125 -0.1875,0 -0.386719,0.1757813 -0.386719,0.375 0,0.1171875 0.08203,0.2695313 0.269531,0.2695313 0.210938,0 0.398438,-0.1992188 0.398438,-0.3867188 z m -1.429688,3.5390625 c -0.02344,0.09375 -0.05859,0.1757813 -0.05859,0.2929688 0,0.328125 0.28125,0.5976562 0.667968,0.5976562 0.691407,0 0.996094,-0.9609375 0.996094,-1.0664062 0,-0.09375 -0.08203,-0.09375 -0.105469,-0.09375 -0.105468,0 -0.105468,0.046875 -0.140625,0.1171875 -0.152343,0.5625 -0.457031,0.84375 -0.738281,0.84375 -0.140625,0 -0.175781,-0.082031 -0.175781,-0.2460938 0,-0.1523437 0.05859,-0.2929687 0.117187,-0.4453125 0.07031,-0.1875 0.140625,-0.375 0.222657,-0.5507812 0.05859,-0.16406252 0.316406,-0.80859377 0.339843,-0.89062502 0.02344,-0.0703125 0.04687,-0.15234375 0.04687,-0.22265625 0,-0.328125 -0.28125,-0.5859375 -0.667968,-0.5859375 -0.691407,0 -1.007813,0.94921875 -1.007813,1.06640625 0,0.0820313 0.09375,0.0820313 0.117188,0.0820313 0.09375,0 0.105468,-0.0351563 0.128906,-0.10546875 0.175781,-0.59765625 0.480469,-0.85546875 0.738281,-0.85546875 0.117188,0 0.175781,0.0585938 0.175781,0.24609375 0,0.1640625 -0.03516,0.26953125 -0.210937,0.703125 z m 4.248047,-3.5390625 c 0,-0.1054687 -0.08203,-0.2578125 -0.28125,-0.2578125 -0.1875,0 -0.386718,0.1757813 -0.386718,0.375 0,0.1171875 0.08203,0.2695313 0.269531,0.2695313 0.210937,0 0.398437,-0.1992188 0.398437,-0.3867188 z m -1.429687,3.5390625 c -0.02344,0.09375 -0.05859,0.1757813 -0.05859,0.2929688 0,0.328125 0.28125,0.5976562 0.667969,0.5976562 0.691406,0 0.996094,-0.9609375 0.996094,-1.0664062 0,-0.09375 -0.08203,-0.09375 -0.105469,-0.09375 -0.105469,0 -0.105469,0.046875 -0.140625,0.1171875 -0.152344,0.5625 -0.457031,0.84375 -0.738281,0.84375 -0.140625,0 -0.175782,-0.082031 -0.175782,-0.2460938 0,-0.1523437 0.05859,-0.2929687 0.117188,-0.4453125 0.07031,-0.1875 0.140625,-0.375 0.222656,-0.5507812 0.05859,-0.16406252 0.316406,-0.80859377 0.339844,-0.89062502 0.02344,-0.0703125 0.04687,-0.15234375 0.04687,-0.22265625 0,-0.328125 -0.28125,-0.5859375 -0.667969,-0.5859375 -0.691406,0 -1.007812,0.94921875 -1.007812,1.06640625 0,0.0820313 0.09375,0.0820313 0.117187,0.0820313 0.09375,0 0.105469,-0.0351563 0.128906,-0.10546875 0.175782,-0.59765625 0.480469,-0.85546875 0.738282,-0.85546875 0.117187,0 0.175781,0.0585938 0.175781,0.24609375 0,0.1640625 -0.03516,0.26953125 -0.210938,0.703125 z m 0,0"
         style="fill:#ffffff;fill-opacity:1;fill-rule:nonzero;stroke:none" />
      <path
         id="path14"
         d="m 23.79018,-2.2966016 h 2.777343 c 0.140625,0 0.328125,0 0.328125,-0.1992187 0,-0.1992188 -0.1875,-0.1992188 -0.328125,-0.1992188 H 23.79018 v -2.7890625 c 0,-0.1289062 0,-0.328125 -0.199219,-0.328125 -0.199219,0 -0.199219,0.1992188 -0.199219,0.328125 v 2.7890625 H 20.60268 c -0.140625,0 -0.328125,0 -0.328125,0.1992188 0,0.1992187 0.1875,0.1992187 0.328125,0.1992187 h 2.789062 v 2.80078129 c 0,0.12890625 0,0.328125 0.199219,0.328125 0.199219,0 0.199219,-0.19921875 0.199219,-0.328125 z m 0,0"
         style="fill:#ffffff;fill-opacity:1;fill-rule:nonzero;stroke:none" />
      <path
         id="path15"
         d="m 35.113422,-1.3122266 -2.390625,-5.2734375 c -0.105469,-0.2460937 -0.222656,-0.2460937 -0.433594,-0.2460937 h -2.214844 v 0.46875 h 1.078125 v 5.60156249 c 0,0.22265625 -0.01172,0.234375 -0.292968,0.2578125 -0.234375,0.0351563 -0.257813,0.0351563 -0.539063,0.0351563 H 30.074359 V 2.734375e-4 c 0.375,-0.0351562475 0.949219,-0.0351562475 1.335938,-0.0351562475 0.421875,0 0.9375,0 1.347656,0.0351562475 V -0.46847656 h -0.257812 c -0.175782,0 -0.339844,-0.0117188 -0.527344,-0.0351563 -0.28125,-0.0234375 -0.292969,-0.0351563 -0.292969,-0.2578125 V -6.2341016 h 0.01172 l 2.707031,5.98828129 c 0.09375,0.19921875 0.210938,0.2460937475 0.316406,0.2460937475 0.199219,0 0.28125,-0.1523437475 0.316407,-0.2343749975 l 2.777343,-6.12890624 h 0.01172 v 5.89453124 H 36.754047 V 2.734375e-4 c 0.351562,-0.0351562475 1.277344,-0.0351562475 1.6875,-0.0351562475 0.410156,0 1.347656,0 1.699219,0.0351562475 V -0.46847656 H 39.074359 V -6.3630078 h 1.066407 v -0.46875 h -2.191407 c -0.222656,0 -0.339843,0 -0.445312,0.2460937 z m 0,0"
         style="fill:#ffffff;fill-opacity:1;fill-rule:nonzero;stroke:none" />
      <path
         id="path16"
         d="m 45.496234,-9.1901562 c 0,-0.035156 -0.01172,-0.082031 -0.08203,-0.082031 -0.04687,0 -0.04687,0 -0.140625,0.09375 L 44.933734,-8.78 c -0.269531,-0.375 -0.703125,-0.4921875 -1.136718,-0.4921875 -0.984375,0 -1.851563,0.796875 -1.851563,1.59375 0,0.1054688 0.02344,0.3867188 0.234375,0.6445313 0.234375,0.28125 0.492188,0.3398437 0.960938,0.4453125 0.140625,0.035156 0.492187,0.1171875 0.597656,0.140625 0.222656,0.058594 0.644531,0.2109375 0.644531,0.7382812 0,0.5625 -0.585937,1.21875 -1.382812,1.21875 -0.621094,0 -1.359375,-0.2109375 -1.359375,-0.984375 0,-0.070312 0.02344,-0.2226562 0.04687,-0.3515625 0.01172,-0.023437 0.01172,-0.035156 0.01172,-0.035156 0,-0.09375 -0.09375,-0.09375 -0.117187,-0.09375 -0.09375,0 -0.105469,0.011719 -0.128906,0.140625 l -0.363282,1.3945312 c 0,0.023437 -0.01172,0.070312 -0.01172,0.1054688 0,0.035156 0.02344,0.082031 0.09375,0.082031 0.04687,0 0.04687,-0.011719 0.140625,-0.09375 0.07031,-0.09375 0.257812,-0.3164062 0.328125,-0.3984375 0.375,0.4101563 0.914062,0.4921875 1.335937,0.4921875 1.054688,0 1.898438,-0.9023437 1.898438,-1.734375 0,-0.3046875 -0.117188,-0.5859375 -0.269532,-0.7382812 -0.246093,-0.2578125 -0.351562,-0.28125 -1.253906,-0.4921875 -0.140625,-0.035156 -0.375,-0.09375 -0.433594,-0.1054688 -0.175781,-0.070312 -0.46875,-0.2460937 -0.46875,-0.6445312 0,-0.5507813 0.621094,-1.1015625 1.347657,-1.1015625 0.75,0 1.113281,0.421875 1.113281,1.0898437 0,0.082031 -0.03516,0.2460938 -0.03516,0.3046875 0,0.1054688 0.09375,0.1054688 0.128906,0.1054688 0.105469,0 0.105469,-0.035156 0.140625,-0.1523438 z m -2.683593,7.2949218 c 0,-0.1054687 -0.08203,-0.2578125 -0.28125,-0.2578125 -0.1875,0 -0.386719,0.1757813 -0.386719,0.375 0,0.1171875 0.08203,0.2695313 0.269531,0.2695313 0.210938,0 0.398438,-0.1992188 0.398438,-0.3867188 z m -1.429688,3.5390625 c -0.02344,0.09375 -0.05859,0.1757813 -0.05859,0.2929688 0,0.328125 0.28125,0.5976562 0.667969,0.5976562 0.691406,0 0.996094,-0.9609375 0.996094,-1.0664062 0,-0.09375 -0.08203,-0.09375 -0.105469,-0.09375 -0.105469,0 -0.105469,0.046875 -0.140625,0.1171875 -0.152344,0.5625 -0.457031,0.84375 -0.738281,0.84375 -0.140625,0 -0.175781,-0.082031 -0.175781,-0.2460938 0,-0.1523437 0.05859,-0.2929687 0.117187,-0.4453125 0.07031,-0.1875 0.140625,-0.375 0.222656,-0.5507812 0.05859,-0.16406252 0.316407,-0.80859377 0.339844,-0.89062502 0.02344,-0.0703125 0.04687,-0.15234375 0.04687,-0.22265625 0,-0.328125 -0.28125,-0.5859375 -0.667969,-0.5859375 -0.691406,0 -1.007812,0.94921875 -1.007812,1.06640625 0,0.0820313 0.09375,0.0820313 0.117187,0.0820313 0.09375,0 0.105469,-0.0351563 0.128907,-0.10546875 0.175781,-0.59765625 0.480468,-0.85546875 0.738281,-0.85546875 0.117187,0 0.175781,0.0585938 0.175781,0.24609375 0,0.1640625 -0.03516,0.26953125 -0.210937,0.703125 z M 45.631,-1.8952344 c 0,-0.1054687 -0.08203,-0.2578125 -0.28125,-0.2578125 -0.1875,0 -0.386719,0.1757813 -0.386719,0.375 0,0.1171875 0.08203,0.2695313 0.269531,0.2695313 0.210938,0 0.398438,-0.1992188 0.398438,-0.3867188 z m -1.429688,3.5390625 c -0.02344,0.09375 -0.05859,0.1757813 -0.05859,0.2929688 0,0.328125 0.28125,0.5976562 0.667968,0.5976562 0.691407,0 0.996094,-0.9609375 0.996094,-1.0664062 0,-0.09375 -0.08203,-0.09375 -0.105469,-0.09375 -0.105468,0 -0.105468,0.046875 -0.140625,0.1171875 -0.152343,0.5625 -0.457031,0.84375 -0.738281,0.84375 -0.140625,0 -0.175781,-0.082031 -0.175781,-0.2460938 0,-0.1523437 0.05859,-0.2929687 0.117187,-0.4453125 0.07031,-0.1875 0.140625,-0.375 0.222657,-0.5507812 0.05859,-0.16406252 0.316406,-0.80859377 0.339843,-0.89062502 0.02344,-0.0703125 0.04687,-0.15234375 0.04687,-0.22265625 0,-0.328125 -0.28125,-0.5859375 -0.667968,-0.5859375 -0.691407,0 -1.007813,0.94921875 -1.007813,1.06640625 0,0.0820313 0.09375,0.0820313 0.117188,0.0820313 0.09375,0 0.105468,-0.0351563 0.128906,-0.10546875 0.175781,-0.59765625 0.480469,-0.85546875 0.738281,-0.85546875 0.117188,0 0.175781,0.0585938 0.175781,0.24609375 0,0.1640625 -0.03516,0.26953125 -0.210937,0.703125 z m 0,0"
         style="fill:#ffffff;fill-opacity:1;fill-rule:nonzero;stroke:none" />
    </g>
    <g
       id="g16"
       aria-label="M&#10;S&#10;is"
       transform="matrix(1.3333333,0,0,1.3333333,216.31867,44.206667)"
       style="fill:#ffffff;fill-opacity:1">
      <path
         id="path17"
         d="M 5.4387344,-1.3122266 3.0481094,-6.5856641 C 2.9426406,-6.8317578 2.8254531,-6.8317578 2.6145156,-6.8317578 H 0.39967187 v 0.46875 H 1.4777969 v 5.60156249 c 0,0.22265625 -0.011719,0.234375 -0.2929688,0.2578125 -0.23437498,0.0351563 -0.25781248,0.0351563 -0.53906248,0.0351563 H 0.39967187 V 2.734375e-4 C 0.77467187,-0.03488281 1.3488906,-0.03488281 1.7356094,-0.03488281 c 0.421875,0 0.9375,0 1.3476562,0.0351562475 V -0.46847656 H 2.8254531 c -0.1757812,0 -0.3398437,-0.0117188 -0.5273437,-0.0351563 -0.28125,-0.0234375 -0.2929688,-0.0351563 -0.2929688,-0.2578125 V -6.2341016 h 0.011719 l 2.7070312,5.98828129 c 0.09375,0.19921875 0.2109375,0.2460937475 0.3164063,0.2460937475 0.1992187,0 0.28125,-0.1523437475 0.3164062,-0.2343749975 L 8.1340469,-6.3630078 h 0.011719 v 5.89453124 H 7.0793594 V 2.734375e-4 C 7.4309219,-0.03488281 8.3567031,-0.03488281 8.7668594,-0.03488281 c 0.4101562,0 1.3476566,0 1.6992186,0.0351562475 V -0.46847656 H 9.3996719 V -6.3630078 h 1.0664061 v -0.46875 H 8.2746719 c -0.2226563,0 -0.3398438,0 -0.4453125,0.2460937 z m 0,0"
         style="fill:#ffffff;fill-opacity:1;fill-rule:nonzero;stroke:none" />
      <path
         id="path18"
         d="m 15.821547,-9.1901562 c 0,-0.035156 -0.01172,-0.082031 -0.08203,-0.082031 -0.04687,0 -0.04687,0 -0.140625,0.09375 L 15.259047,-8.78 c -0.269531,-0.375 -0.703125,-0.4921875 -1.136719,-0.4921875 -0.984375,0 -1.851562,0.796875 -1.851562,1.59375 0,0.1054688 0.02344,0.3867188 0.234375,0.6445313 0.234375,0.28125 0.492187,0.3398437 0.960937,0.4453125 0.140625,0.035156 0.492188,0.1171875 0.597656,0.140625 0.222657,0.058594 0.644532,0.2109375 0.644532,0.7382812 0,0.5625 -0.585938,1.21875 -1.382813,1.21875 -0.621094,0 -1.359375,-0.2109375 -1.359375,-0.984375 0,-0.070312 0.02344,-0.2226562 0.04687,-0.3515625 0.01172,-0.023437 0.01172,-0.035156 0.01172,-0.035156 0,-0.09375 -0.09375,-0.09375 -0.117188,-0.09375 -0.09375,0 -0.105468,0.011719 -0.128906,0.140625 l -0.363281,1.3945312 c 0,0.023437 -0.01172,0.070312 -0.01172,0.1054688 0,0.035156 0.02344,0.082031 0.09375,0.082031 0.04687,0 0.04687,-0.011719 0.140625,-0.09375 0.07031,-0.09375 0.257813,-0.3164062 0.328125,-0.3984375 0.375,0.4101563 0.914063,0.4921875 1.335938,0.4921875 1.054687,0 1.898437,-0.9023437 1.898437,-1.734375 0,-0.3046875 -0.117187,-0.5859375 -0.269531,-0.7382812 -0.246094,-0.2578125 -0.351563,-0.28125 -1.253906,-0.4921875 -0.140625,-0.035156 -0.375,-0.09375 -0.433594,-0.1054688 -0.175781,-0.070312 -0.46875,-0.2460937 -0.46875,-0.6445312 0,-0.5507813 0.621094,-1.1015625 1.347656,-1.1015625 0.75,0 1.113281,0.421875 1.113281,1.0898437 0,0.082031 -0.03516,0.2460938 -0.03516,0.3046875 0,0.1054688 0.09375,0.1054688 0.128906,0.1054688 0.105469,0 0.105469,-0.035156 0.140625,-0.1523438 z m -2.683594,7.2949218 c 0,-0.1054687 -0.08203,-0.2578125 -0.28125,-0.2578125 -0.1875,0 -0.386719,0.1757813 -0.386719,0.375 0,0.1171875 0.08203,0.2695313 0.269532,0.2695313 0.210937,0 0.398437,-0.1992188 0.398437,-0.3867188 z m -1.429687,3.5390625 c -0.02344,0.09375 -0.05859,0.1757813 -0.05859,0.2929688 0,0.328125 0.28125,0.5976562 0.667969,0.5976562 0.691406,0 0.996093,-0.9609375 0.996093,-1.0664062 0,-0.09375 -0.08203,-0.09375 -0.105468,-0.09375 -0.105469,0 -0.105469,0.046875 -0.140625,0.1171875 -0.152344,0.5625 -0.457032,0.84375 -0.738282,0.84375 -0.140625,0 -0.175781,-0.082031 -0.175781,-0.2460938 0,-0.1523437 0.05859,-0.2929687 0.117188,-0.4453125 0.07031,-0.1875 0.140625,-0.375 0.222656,-0.5507812 0.05859,-0.16406252 0.316406,-0.80859377 0.339844,-0.89062502 0.02344,-0.0703125 0.04687,-0.15234375 0.04687,-0.22265625 0,-0.328125 -0.28125,-0.5859375 -0.667969,-0.5859375 -0.691406,0 -1.007813,0.94921875 -1.007813,1.06640625 0,0.0820313 0.09375,0.0820313 0.117188,0.0820313 0.09375,0 0.105469,-0.0351563 0.128906,-0.10546875 0.175781,-0.59765625 0.480469,-0.85546875 0.738281,-0.85546875 0.117188,0 0.175782,0.0585938 0.175782,0.24609375 0,0.1640625 -0.03516,0.26953125 -0.210938,0.703125 z m 4.986328,-1.80468747 c -0.175782,0.046875 -0.292969,0.1875 -0.292969,0.328125 0,0.1640625 0.140625,0.22265625 0.234375,0.22265625 0.07031,0 0.339844,-0.0351563 0.339844,-0.3984375 0,-0.4453125 -0.503907,-0.59765625 -0.925782,-0.59765625 -1.089843,0 -1.289062,0.796875 -1.289062,1.0078125 0,0.2578125 0.152344,0.43359375 0.246094,0.515625 0.175781,0.14062497 0.304687,0.16406247 0.785156,0.24609377 0.152344,0.035156 0.597656,0.1171875 0.597656,0.46875 0,0.1171875 -0.08203,0.375 -0.375,0.5507812 -0.269531,0.1523438 -0.609375,0.1523438 -0.691406,0.1523438 -0.28125,0 -0.679688,-0.058594 -0.84375,-0.2929688 0.234375,-0.023437 0.386719,-0.1992187 0.386719,-0.3984375 0,-0.1640625 -0.128907,-0.2578125 -0.269532,-0.2578125 -0.199218,0 -0.410156,0.1640625 -0.410156,0.46875 0,0.421875 0.445313,0.6796875 1.125,0.6796875 1.289063,0 1.523438,-0.8789062 1.523438,-1.1484375 0,-0.64453122 -0.703125,-0.77343747 -0.960938,-0.82031247 -0.07031,-0.0117188 -0.246094,-0.0351563 -0.28125,-0.0585938 -0.257812,-0.046875 -0.386719,-0.1875 -0.386719,-0.33984375 0,-0.1640625 0.128907,-0.3515625 0.28125,-0.4453125 0.1875,-0.12890625 0.433594,-0.140625 0.550782,-0.140625 0.140625,0 0.503906,0.0234375 0.65625,0.25781255 z m 0,0"
         style="fill:#ffffff;fill-opacity:1;fill-rule:nonzero;stroke:none" />
    </g>
    <path
       id="path19"
       d="m 4.5825312,-3.1862187 c 0,-0.796875 -0.046875,-1.59375 -0.3984375,-2.3320313 -0.4570312,-0.9609375 -1.2773437,-1.1132812 -1.6875,-1.1132812 -0.5976562,0 -1.3359375,0.2578125 -1.73437495,1.1835937 -0.328125,0.6914063 -0.375,1.4648438 -0.375,2.2617188 0,0.75 0.046875,1.640625 0.4453125,2.4023437 C 1.266125,0.02471875 1.9926875,0.2239375 2.484875,0.2239375 3.0239375,0.2239375 3.7739375,0.013 4.21925,-0.93621875 4.5356562,-1.627625 4.5825312,-2.4010625 4.5825312,-3.1862187 Z M 2.484875,0.00128125 C 2.0981562,0.00128125 1.5005,-0.2448125 1.3247187,-1.20575 1.21925,-1.8034062 1.21925,-2.7174687 1.21925,-3.3034062 c 0,-0.6445313 0,-1.3007813 0.082031,-1.8398438 0.1875,-1.1835937 0.9257813,-1.265625 1.1835938,-1.265625 0.328125,0 0.984375,0.1757813 1.171875,1.1601563 0.09375,0.5625 0.09375,1.3125 0.09375,1.9453125 0,0.75 0,1.4179687 -0.1054688,2.0625 -0.1523435,0.93749995 -0.7148435,1.24218745 -1.160156,1.24218745 z m 0,0"
       style="fill:#000000;fill-opacity:1;fill-rule:nonzero;stroke:none"
       aria-label="0"
       transform="matrix(1.3333333,0,0,1.3333333,109.74933,61.482667)" />
    <g
       id="g19"
       aria-label="M&#10;S&#10;si"
       transform="matrix(1.3333333,0,0,1.3333333,159.31333,61.482667)"
       style="fill:#ffffff;fill-opacity:1">
      <path
         id="path20"
         d="M 5.436875,-1.3112187 3.04625,-6.5846562 C 2.9407813,-6.83075 2.8235938,-6.83075 2.6126563,-6.83075 H 0.3978125 V -6.362 h 1.078125 v 5.6015625 c 0,0.22265625 -0.011719,0.234375 -0.2929687,0.2578125 -0.23437505,0.0351563 -0.25781255,0.0351563 -0.53906255,0.0351563 H 0.3978125 v 0.46875 c 0.375,-0.0351563 0.9492188,-0.0351563 1.3359375,-0.0351563 0.421875,0 0.9375,0 1.3476563,0.03515625 v -0.46875 H 2.8235938 C 2.6478125,-0.46746875 2.48375,-0.4791875 2.29625,-0.502625 2.015,-0.5260625 2.0032813,-0.53778125 2.0032813,-0.7604375 V -6.2330937 H 2.015 l 2.7070313,5.9882812 c 0.09375,0.19921875 0.2109375,0.24609375 0.3164062,0.24609375 0.1992188,0 0.28125,-0.15234375 0.3164063,-0.234375 L 8.1321875,-6.362 h 0.011719 v 5.89453125 H 7.0775 v 0.46875 C 7.4290625,-0.033875 8.3548438,-0.033875 8.765,-0.033875 c 0.4101563,0 1.347656,0 1.699219,0.03515625 v -0.46875 H 9.3978125 V -6.362 H 10.464219 V -6.83075 H 8.2728125 c -0.2226562,0 -0.3398437,0 -0.4453125,0.2460938 z m 0,0"
         style="fill:#ffffff;fill-opacity:1;fill-rule:nonzero;stroke:none" />
      <path
         id="path21"
         d="m 15.822617,-9.1891484 c 0,-0.035156 -0.01172,-0.082031 -0.08203,-0.082031 -0.04687,0 -0.04687,0 -0.140625,0.09375 l -0.339844,0.3984375 c -0.269531,-0.375 -0.703125,-0.4921875 -1.136719,-0.4921875 -0.984375,0 -1.851562,0.796875 -1.851562,1.59375 0,0.1054688 0.02344,0.3867188 0.234375,0.6445313 0.234375,0.28125 0.492187,0.3398437 0.960937,0.4453125 0.140625,0.035156 0.492188,0.1171875 0.597657,0.140625 0.222656,0.058594 0.644531,0.2109375 0.644531,0.7382812 0,0.5625 -0.585938,1.21875 -1.382813,1.21875 -0.621093,0 -1.359375,-0.2109375 -1.359375,-0.984375 0,-0.070312 0.02344,-0.2226562 0.04687,-0.3515625 0.01172,-0.023437 0.01172,-0.035156 0.01172,-0.035156 0,-0.09375 -0.09375,-0.09375 -0.117187,-0.09375 -0.09375,0 -0.105469,0.011719 -0.128907,0.140625 l -0.363281,1.3945312 c 0,0.023437 -0.01172,0.070312 -0.01172,0.1054688 0,0.035156 0.02344,0.082031 0.09375,0.082031 0.04687,0 0.04687,-0.011719 0.140625,-0.09375 0.07031,-0.09375 0.257813,-0.3164062 0.328125,-0.3984375 0.375,0.4101563 0.914063,0.4921875 1.335938,0.4921875 1.054687,0 1.898437,-0.9023437 1.898437,-1.734375 0,-0.3046875 -0.117187,-0.5859375 -0.269531,-0.7382812 -0.246094,-0.2578125 -0.351562,-0.28125 -1.253906,-0.4921875 -0.140625,-0.035156 -0.375,-0.09375 -0.433594,-0.1054688 -0.175781,-0.070312 -0.46875,-0.2460937 -0.46875,-0.6445312 0,-0.5507813 0.621094,-1.1015625 1.347656,-1.1015625 0.75,0 1.113282,0.421875 1.113282,1.0898437 0,0.082031 -0.03516,0.2460938 -0.03516,0.3046875 0,0.1054688 0.09375,0.1054688 0.128907,0.1054688 0.105468,0 0.105468,-0.035156 0.140625,-0.1523438 z m -1.945312,9.02636715 c -0.175782,0.046875 -0.292969,0.1875 -0.292969,0.328125 0,0.1640625 0.140625,0.22265625 0.234375,0.22265625 0.07031,0 0.339844,-0.0351563 0.339844,-0.3984375 0,-0.4453125 -0.503907,-0.59765625 -0.925782,-0.59765625 -1.089843,0 -1.289062,0.796875 -1.289062,1.0078125 0,0.2578125 0.152344,0.43359375 0.246094,0.515625 0.175781,0.14062505 0.304687,0.16406255 0.785156,0.24609375 0.152344,0.035156 0.597656,0.1171875 0.597656,0.46875 0,0.1171875 -0.08203,0.375 -0.375,0.5507813 -0.269531,0.1523437 -0.609375,0.1523437 -0.691406,0.1523437 -0.28125,0 -0.679688,-0.058594 -0.84375,-0.2929687 0.234375,-0.023437 0.386719,-0.1992188 0.386719,-0.3984375 0,-0.1640625 -0.128907,-0.2578125 -0.269532,-0.2578125 -0.199218,0 -0.410156,0.1640625 -0.410156,0.46875 0,0.421875 0.445313,0.6796875 1.125,0.6796875 1.289063,0 1.523438,-0.8789063 1.523438,-1.1484375 0,-0.6445313 -0.703125,-0.77343755 -0.960938,-0.82031255 -0.07031,-0.0117188 -0.246094,-0.0351563 -0.28125,-0.0585938 -0.257812,-0.046875 -0.386719,-0.1875 -0.386719,-0.33984375 0,-0.1640625 0.128907,-0.3515625 0.28125,-0.4453125 0.1875,-0.12890625 0.433594,-0.140625 0.550782,-0.140625 0.140625,0 0.503906,0.0234375 0.65625,0.25781255 z m 3.020507,-1.73437495 c 0,-0.1054688 -0.08203,-0.2578125 -0.28125,-0.2578125 -0.1875,0 -0.386718,0.1757812 -0.386718,0.375 0,0.1171875 0.08203,0.2695312 0.269531,0.2695312 0.210937,0 0.398437,-0.1992187 0.398437,-0.3867187 z m -1.429687,3.5390625 c -0.02344,0.09375 -0.05859,0.1757812 -0.05859,0.2929687 0,0.328125 0.28125,0.5976563 0.667969,0.5976563 0.691406,0 0.996094,-0.9609375 0.996094,-1.0664063 0,-0.09375 -0.08203,-0.09375 -0.105469,-0.09375 -0.105469,0 -0.105469,0.046875 -0.140625,0.1171875 -0.152344,0.5625 -0.457031,0.84375 -0.738281,0.84375 -0.140625,0 -0.175781,-0.082031 -0.175781,-0.2460937 0,-0.1523438 0.05859,-0.2929688 0.117187,-0.4453125 0.07031,-0.1875 0.140625,-0.375 0.222656,-0.5507813 0.05859,-0.1640625 0.316402,-0.80859375 0.33984,-0.890625 0.02344,-0.0703125 0.04687,-0.15234375 0.04687,-0.22265625 0,-0.328125 -0.28125,-0.5859375 -0.667969,-0.5859375 -0.691406,0 -1.007812,0.94921875 -1.007812,1.06640625 0,0.0820313 0.09375,0.0820313 0.117187,0.0820313 0.09375,0 0.105469,-0.0351563 0.128907,-0.10546875 0.175781,-0.59765625 0.480468,-0.85546875 0.738281,-0.85546875 0.117187,0 0.175781,0.0585938 0.175781,0.24609375 0,0.1640625 -0.03516,0.26953125 -0.210937,0.703125 z m 0,0"
         style="fill:#ffffff;fill-opacity:1;fill-rule:nonzero;stroke:none" />
    </g>
    <g
       id="g21"
       aria-label="M&#10;S&#10;ss"
       transform="matrix(1.3333333,0,0,1.3333333,215.69067,61.482667)"
       style="fill:#ffffff;fill-opacity:1">
      <path
         id="path22"
         d="M 5.4380547,-1.3112187 3.0474297,-6.5846562 C 2.9419609,-6.83075 2.8247734,-6.83075 2.6138359,-6.83075 H 0.39899219 V -6.362 H 1.4771172 v 5.6015625 c 0,0.22265625 -0.011719,0.234375 -0.2929688,0.2578125 -0.23437496,0.0351563 -0.25781246,0.0351563 -0.53906246,0.0351563 H 0.39899219 v 0.46875 c 0.375,-0.0351563 0.94921871,-0.0351563 1.33593751,-0.0351563 0.421875,0 0.9375,0 1.3476562,0.03515625 v -0.46875 H 2.8247734 c -0.1757812,0 -0.3398437,-0.0117188 -0.5273437,-0.0351563 -0.28125,-0.0234375 -0.2929688,-0.0351563 -0.2929688,-0.2578125 V -6.2330937 h 0.011719 l 2.7070312,5.98828115 c 0.09375,0.19921875 0.2109375,0.24609375 0.3164063,0.24609375 0.1992187,0 0.28125,-0.15234375 0.3164062,-0.234375 L 8.1333672,-6.362 h 0.011719 v 5.89453125 H 7.0786797 v 0.46875 C 7.4302422,-0.033875 8.3560234,-0.033875 8.7661797,-0.033875 c 0.4101562,0 1.3476563,0 1.6992183,0.03515625 v -0.46875 H 9.3989922 V -6.362 H 10.465398 V -6.83075 H 8.2739922 c -0.2226563,0 -0.3398438,0 -0.4453125,0.2460938 z m 0,0"
         style="fill:#ffffff;fill-opacity:1;fill-rule:nonzero;stroke:none" />
      <path
         id="path23"
         d="m 15.820867,-9.1891484 c 0,-0.035156 -0.01172,-0.082031 -0.08203,-0.082031 -0.04687,0 -0.04687,0 -0.140625,0.09375 l -0.339844,0.3984375 c -0.269531,-0.375 -0.703125,-0.4921875 -1.136719,-0.4921875 -0.984375,0 -1.851562,0.796875 -1.851562,1.59375 0,0.1054688 0.02344,0.3867188 0.234375,0.6445313 0.234375,0.28125 0.492187,0.3398437 0.960937,0.4453125 0.140625,0.035156 0.492188,0.1171875 0.597657,0.140625 0.222656,0.058594 0.644531,0.2109375 0.644531,0.7382812 0,0.5625 -0.585938,1.21875 -1.382813,1.21875 -0.621093,0 -1.359375,-0.2109375 -1.359375,-0.984375 0,-0.070312 0.02344,-0.2226562 0.04687,-0.3515625 0.01172,-0.023437 0.01172,-0.035156 0.01172,-0.035156 0,-0.09375 -0.09375,-0.09375 -0.117187,-0.09375 -0.09375,0 -0.105469,0.011719 -0.128907,0.140625 l -0.363281,1.3945312 c 0,0.023437 -0.01172,0.070312 -0.01172,0.1054688 0,0.035156 0.02344,0.082031 0.09375,0.082031 0.04687,0 0.04687,-0.011719 0.140625,-0.09375 0.07031,-0.09375 0.257813,-0.3164062 0.328125,-0.3984375 0.375,0.4101563 0.914063,0.4921875 1.335938,0.4921875 1.054687,0 1.898437,-0.9023437 1.898437,-1.734375 0,-0.3046875 -0.117187,-0.5859375 -0.269531,-0.7382812 -0.246094,-0.2578125 -0.351562,-0.28125 -1.253906,-0.4921875 -0.140625,-0.035156 -0.375,-0.09375 -0.433594,-0.1054688 -0.175781,-0.070312 -0.46875,-0.2460937 -0.46875,-0.6445312 0,-0.5507813 0.621094,-1.1015625 1.347656,-1.1015625 0.75,0 1.113282,0.421875 1.113282,1.0898437 0,0.082031 -0.03516,0.2460938 -0.03516,0.3046875 0,0.1054688 0.09375,0.1054688 0.128907,0.1054688 0.105468,0 0.105468,-0.035156 0.140625,-0.1523438 z m -1.945312,9.02636715 c -0.175782,0.046875 -0.292969,0.1875 -0.292969,0.328125 0,0.1640625 0.140625,0.22265625 0.234375,0.22265625 0.07031,0 0.339844,-0.0351563 0.339844,-0.3984375 0,-0.4453125 -0.503907,-0.59765625 -0.925782,-0.59765625 -1.089843,0 -1.289062,0.796875 -1.289062,1.0078125 0,0.2578125 0.152344,0.43359375 0.246094,0.515625 0.175781,0.14062505 0.304687,0.16406255 0.785156,0.24609375 0.152344,0.035156 0.597656,0.1171875 0.597656,0.46875 0,0.1171875 -0.08203,0.375 -0.375,0.5507813 -0.269531,0.1523437 -0.609375,0.1523437 -0.691406,0.1523437 -0.28125,0 -0.679688,-0.058594 -0.84375,-0.2929687 0.234375,-0.023437 0.386719,-0.1992188 0.386719,-0.3984375 0,-0.1640625 -0.128907,-0.2578125 -0.269532,-0.2578125 -0.199218,0 -0.410156,0.1640625 -0.410156,0.46875 0,0.421875 0.445313,0.6796875 1.125,0.6796875 1.289063,0 1.523438,-0.8789063 1.523438,-1.1484375 0,-0.6445313 -0.703125,-0.77343755 -0.960938,-0.82031255 -0.07031,-0.0117188 -0.246094,-0.0351563 -0.28125,-0.0585938 -0.257812,-0.046875 -0.386719,-0.1875 -0.386719,-0.33984375 0,-0.1640625 0.128907,-0.3515625 0.28125,-0.4453125 0.1875,-0.12890625 0.433594,-0.140625 0.550782,-0.140625 0.140625,0 0.503906,0.0234375 0.65625,0.25781255 z m 3.761718,0 c -0.175781,0.046875 -0.292968,0.1875 -0.292968,0.328125 0,0.1640625 0.140625,0.22265625 0.234375,0.22265625 0.07031,0 0.339843,-0.0351563 0.339843,-0.3984375 0,-0.4453125 -0.503906,-0.59765625 -0.925781,-0.59765625 -1.089844,0 -1.289062,0.796875 -1.289062,1.0078125 0,0.2578125 0.152343,0.43359375 0.246093,0.515625 0.175782,0.14062505 0.304688,0.16406255 0.785157,0.24609375 0.152343,0.035156 0.597656,0.1171875 0.597656,0.46875 0,0.1171875 -0.08203,0.375 -0.375,0.5507813 -0.269531,0.1523437 -0.609375,0.1523437 -0.691406,0.1523437 -0.28125,0 -0.679688,-0.058594 -0.84375,-0.2929687 0.234375,-0.023437 0.386718,-0.1992188 0.386718,-0.3984375 0,-0.1640625 -0.128906,-0.2578125 -0.269531,-0.2578125 -0.199219,0 -0.410156,0.1640625 -0.410156,0.46875 0,0.421875 0.445312,0.6796875 1.125,0.6796875 1.289062,0 1.523437,-0.8789063 1.523437,-1.1484375 0,-0.6445313 -0.703125,-0.77343755 -0.960937,-0.82031255 -0.07031,-0.0117188 -0.246094,-0.0351563 -0.28125,-0.0585938 -0.257813,-0.046875 -0.386719,-0.1875 -0.386719,-0.33984375 0,-0.1640625 0.128906,-0.3515625 0.28125,-0.4453125 0.1875,-0.12890625 0.433594,-0.140625 0.550781,-0.140625 0.140625,0 0.503907,0.0234375 0.65625,0.25781255 z m 0,0"
         style="fill:#ffffff;fill-opacity:1;fill-rule:nonzero;stroke:none" />
    </g>
    <path
       id="path24"
       d="M 2.6938906,17.530437 H 3.3852969 V -0.38753125 H 0.06889062 V 0.303875 H 2.6938906 Z m 0,17.241211 H 0.06889062 v 0.679688 H 3.3852969 V 17.533367 H 2.6938906 Z m 0,0"
       style="fill:#000000;fill-opacity:1;fill-rule:nonzero;stroke:none"
       aria-label="&#10;"
       transform="matrix(1.3333333,0,0,1.3333333,247.52533,17.657333)" />
    <path
       id="path25"
       d="M 1.66048,21.43149 H 50.03167 V 8.87299 H 1.66048 Z"
       style="fill:#005293;fill-opacity:1;fill-rule:nonzero;stroke:none"
       transform="matrix(1.3333333,0,0,-1.3333333,256.38,44.357333)" />
    <path
       id="path26"
       d="M 1.66048,8.87297 H 50.03167 V -3.09459 H 1.66048 Z"
       style="fill:#a2ad00;fill-opacity:1;fill-rule:nonzero;stroke:none"
       transform="matrix(1.3333333,0,0,-1.3333333,256.38,44.357333)" />
    <path
       id="path27"
       d="m 1.66048,-3.09459 h 48.37119 v -12.5585 H 1.66048 Z"
       style="fill:#e37222;fill-opacity:1;fill-rule:nonzero;stroke:none"
       transform="matrix(1.3333333,0,0,-1.3333333,256.38,44.357333)" />
    <path
       id="path28"
       d="M 3.2452734,17.530437 H 3.9366797 V 0.303875 h 2.625 V -0.38753125 H 3.2452734 Z m 0,17.920899 h 3.3164063 v -0.679688 h -2.625 V 17.533367 H 3.2452734 Z m 0,0"
       style="fill:#000000;fill-opacity:1;fill-rule:nonzero;stroke:none"
       aria-label="&#10;"
       transform="matrix(1.3333333,0,0,1.3333333,256.38,17.657333)" />
    <g
       id="g28"
       aria-label="u&#10;F&#10;f"
       transform="matrix(1.3333333,0,0,1.3333333,282.18267,26.957333)"
       style="fill:#ffffff;fill-opacity:1">
      <path
         id="path29"
         d="m 4.3600703,-0.71507031 v 0.7734375 L 6.1296016,-2.265625e-4 V -0.46897656 c -0.6210938,0 -0.6914063,0 -0.6914063,-0.38671875 V -4.4885078 l -1.8164062,0.082031 v 0.46875 c 0.609375,0 0.6796875,0 0.6796875,0.3867188 v 1.9101562 c 0,0.80859379 -0.5039063,1.33593754 -1.2304688,1.33593754 -0.7734375,0 -0.796875,-0.24609375 -0.796875,-0.78515624 V -4.488508 l -1.82812499,0.082031 v 0.46875 c 0.62109379,0 0.69140629,0 0.69140629,0.3867188 v 2.3203125 c 0,1.06640624 0.8085937,1.28906249 1.7929687,1.28906249 0.2578125,0 0.9726563,0 1.4296875,-0.7734371 z m 0,0"
         style="fill:#ffffff;fill-opacity:1;fill-rule:nonzero;stroke:none" />
      <path
         id="path30"
         d="m 8.7428828,-5.8654609 h 0.75 c 0.5273442,0 0.6210942,0.09375 0.6210942,0.3164062 0,0.1054688 0,0.1171875 -0.04687,0.3164063 -0.01172,0.046875 -0.02344,0.058594 -0.02344,0.082031 0,0.070312 0.04687,0.1054688 0.117188,0.1054688 0.09375,0 0.105468,-0.035156 0.140625,-0.1640625 l 0.375,-1.4765625 c 0,-0.023437 0.02344,-0.1289063 0.02344,-0.140625 0,-0.070312 -0.04687,-0.1054688 -0.117187,-0.1054688 -0.09375,0 -0.105469,0.046875 -0.140625,0.1757813 -0.140625,0.5390625 -0.339844,0.6445312 -0.9375004,0.6445312 H 8.8131953 l 0.4335938,-1.7460937 c 0.058594,-0.2226563 0.070312,-0.2460938 0.3632812,-0.2460938 h 1.0664067 c 0.925781,0 1.101562,0.2226563 1.101562,0.8085938 0,0.2226562 -0.03516,0.375 -0.03516,0.4335937 0,0.046875 0.02344,0.1171875 0.117187,0.1171875 0.105469,0 0.117188,-0.070312 0.128907,-0.1875 l 0.128906,-1.2070312 c 0.02344,-0.2109375 -0.03516,-0.2109375 -0.199219,-0.2109375 H 8.1921016 c -0.1289063,0 -0.2226563,0 -0.2226563,0.1523437 0,0.09375 0.082031,0.09375 0.2226563,0.09375 0,0 0.140625,0 0.2695312,0.023437 0.140625,0.011719 0.1523438,0.023437 0.1523438,0.09375 0,0.046875 -0.023437,0.1171875 -0.023437,0.1523438 l -0.9140625,3.6445312 c -0.070312,0.2695313 -0.082031,0.328125 -0.6210938,0.328125 -0.1171875,0 -0.2109375,0 -0.2109375,0.140625 0,0.070312 0.046875,0.1054688 0.1171875,0.1054688 0.1992188,0 0.7148438,-0.023437 0.9140625,-0.023437 h 0.5390625 c 0.1757813,0 0.375,0.023437 0.5507813,0.023437 0.046875,0 0.1523437,0 0.1523437,-0.1523438 0,-0.09375 -0.082031,-0.09375 -0.2460937,-0.09375 -0.011719,0 -0.1875,0 -0.3632813,-0.023437 -0.140625,-0.011719 -0.2109375,-0.011719 -0.2109375,-0.1171875 0,-0.023437 0,-0.046875 0.023437,-0.1171875 z m 0.4570313,5.93261715 h 0.6796875 c 0.1406254,0 0.2343754,0 0.2343754,-0.15234375 0,-0.09375 -0.09375,-0.09375 -0.2109379,-0.09375 h -0.65625 c 0.1640625,-0.890625 0.2226562,-1.2070312 0.28125,-1.4179687 0.035156,-0.1523438 0.1875,-0.2929688 0.3515625,-0.2929688 0,0 0.1992184,0 0.3281254,0.082031 -0.2929692,0.09375 -0.3046879,0.3398437 -0.3046879,0.3867187 0,0.1523438 0.1171879,0.2578125 0.2695309,0.2578125 0.199219,0 0.398438,-0.1640625 0.398438,-0.4335937 0,-0.3164063 -0.339844,-0.4921875 -0.6914064,-0.4921875 -0.3046875,0 -0.6445313,0.1757812 -0.84375,0.5273437 -0.1289063,0.2578125 -0.1875,0.57421875 -0.3398438,1.3828125 H 8.1452266 c -0.140625,0 -0.2226563,0 -0.2226563,0.15234375 0,0.09375 0.082031,0.09375 0.2109375,0.09375 h 0.515625 c 0,0.046875 -0.4453125,2.55468755 -0.609375,3.29296875 -0.035156,0.1640625 -0.1523437,0.6914063 -0.4921875,0.6914063 0,0 -0.1757812,0 -0.3046875,-0.082031 0.28125,-0.09375 0.3046875,-0.3515625 0.3046875,-0.3867187 0,-0.1523438 -0.1171875,-0.2578125 -0.28125,-0.2578125 -0.1875,0 -0.3984375,0.1640625 -0.3984375,0.421875 0,0.3164062 0.328125,0.4921875 0.6796875,0.4921875 0.4453125,0 0.75,-0.4570313 0.84375,-0.609375 0.2460938,-0.46875 0.4101563,-1.3242188 0.421875,-1.40625 z m 0,0"
         style="fill:#ffffff;fill-opacity:1;fill-rule:nonzero;stroke:none" />
    </g>
    <g
       id="g30"
       aria-label="u&#10;F&#10;i&#10;=u&#10;S&#10;i"
       transform="matrix(1.3333333,0,0,1.3333333,265.236,43.701333)"
       style="fill:#ffffff;fill-opacity:1">
      <path
         id="path31"
         d="M 4.3581563,-0.7135 V 0.0599375 L 6.1276875,0.00134375 v -0.46875 c -0.6210937,0 -0.6914062,0 -0.6914062,-0.38671875 v -3.6328125 l -1.8164063,0.082031 v 0.46875 c 0.609375,0 0.6796875,0 0.6796875,0.3867187 v 1.9101563 c 0,0.8085937 -0.5039062,1.33593745 -1.2304687,1.33593745 -0.7734375,0 -0.796875,-0.24609375 -0.796875,-0.78515625 v -3.3984375 l -1.82812505,0.082031 v 0.46875 c 0.62109375,0 0.69140625,0 0.69140625,0.3867187 v 2.3203125 c 0,1.06640625 0.8085938,1.2890625 1.7929688,1.2890625 0.2578125,0 0.9726562,0 1.4296875,-0.7734369 z m 0,0"
         style="fill:#ffffff;fill-opacity:1;fill-rule:nonzero;stroke:none" />
      <path
         id="path32"
         d="m 8.7438984,-5.8638906 h 0.75 c 0.5273436,0 0.6210936,0.09375 0.6210936,0.3164062 0,0.1054688 0,0.1171875 -0.04687,0.3164063 -0.01172,0.046875 -0.02344,0.058594 -0.02344,0.082031 0,0.070312 0.04687,0.1054688 0.117187,0.1054688 0.09375,0 0.105469,-0.035156 0.140625,-0.1640625 l 0.375,-1.4765625 c 0,-0.023437 0.02344,-0.1289063 0.02344,-0.140625 0,-0.070312 -0.04687,-0.1054688 -0.117188,-0.1054688 -0.09375,0 -0.105469,0.046875 -0.140625,0.1757813 -0.140625,0.5390625 -0.339844,0.6445312 -0.9374998,0.6445312 H 8.8142109 l 0.4335938,-1.7460937 c 0.058594,-0.2226563 0.070312,-0.2460938 0.3632812,-0.2460938 h 1.0664061 c 0.925781,0 1.101563,0.2226563 1.101563,0.8085938 0,0.2226562 -0.03516,0.375 -0.03516,0.4335937 0,0.046875 0.02344,0.1171875 0.117188,0.1171875 0.105469,0 0.117187,-0.070312 0.128906,-0.1875 l 0.128906,-1.2070312 c 0.02344,-0.2109375 -0.03516,-0.2109375 -0.199218,-0.2109375 H 8.1931172 c -0.1289063,0 -0.2226563,0 -0.2226563,0.1523437 0,0.09375 0.082031,0.09375 0.2226563,0.09375 0,0 0.140625,0 0.2695312,0.023437 0.140625,0.011719 0.1523438,0.023437 0.1523438,0.09375 0,0.046875 -0.023437,0.1171875 -0.023437,0.1523438 l -0.9140625,3.6445312 c -0.070312,0.2695313 -0.082031,0.328125 -0.6210938,0.328125 -0.1171875,0 -0.2109375,0 -0.2109375,0.140625 0,0.070312 0.046875,0.1054688 0.1171875,0.1054688 0.1992188,0 0.7148438,-0.023437 0.9140625,-0.023437 h 0.5390625 c 0.1757813,0 0.375,0.023437 0.5507813,0.023437 0.046875,0 0.1523437,0 0.1523437,-0.1523438 0,-0.09375 -0.082031,-0.09375 -0.2460937,-0.09375 -0.011719,0 -0.1875,0 -0.3632813,-0.023437 -0.140625,-0.011719 -0.2109375,-0.011719 -0.2109375,-0.1171875 0,-0.023437 0,-0.046875 0.023437,-0.1171875 z m -0.1171875,4.0986328 c 0,-0.1054688 -0.082031,-0.2578125 -0.28125,-0.2578125 -0.1875,0 -0.3867187,0.1757812 -0.3867187,0.375 0,0.1171875 0.082031,0.2695312 0.2695312,0.2695312 0.2109375,0 0.3984375,-0.1992187 0.3984375,-0.3867187 z M 7.1970234,1.7738047 c -0.023437,0.09375 -0.058594,0.1757812 -0.058594,0.2929687 0,0.328125 0.28125,0.5976563 0.6679687,0.5976563 0.6914063,0 0.9960938,-0.9609375 0.9960938,-1.0664063 0,-0.09375 -0.082031,-0.09375 -0.1054688,-0.09375 -0.1054687,0 -0.1054687,0.046875 -0.140625,0.1171875 -0.1523437,0.5625 -0.4570312,0.84375 -0.7382812,0.84375 -0.140625,0 -0.1757813,-0.082031 -0.1757813,-0.2460937 0,-0.1523438 0.058594,-0.2929688 0.1171875,-0.4453125 0.070312,-0.1875 0.140625,-0.375 0.2226563,-0.5507813 0.058594,-0.1640625 0.3164062,-0.80859371 0.3398437,-0.89062496 0.023437,-0.0703125 0.046875,-0.15234375 0.046875,-0.22265625 0,-0.328125 -0.28125,-0.5859375 -0.6679687,-0.5859375 -0.6914063,0 -1.0078125,0.94921875 -1.0078125,1.06640625 0,0.0820313 0.09375,0.0820313 0.1171875,0.0820313 0.09375,0 0.1054687,-0.0351563 0.1289062,-0.10546875 0.1757813,-0.59765625 0.4804688,-0.85546875 0.7382813,-0.85546875 0.1171875,0 0.1757812,0.0585937 0.1757812,0.24609375 0,0.1640625 -0.035156,0.26953125 -0.2109375,0.703125 z m 0,0"
         style="fill:#ffffff;fill-opacity:1;fill-rule:nonzero;stroke:none" />
      <path
         id="path33"
         d="m 22.598391,-3.2564687 c 0.152343,0 0.339843,0 0.339843,-0.1992188 0,-0.1992187 -0.1875,-0.1992187 -0.328125,-0.1992187 h -5.964843 c -0.140625,0 -0.328125,0 -0.328125,0.1992187 0,0.1992188 0.1875,0.1992188 0.339843,0.1992188 z m 0.01172,1.9335937 c 0.140625,0 0.328125,0 0.328125,-0.1992187 0,-0.1992188 -0.1875,-0.1992188 -0.339843,-0.1992188 h -5.941407 c -0.152343,0 -0.339843,0 -0.339843,0.1992188 0,0.1992187 0.1875,0.1992187 0.328125,0.1992187 z m 0,0"
         style="fill:#ffffff;fill-opacity:1;fill-rule:nonzero;stroke:none" />
      <path
         id="path34"
         d="m 30.631594,-0.7135 v 0.7734375 l 1.769531,-0.05859375 v -0.46875 c -0.621094,0 -0.691406,0 -0.691406,-0.38671875 v -3.6328125 l -1.816406,0.082031 v 0.46875 c 0.609375,0 0.679687,0 0.679687,0.3867187 v 1.9101563 c 0,0.8085937 -0.503906,1.33593745 -1.230469,1.33593745 -0.773437,0 -0.796875,-0.24609375 -0.796875,-0.78515625 v -3.3984375 l -1.828125,0.082031 v 0.46875 c 0.621094,0 0.691407,0 0.691407,0.3867187 v 2.3203125 c 0,1.06640625 0.808593,1.2890625 1.792968,1.2890625 0.257813,0 0.972657,0 1.429688,-0.7734369 z m 0,0"
         style="fill:#ffffff;fill-opacity:1;fill-rule:nonzero;stroke:none" />
      <path
         id="path35"
         d="m 37.583742,-8.4302969 c 0,-0.035156 -0.01172,-0.082031 -0.08203,-0.082031 -0.04687,0 -0.04687,0 -0.140625,0.09375 l -0.339844,0.3984375 c -0.269531,-0.375 -0.703125,-0.4921875 -1.136719,-0.4921875 -0.984375,0 -1.851562,0.796875 -1.851562,1.59375 0,0.1054687 0.02344,0.3867187 0.234375,0.6445312 0.234375,0.28125 0.492187,0.3398438 0.960937,0.4453125 0.140625,0.035156 0.492188,0.1171875 0.597657,0.140625 0.222656,0.058594 0.644531,0.2109375 0.644531,0.7382813 0,0.5625 -0.585938,1.21875 -1.382813,1.21875 -0.621093,0 -1.359375,-0.2109375 -1.359375,-0.984375 0,-0.070312 0.02344,-0.2226563 0.04687,-0.3515625 0.01172,-0.023437 0.01172,-0.035156 0.01172,-0.035156 0,-0.09375 -0.09375,-0.09375 -0.117187,-0.09375 -0.09375,0 -0.105469,0.011719 -0.128907,0.140625 l -0.363281,1.3945313 c 0,0.023437 -0.01172,0.070312 -0.01172,0.1054687 0,0.035156 0.02344,0.082031 0.09375,0.082031 0.04687,0 0.04687,-0.011719 0.140625,-0.09375 0.07031,-0.09375 0.257813,-0.3164063 0.328125,-0.3984375 0.375,0.4101562 0.914063,0.4921875 1.335938,0.4921875 1.054687,0 1.898437,-0.9023438 1.898437,-1.734375 0,-0.3046875 -0.117187,-0.5859375 -0.269531,-0.7382813 -0.246094,-0.2578125 -0.351562,-0.28125 -1.253906,-0.4921875 -0.140625,-0.035156 -0.375,-0.09375 -0.433594,-0.1054687 -0.175781,-0.070312 -0.46875,-0.2460938 -0.46875,-0.6445313 0,-0.5507812 0.621094,-1.1015625 1.347656,-1.1015625 0.75,0 1.113282,0.421875 1.113282,1.0898438 0,0.082031 -0.03516,0.2460937 -0.03516,0.3046875 0,0.1054687 0.09375,0.1054687 0.128907,0.1054687 0.105468,0 0.105468,-0.035156 0.140625,-0.1523437 z m -2.683594,6.6650391 c 0,-0.1054688 -0.08203,-0.2578125 -0.28125,-0.2578125 -0.1875,0 -0.386718,0.1757812 -0.386718,0.375 0,0.1171875 0.08203,0.2695312 0.269531,0.2695312 0.210937,0 0.398437,-0.1992187 0.398437,-0.3867187 z m -1.429687,3.5390625 c -0.02344,0.09375 -0.05859,0.1757812 -0.05859,0.2929687 0,0.328125 0.28125,0.5976563 0.667969,0.5976563 0.691406,0 0.996094,-0.9609375 0.996094,-1.0664063 0,-0.09375 -0.08203,-0.09375 -0.105469,-0.09375 -0.105469,0 -0.105469,0.046875 -0.140625,0.1171875 -0.152344,0.5625 -0.457031,0.84375 -0.738281,0.84375 -0.140625,0 -0.175782,-0.082031 -0.175782,-0.2460937 0,-0.1523438 0.05859,-0.2929688 0.117188,-0.4453125 0.07031,-0.1875 0.140625,-0.375 0.222656,-0.5507813 0.05859,-0.1640625 0.316406,-0.80859371 0.339844,-0.89062496 0.02344,-0.0703125 0.04687,-0.15234375 0.04687,-0.22265625 0,-0.328125 -0.28125,-0.5859375 -0.667969,-0.5859375 -0.691406,0 -1.007812,0.94921875 -1.007812,1.06640625 0,0.0820313 0.09375,0.0820313 0.117187,0.0820313 0.09375,0 0.105469,-0.0351563 0.128906,-0.10546875 0.175782,-0.59765625 0.480469,-0.85546875 0.738282,-0.85546875 0.117187,0 0.175781,0.0585937 0.175781,0.24609375 0,0.1640625 -0.03516,0.26953125 -0.210938,0.703125 z m 0,0"
         style="fill:#ffffff;fill-opacity:1;fill-rule:nonzero;stroke:none" />
    </g>
    <g
       id="g35"
       aria-label="u&#10;F&#10;f"
       transform="matrix(1.3333333,0,0,1.3333333,282.18267,59.658667)"
       style="fill:#ffffff;fill-opacity:1">
      <path
         id="path36"
         d="m 4.3600703,-0.71372656 v 0.7734375 L 6.1296016,0.00111719 v -0.46875 c -0.6210938,0 -0.6914063,0 -0.6914063,-0.38671875 V -4.4871641 l -1.8164062,0.082031 v 0.46875 c 0.609375,0 0.6796875,0 0.6796875,0.3867187 v 1.9101563 c 0,0.80859374 -0.5039063,1.33593749 -1.2304688,1.33593749 -0.7734375,0 -0.796875,-0.24609375 -0.796875,-0.78515629 v -3.3984375 l -1.82812499,0.082031 v 0.46875 c 0.62109379,0 0.69140629,0 0.69140629,0.3867187 v 2.3203125 c 0,1.06640629 0.8085937,1.28906254 1.7929687,1.28906254 0.2578125,0 0.9726563,0 1.4296875,-0.7734369 z m 0,0"
         style="fill:#ffffff;fill-opacity:1;fill-rule:nonzero;stroke:none" />
      <path
         id="path37"
         d="m 8.7428828,-5.8670469 h 0.75 c 0.5273442,0 0.6210942,0.09375 0.6210942,0.3164063 0,0.1054687 0,0.1171875 -0.04687,0.3164062 -0.01172,0.046875 -0.02344,0.058594 -0.02344,0.082031 0,0.070312 0.04687,0.1054687 0.117188,0.1054687 0.09375,0 0.105468,-0.035156 0.140625,-0.1640625 l 0.375,-1.4765625 c 0,-0.023437 0.02344,-0.1289062 0.02344,-0.140625 0,-0.070312 -0.04687,-0.1054687 -0.117187,-0.1054687 -0.09375,0 -0.105469,0.046875 -0.140625,0.1757812 -0.140625,0.5390625 -0.339844,0.6445313 -0.9375004,0.6445313 H 8.8131953 l 0.4335938,-1.7460938 c 0.058594,-0.2226562 0.070312,-0.2460937 0.3632812,-0.2460937 h 1.0664067 c 0.925781,0 1.101562,0.2226562 1.101562,0.8085937 0,0.2226563 -0.03516,0.375 -0.03516,0.4335938 0,0.046875 0.02344,0.1171875 0.117187,0.1171875 0.105469,0 0.117188,-0.070312 0.128907,-0.1875 l 0.128906,-1.2070313 c 0.02344,-0.2109375 -0.03516,-0.2109375 -0.199219,-0.2109375 H 8.1921016 c -0.1289063,0 -0.2226563,0 -0.2226563,0.1523438 0,0.09375 0.082031,0.09375 0.2226563,0.09375 0,0 0.140625,0 0.2695312,0.023437 0.140625,0.011719 0.1523438,0.023437 0.1523438,0.09375 0,0.046875 -0.023437,0.1171875 -0.023437,0.1523437 l -0.9140625,3.6445313 c -0.070312,0.2695312 -0.082031,0.328125 -0.6210938,0.328125 -0.1171875,0 -0.2109375,0 -0.2109375,0.140625 0,0.070312 0.046875,0.1054687 0.1171875,0.1054687 0.1992188,0 0.7148438,-0.023437 0.9140625,-0.023437 h 0.5390625 c 0.1757813,0 0.375,0.023437 0.5507813,0.023437 0.046875,0 0.1523437,0 0.1523437,-0.1523437 0,-0.09375 -0.082031,-0.09375 -0.2460937,-0.09375 -0.011719,0 -0.1875,0 -0.3632813,-0.023437 -0.140625,-0.011719 -0.2109375,-0.011719 -0.2109375,-0.1171875 0,-0.023437 0,-0.046875 0.023437,-0.1171875 z M 9.1999141,0.0685 h 0.6796875 c 0.1406254,0 0.2343754,0 0.2343754,-0.15234375 0,-0.09375 -0.09375,-0.09375 -0.2109379,-0.09375 h -0.65625 c 0.1640625,-0.89062495 0.2226562,-1.20703125 0.28125,-1.41796875 0.035156,-0.1523437 0.1875,-0.2929687 0.3515625,-0.2929687 0,0 0.1992184,0 0.3281254,0.082031 -0.2929692,0.09375 -0.3046879,0.3398438 -0.3046879,0.3867188 0,0.1523437 0.1171879,0.2578125 0.2695309,0.2578125 0.199219,0 0.398438,-0.1640625 0.398438,-0.4335938 0,-0.3164062 -0.339844,-0.4921875 -0.6914064,-0.4921875 -0.3046875,0 -0.6445313,0.1757813 -0.84375,0.5273438 -0.1289063,0.2578125 -0.1875,0.5742187 -0.3398438,1.38281245 H 8.1452266 c -0.140625,0 -0.2226563,0 -0.2226563,0.15234375 0,0.09375 0.082031,0.09375 0.2109375,0.09375 h 0.515625 c 0,0.046875 -0.4453125,2.5546875 -0.609375,3.2929688 -0.035156,0.1640625 -0.1523437,0.6914062 -0.4921875,0.6914062 0,0 -0.1757812,0 -0.3046875,-0.082031 0.28125,-0.09375 0.3046875,-0.3515625 0.3046875,-0.3867188 0,-0.1523437 -0.1171875,-0.2578125 -0.28125,-0.2578125 -0.1875,0 -0.3984375,0.1640625 -0.3984375,0.421875 0,0.3164063 0.328125,0.4921875 0.6796875,0.4921875 0.4453125,0 0.75,-0.4570312 0.84375,-0.609375 0.2460938,-0.46875 0.4101563,-1.3242187 0.421875,-1.40625 z m 0,0"
         style="fill:#ffffff;fill-opacity:1;fill-rule:nonzero;stroke:none" />
    </g>
    <path
       id="path38"
       d="M 2.6942969,17.530438 H 3.3857031 V -0.38753125 H 0.06929688 V 0.303875 H 2.6942969 Z m 0,17.24121 H 0.06929688 v 0.679688 H 3.3857031 V 17.533367 H 2.6942969 Z m 0,0"
       style="fill:#000000;fill-opacity:1;fill-rule:nonzero;stroke:none"
       aria-label="&#10;"
       transform="matrix(1.3333333,0,0,1.3333333,316.44667,17.657333)" />
    <path
       id="path39"
       d="m 6.8438906,-3.2592109 c 0.1523438,0 0.3398438,0 0.3398438,-0.1992188 0,-0.1992187 -0.1875,-0.1992187 -0.328125,-0.1992187 H 0.89076563 c -0.140625,0 -0.328125,0 -0.328125,0.1992187 0,0.1992188 0.1875,0.1992188 0.33984375,0.1992188 z m 0.011719,1.9335937 c 0.140625,0 0.328125,0 0.328125,-0.1992187 0,-0.1992188 -0.1875,-0.1992188 -0.3398438,-0.1992188 H 0.90248438 c -0.15234375,0 -0.33984375,0 -0.33984375,0.1992188 0,0.1992187 0.1875,0.1992187 0.328125,0.1992187 z m 0,0"
       style="fill:#000000;fill-opacity:1;fill-rule:nonzero;stroke:none"
       aria-label="="
       transform="matrix(1.3333333,0,0,1.3333333,328.992,44.357333)" />
    <path
       id="path40"
       d="M 1.66048,21.42535 H 22.96491 V 8.86685 H 1.66048 Z"
       style="fill:#005293;fill-opacity:1;fill-rule:nonzero;stroke:none"
       transform="matrix(1.3333333,0,0,-1.3333333,343.01333,44.357333)" />
    <path
       id="path41"
       d="M 1.66048,8.86685 H 22.96491 V -3.08847 H 1.66048 Z"
       style="fill:#a2ad00;fill-opacity:1;fill-rule:nonzero;stroke:none"
       transform="matrix(1.3333333,0,0,-1.3333333,343.01333,44.357333)" />
    <path
       id="path42"
       d="m 1.66048,-3.08846 h 21.30443 v -12.5585 H 1.66048 Z"
       style="fill:#e37222;fill-opacity:1;fill-rule:nonzero;stroke:none"
       transform="matrix(1.3333333,0,0,-1.3333333,343.01333,44.357333)" />
    <path
       id="path43"
       d="M 3.2448828,17.530438 H 3.9362891 V 0.303875 h 2.625 V -0.38753125 H 3.2448828 Z m 0,17.920898 h 3.3164063 v -0.679688 h -2.625 V 17.533367 H 3.2448828 Z m 0,0"
       style="fill:#000000;fill-opacity:1;fill-rule:nonzero;stroke:none"
       aria-label="&#10;"
       transform="matrix(1.3333333,0,0,1.3333333,343.01333,17.657333)" />
    <g
       id="g43"
       aria-label="r&#10;F&#10;f"
       transform="matrix(1.3333333,0,0,1.3333333,351.86933,26.965333)">
      <path
         id="path44"
         d="m 2.0286641,-3.3519297 v -1.1367187 l -1.66406254,0.082031 v 0.46875 c 0.62109375,0 0.69140624,0 0.69140624,0.3867188 v 3.08203121 H 0.36460156 V -3.671875e-4 C 0.71616406,-0.01208594 1.1614766,-0.03552344 1.6302266,-0.03552344 c 0.375,0 1.0078125,0 1.3710937,0.0351562525 V -0.46911719 H 2.1341328 V -2.2152109 c 0,-0.6914063 0.2460938,-1.9101563 1.2421875,-1.9101563 -0.011719,0.011719 -0.1875,0.1757813 -0.1875,0.4570313 0,0.4101562 0.3164063,0.609375 0.609375,0.609375 0.2929688,0 0.609375,-0.2109375 0.609375,-0.609375 0,-0.5273438 -0.5390625,-0.8203125 -1.0546875,-0.8203125 -0.703125,0 -1.1015625,0.5039062 -1.3242187,1.1367187 z m 0,0"
         style="fill:#000000;fill-opacity:1;fill-rule:nonzero;stroke:none" />
      <path
         id="path45"
         d="m 7.0970234,-5.8656016 h 0.75 c 0.5273438,0 0.6210938,0.09375 0.6210938,0.3164063 0,0.1054687 0,0.1171875 -0.046875,0.3164062 -0.011719,0.046875 -0.023437,0.058594 -0.023437,0.082031 0,0.070312 0.046875,0.1054687 0.1171875,0.1054687 0.09375,0 0.1054687,-0.035156 0.140625,-0.1640625 l 0.375,-1.4765625 c 0,-0.023437 0.023437,-0.1289062 0.023437,-0.140625 0,-0.070312 -0.046875,-0.1054687 -0.1171875,-0.1054687 -0.09375,0 -0.1054688,0.046875 -0.140625,0.1757812 -0.140625,0.5390625 -0.3398438,0.6445313 -0.9375,0.6445313 H 7.1673359 l 0.4335938,-1.7460938 c 0.058594,-0.2226562 0.070312,-0.2460937 0.3632812,-0.2460937 h 1.0664063 c 0.9257812,0 1.1015628,0.2226562 1.1015628,0.8085937 0,0.2226563 -0.03516,0.375 -0.03516,0.4335938 0,0.046875 0.02344,0.1171875 0.117188,0.1171875 0.105469,0 0.117187,-0.070312 0.128906,-0.1875 l 0.128906,-1.2070313 c 0.02344,-0.2109375 -0.03516,-0.2109375 -0.199218,-0.2109375 H 6.5462422 c -0.1289063,0 -0.2226563,0 -0.2226563,0.1523438 0,0.09375 0.082031,0.09375 0.2226563,0.09375 0,0 0.140625,0 0.2695312,0.023437 0.140625,0.011719 0.1523438,0.023437 0.1523438,0.09375 0,0.046875 -0.023437,0.1171875 -0.023437,0.1523437 l -0.9140625,3.6445313 c -0.070312,0.2695312 -0.082031,0.328125 -0.6210938,0.328125 -0.1171875,0 -0.2109375,0 -0.2109375,0.140625 0,0.070312 0.046875,0.1054687 0.1171875,0.1054687 0.1992188,0 0.7148438,-0.023437 0.9140625,-0.023437 h 0.5390625 c 0.1757813,0 0.375,0.023437 0.5507813,0.023437 0.046875,0 0.1523437,0 0.1523437,-0.1523437 0,-0.09375 -0.082031,-0.09375 -0.2460937,-0.09375 -0.011719,0 -0.1875,0 -0.3632813,-0.023437 -0.140625,-0.011719 -0.2109375,-0.011719 -0.2109375,-0.1171875 0,-0.023437 0,-0.046875 0.023437,-0.1171875 z m 0.4570313,5.93261723 h 0.6796875 c 0.140625,0 0.234375,0 0.234375,-0.15234375 0,-0.09375 -0.09375,-0.09375 -0.2109375,-0.09375 h -0.65625 c 0.1640625,-0.89062498 0.2226562,-1.20703128 0.28125,-1.41796878 0.035156,-0.1523437 0.1875,-0.2929687 0.3515625,-0.2929687 0,0 0.1992187,0 0.328125,0.082031 -0.2929688,0.09375 -0.3046875,0.3398438 -0.3046875,0.3867188 0,0.1523437 0.1171875,0.2578125 0.2695312,0.2578125 0.1992188,0 0.3984375,-0.1640625 0.3984375,-0.4335938 0,-0.3164062 -0.3398437,-0.4921875 -0.6914062,-0.4921875 -0.3046875,0 -0.6445313,0.1757813 -0.84375,0.5273438 -0.1289063,0.2578125 -0.1875,0.57421873 -0.3398438,1.38281248 H 6.4993672 c -0.140625,0 -0.2226563,0 -0.2226563,0.15234375 0,0.09375 0.082031,0.09375 0.2109375,0.09375 h 0.515625 c 0,0.046875 -0.4453125,2.55468747 -0.609375,3.29296877 -0.035156,0.1640625 -0.1523437,0.6914062 -0.4921875,0.6914062 0,0 -0.1757812,0 -0.3046875,-0.082031 0.28125,-0.09375 0.3046875,-0.3515625 0.3046875,-0.3867188 0,-0.1523437 -0.1171875,-0.2578125 -0.28125,-0.2578125 -0.1875,0 -0.3984375,0.1640625 -0.3984375,0.421875 0,0.3164063 0.328125,0.4921875 0.6796875,0.4921875 0.4453125,0 0.75,-0.4570312 0.84375,-0.609375 0.2460938,-0.46875 0.4101563,-1.3242187 0.421875,-1.40625 z m 0,0"
         style="fill:#000000;fill-opacity:1;fill-rule:nonzero;stroke:none" />
    </g>
    <g
       id="g45"
       aria-label="r&#10;i"
       transform="matrix(1.3333333,0,0,1.3333333,354.07333,43.693333)">
      <path
         id="path46"
         d="m 2.0280078,-3.3530078 v -1.1367188 l -1.66406249,0.082031 v 0.46875 c 0.62109375,0 0.69140629,0 0.69140629,0.3867187 v 3.08203129 H 0.36394531 v 0.46875 c 0.3515625,-0.01171875 0.79687499,-0.03515625 1.26562499,-0.03515625 0.375,0 1.0078125,0 1.3710938,0.03515625 v -0.46875 H 2.1334766 V -2.2162891 c 0,-0.6914062 0.2460937,-1.9101562 1.2421875,-1.9101562 -0.011719,0.011719 -0.1875,0.1757812 -0.1875,0.4570312 0,0.4101563 0.3164062,0.609375 0.609375,0.609375 0.2929687,0 0.609375,-0.2109375 0.609375,-0.609375 0,-0.5273437 -0.5390625,-0.8203125 -1.0546875,-0.8203125 -0.703125,0 -1.1015625,0.5039063 -1.3242188,1.1367188 z m 0,0"
         style="fill:#000000;fill-opacity:1;fill-rule:nonzero;stroke:none" />
      <path
         id="path47"
         d="m 6.9821094,-2.86375 c 0,-0.1054687 -0.082031,-0.2578125 -0.28125,-0.2578125 -0.1875,0 -0.3867188,0.1757813 -0.3867188,0.375 0,0.1171875 0.082031,0.2695313 0.2695313,0.2695313 0.2109375,0 0.3984375,-0.1992188 0.3984375,-0.3867188 z M 5.5524219,0.6753125 c -0.023437,0.09375 -0.058594,0.17578125 -0.058594,0.29296875 0,0.32812505 0.28125,0.59765625 0.6679688,0.59765625 0.6914062,0 0.9960937,-0.9609375 0.9960937,-1.06640625 0,-0.09375 -0.082031,-0.09375 -0.1054687,-0.09375 -0.1054688,0 -0.1054688,0.046875 -0.140625,0.1171875 C 6.7594531,1.0854688 6.4547656,1.3667188 6.1735156,1.3667188 c -0.140625,0 -0.1757812,-0.082031 -0.1757812,-0.2460938 0,-0.15234375 0.058594,-0.29296875 0.1171875,-0.4453125 0.070312,-0.1875 0.140625,-0.375 0.2226562,-0.55078125 0.058594,-0.1640625 0.3164063,-0.80859375 0.3398438,-0.890625 0.023437,-0.0703125 0.046875,-0.15234375 0.046875,-0.22265625 0,-0.328125 -0.28125,-0.5859375 -0.6679688,-0.5859375 -0.6914062,0 -1.0078125,0.94921875 -1.0078125,1.06640625 0,0.0820313 0.09375,0.0820313 0.1171875,0.0820313 0.09375,0 0.1054688,-0.0351563 0.1289063,-0.10546875 0.1757812,-0.5976562 0.4804687,-0.8554687 0.7382812,-0.8554687 0.1171875,0 0.1757813,0.058594 0.1757813,0.2460938 0,0.1640624 -0.035156,0.26953115 -0.2109375,0.7031249 z m 0,0"
         style="fill:#000000;fill-opacity:1;fill-rule:nonzero;stroke:none" />
    </g>
    <g
       id="g47"
       aria-label="r&#10;F&#10;f"
       transform="matrix(1.3333333,0,0,1.3333333,351.86933,59.650667)">
      <path
         id="path48"
         d="m 2.0286641,-3.3503047 v -1.1367187 l -1.66406254,0.082031 v 0.46875 c 0.62109375,0 0.69140624,0 0.69140624,0.3867188 v 3.08203121 H 0.36460156 v 0.46875 c 0.3515625,-0.01171875 0.79687504,-0.03515625 1.26562504,-0.03515625 0.375,0 1.0078125,0 1.3710937,0.03515625 v -0.46875 H 2.1341328 V -2.2135859 c 0,-0.6914063 0.2460938,-1.9101563 1.2421875,-1.9101563 -0.011719,0.011719 -0.1875,0.1757813 -0.1875,0.4570313 0,0.4101562 0.3164063,0.609375 0.609375,0.609375 0.2929688,0 0.609375,-0.2109375 0.609375,-0.609375 0,-0.5273438 -0.5390625,-0.8203125 -1.0546875,-0.8203125 -0.703125,0 -1.1015625,0.5039062 -1.3242187,1.1367187 z m 0,0"
         style="fill:#000000;fill-opacity:1;fill-rule:nonzero;stroke:none" />
      <path
         id="path49"
         d="m 7.0970234,-5.8669062 h 0.75 c 0.5273438,0 0.6210938,0.09375 0.6210938,0.3164062 0,0.1054688 0,0.1171875 -0.046875,0.3164063 -0.011719,0.046875 -0.023437,0.058594 -0.023437,0.082031 0,0.070312 0.046875,0.1054688 0.1171875,0.1054688 0.09375,0 0.1054687,-0.035156 0.140625,-0.1640625 l 0.375,-1.4765625 c 0,-0.023437 0.023437,-0.1289063 0.023437,-0.140625 0,-0.070312 -0.046875,-0.1054688 -0.1171875,-0.1054688 -0.09375,0 -0.1054688,0.046875 -0.140625,0.1757813 C 8.6556172,-6.2184687 8.4563984,-6.113 7.8587422,-6.113 H 7.1673359 l 0.4335938,-1.7460937 c 0.058594,-0.2226563 0.070312,-0.2460938 0.3632812,-0.2460938 h 1.0664063 c 0.9257812,0 1.1015628,0.2226563 1.1015628,0.8085938 0,0.2226562 -0.03516,0.375 -0.03516,0.4335937 0,0.046875 0.02344,0.1171875 0.117188,0.1171875 0.105469,0 0.117187,-0.070312 0.128906,-0.1875 l 0.128906,-1.2070312 c 0.02344,-0.2109375 -0.03516,-0.2109375 -0.199218,-0.2109375 H 6.5462422 c -0.1289063,0 -0.2226563,0 -0.2226563,0.1523437 0,0.09375 0.082031,0.09375 0.2226563,0.09375 0,0 0.140625,0 0.2695312,0.023437 0.140625,0.011719 0.1523438,0.023437 0.1523438,0.09375 0,0.046875 -0.023437,0.1171875 -0.023437,0.1523438 L 6.0306172,-4.191125 C 5.9603047,-3.9215937 5.9485859,-3.863 5.4095234,-3.863 c -0.1171875,0 -0.2109375,0 -0.2109375,0.140625 0,0.070312 0.046875,0.1054688 0.1171875,0.1054688 0.1992188,0 0.7148438,-0.023437 0.9140625,-0.023437 h 0.5390625 c 0.1757813,0 0.375,0.023437 0.5507813,0.023437 0.046875,0 0.1523437,0 0.1523437,-0.1523438 0,-0.09375 -0.082031,-0.09375 -0.2460937,-0.09375 -0.011719,0 -0.1875,0 -0.3632813,-0.023437 -0.140625,-0.011719 -0.2109375,-0.011719 -0.2109375,-0.1171875 0,-0.023437 0,-0.046875 0.023437,-0.1171875 z m 0.4570313,5.93261714 h 0.6796875 c 0.140625,0 0.234375,0 0.234375,-0.15234375 0,-0.09375 -0.09375,-0.09375 -0.2109375,-0.09375 h -0.65625 c 0.1640625,-0.89062499 0.2226562,-1.20703129 0.28125,-1.41796879 0.035156,-0.1523437 0.1875,-0.2929687 0.3515625,-0.2929687 0,0 0.1992187,0 0.328125,0.082031 -0.2929688,0.09375 -0.3046875,0.3398438 -0.3046875,0.3867188 0,0.1523437 0.1171875,0.2578125 0.2695312,0.2578125 0.1992188,0 0.3984375,-0.1640625 0.3984375,-0.4335938 0,-0.3164062 -0.3398437,-0.4921875 -0.6914062,-0.4921875 -0.3046875,0 -0.6445313,0.1757813 -0.84375,0.5273438 -0.1289063,0.2578125 -0.1875,0.57421874 -0.3398438,1.38281249 H 6.4993672 c -0.140625,0 -0.2226563,0 -0.2226563,0.15234375 0,0.09375 0.082031,0.09375 0.2109375,0.09375 h 0.515625 c 0,0.046875 -0.4453125,2.55468746 -0.609375,3.29296876 -0.035156,0.1640625 -0.1523437,0.6914062 -0.4921875,0.6914062 0,0 -0.1757812,0 -0.3046875,-0.082031 0.28125,-0.09375 0.3046875,-0.3515625 0.3046875,-0.3867188 0,-0.1523437 -0.1171875,-0.2578125 -0.28125,-0.2578125 -0.1875,0 -0.3984375,0.1640625 -0.3984375,0.421875 0,0.3164063 0.328125,0.4921875 0.6796875,0.4921875 0.4453125,0 0.75,-0.4570312 0.84375,-0.609375 0.2460938,-0.46875 0.4101563,-1.3242187 0.421875,-1.40625 z m 0,0"
         style="fill:#000000;fill-opacity:1;fill-rule:nonzero;stroke:none" />
    </g>
    <path
       id="path50"
       d="M 2.6954531,17.530438 H 3.3868594 V -0.38753125 H 0.07045313 V 0.303875 H 2.6954531 Z m 0,17.24121 H 0.07045313 v 0.679688 H 3.3868594 V 17.533367 H 2.6954531 Z m 0,0"
       style="fill:#000000;fill-opacity:1;fill-rule:nonzero;stroke:none"
       aria-label="&#10;"
       transform="matrix(1.3333333,0,0,1.3333333,366.992,17.657333)" />
    <g
       id="g52"
       aria-label="M&#10;F&#10;fi"
       transform="matrix(1.3333333,0,0,1.3333333,158.70933,26.930667)"
       style="fill:#ffffff;fill-opacity:1;stroke:none;stroke-opacity:1">
      <path
         id="path51"
         d="M 5.4387031,-1.3132344 3.0480781,-6.5866719 C 2.9426094,-6.8327656 2.8254219,-6.8327656 2.6144844,-6.8327656 H 0.39964062 v 0.46875 H 1.4777656 v 5.60156247 c 0,0.22265625 -0.011719,0.234375 -0.2929687,0.2578125 -0.23437503,0.0351563 -0.25781253,0.0351563 -0.53906253,0.0351563 H 0.39964062 v 0.468750005 c 0.375,-0.035156255 0.94921878,-0.035156255 1.33593748,-0.035156255 0.421875,0 0.9375,0 1.3476563,0.035156255 V -0.46948438 H 2.8254219 c -0.1757813,0 -0.3398438,-0.0117188 -0.5273438,-0.0351563 -0.28125,-0.0234375 -0.2929687,-0.0351563 -0.2929687,-0.2578125 V -6.2351094 h 0.011719 l 2.7070313,5.98828127 c 0.09375,0.19921875 0.2109375,0.246093755 0.3164062,0.246093755 0.1992188,0 0.28125,-0.152343755 0.3164063,-0.234375005 L 8.1340156,-6.3640156 h 0.011719 v 5.89453122 H 7.0793281 v 0.468750005 c 0.3515625,-0.035156255 1.2773438,-0.035156255 1.6875,-0.035156255 0.4101563,0 1.3476559,0 1.6992189,0.035156255 V -0.46948438 H 9.3996406 V -6.3640156 h 1.0664064 v -0.46875 H 8.2746406 c -0.2226562,0 -0.3398437,0 -0.4453125,0.2460937 z m 0,0"
         style="fill:#ffffff;fill-opacity:1;fill-rule:nonzero;stroke:none;stroke-opacity:1" />
      <path
         id="path52"
         d="m 13.255109,-6.6218281 h 0.75 c 0.527344,0 0.621094,0.09375 0.621094,0.3164062 0,0.1054688 0,0.1171875 -0.04687,0.3164063 -0.01172,0.046875 -0.02344,0.058594 -0.02344,0.082031 0,0.070312 0.04687,0.1054688 0.117187,0.1054688 0.09375,0 0.105469,-0.035156 0.140625,-0.1640625 l 0.375,-1.4765625 c 0,-0.023437 0.02344,-0.1289063 0.02344,-0.140625 0,-0.070312 -0.04687,-0.1054688 -0.117188,-0.1054688 -0.09375,0 -0.105469,0.046875 -0.140625,0.1757813 -0.140625,0.5390625 -0.339844,0.6445312 -0.9375,0.6445312 h -0.691406 l 0.433594,-1.7460937 c 0.05859,-0.2226563 0.07031,-0.2460938 0.363281,-0.2460938 h 1.066406 c 0.925781,0 1.101563,0.2226563 1.101563,0.8085938 0,0.2226562 -0.03516,0.375 -0.03516,0.4335937 0,0.046875 0.02344,0.1171875 0.117188,0.1171875 0.105469,0 0.117187,-0.070312 0.128906,-0.1875 l 0.128906,-1.2070312 c 0.02344,-0.2109375 -0.03516,-0.2109375 -0.199218,-0.2109375 h -3.726563 c -0.128906,0 -0.222656,0 -0.222656,0.1523437 0,0.09375 0.08203,0.09375 0.222656,0.09375 0,0 0.140625,0 0.269531,0.023437 0.140625,0.011719 0.152344,0.023437 0.152344,0.09375 0,0.046875 -0.02344,0.1171875 -0.02344,0.1523438 l -0.914063,3.6445312 c -0.07031,0.2695313 -0.08203,0.328125 -0.621094,0.328125 -0.117187,0 -0.210937,0 -0.210937,0.140625 0,0.070312 0.04687,0.1054688 0.117187,0.1054688 0.199219,0 0.714844,-0.023437 0.914063,-0.023437 h 0.539062 c 0.175782,0 0.375,0.023437 0.550782,0.023437 0.04687,0 0.152343,0 0.152343,-0.1523438 0,-0.09375 -0.08203,-0.09375 -0.246093,-0.09375 -0.01172,0 -0.1875,0 -0.363282,-0.023437 -0.140625,-0.011719 -0.210937,-0.011719 -0.210937,-0.1171875 0,-0.023437 0,-0.046875 0.02344,-0.1171875 z m 0.457032,6.33105466 h 0.679687 c 0.140625,0 0.234375,0 0.234375,-0.15234375 0,-0.09375 -0.09375,-0.09375 -0.210937,-0.09375 h -0.65625 c 0.164062,-0.89062501 0.222656,-1.20703121 0.28125,-1.41796871 0.03516,-0.1523438 0.1875,-0.2929688 0.351562,-0.2929688 0,0 0.199219,0 0.328125,0.082031 -0.292969,0.09375 -0.304687,0.3398437 -0.304687,0.3867187 0,0.1523438 0.117187,0.2578125 0.269531,0.2578125 0.199219,0 0.398437,-0.1640625 0.398437,-0.4335937 0,-0.3164063 -0.339843,-0.4921875 -0.691406,-0.4921875 -0.304687,0 -0.644531,0.1757812 -0.84375,0.5273437 -0.128906,0.2578125 -0.1875,0.5742188 -0.339844,1.38281251 h -0.550781 c -0.140625,0 -0.222656,0 -0.222656,0.15234375 0,0.09375 0.08203,0.09375 0.210937,0.09375 h 0.515625 c 0,0.046875 -0.445312,2.55468754 -0.609375,3.29296874 -0.03516,0.1640625 -0.152343,0.6914063 -0.492187,0.6914063 0,0 -0.175781,0 -0.304688,-0.082031 0.28125,-0.09375 0.304688,-0.3515625 0.304688,-0.3867187 0,-0.1523438 -0.117188,-0.2578125 -0.28125,-0.2578125 -0.1875,0 -0.398438,0.1640625 -0.398438,0.421875 0,0.3164062 0.328125,0.4921875 0.679688,0.4921875 0.445312,0 0.75,-0.4570313 0.84375,-0.609375 0.246094,-0.46875 0.410156,-1.3242188 0.421875,-1.40625 z m 4.092773,-1.60546876 c 0,-0.1054687 -0.08203,-0.2578125 -0.28125,-0.2578125 -0.1875,0 -0.386719,0.1757813 -0.386719,0.375 0,0.1171875 0.08203,0.2695313 0.269532,0.2695313 0.210937,0 0.398437,-0.1992188 0.398437,-0.3867188 z m -1.429687,3.5390625 c -0.02344,0.09375 -0.05859,0.1757813 -0.05859,0.2929688 0,0.328125 0.28125,0.5976562 0.667969,0.5976562 0.691406,0 0.996093,-0.9609375 0.996093,-1.0664062 0,-0.09375 -0.08203,-0.09375 -0.105468,-0.09375 -0.105469,0 -0.105469,0.046875 -0.140625,0.1171875 -0.152344,0.5625 -0.457032,0.84375 -0.738282,0.84375 -0.140625,0 -0.175781,-0.082031 -0.175781,-0.2460938 0,-0.1523437 0.05859,-0.2929687 0.117188,-0.4453125 0.07031,-0.1875 0.140625,-0.375 0.222656,-0.5507812 0.05859,-0.16406254 0.316406,-0.80859379 0.339844,-0.89062504 0.02344,-0.0703125 0.04687,-0.15234375 0.04687,-0.22265625 0,-0.328125 -0.28125,-0.5859375 -0.667969,-0.5859375 -0.691406,0 -1.007813,0.94921875 -1.007813,1.06640625 0,0.0820312 0.09375,0.0820312 0.117188,0.0820312 0.09375,0 0.105469,-0.0351563 0.128906,-0.10546875 0.175781,-0.59765625 0.480469,-0.85546875 0.738281,-0.85546875 0.117188,0 0.175782,0.0585938 0.175782,0.24609375 0,0.1640625 -0.03516,0.26953125 -0.210938,0.703125 z m 0,0"
         style="fill:#ffffff;fill-opacity:1;fill-rule:nonzero;stroke:none;stroke-opacity:1" />
    </g>
  </g>
</svg>
