<?xml version="1.0" encoding="utf-8" standalone="no"?>
<!DOCTYPE svg PUBLIC "-//W3C//DTD SVG 1.1//EN"
  "http://www.w3.org/Graphics/SVG/1.1/DTD/svg11.dtd">
<svg xmlns:xlink="http://www.w3.org/1999/xlink" width="460.8pt" height="345.6pt" viewBox="0 0 460.8 345.6" xmlns="http://www.w3.org/2000/svg" version="1.1">
 <metadata>
  <rdf:RDF xmlns:dc="http://purl.org/dc/elements/1.1/" xmlns:cc="http://creativecommons.org/ns#" xmlns:rdf="http://www.w3.org/1999/02/22-rdf-syntax-ns#">
   <cc:Work>
    <dc:type rdf:resource="http://purl.org/dc/dcmitype/StillImage"/>
    <dc:date>2023-09-09T16:22:15.880488</dc:date>
    <dc:format>image/svg+xml</dc:format>
    <dc:creator>
     <cc:Agent>
      <dc:title>Matplotlib v3.7.1, https://matplotlib.org/</dc:title>
     </cc:Agent>
    </dc:creator>
   </cc:Work>
  </rdf:RDF>
 </metadata>
 <defs>
  <style type="text/css">*{stroke-linejoin: round; stroke-linecap: butt}</style>
 </defs>
 <g id="figure_1">
  <g id="patch_1">
   <path d="M 0 345.6 
L 460.8 345.6 
L 460.8 0 
L 0 0 
z
" style="fill: #ffffff"/>
  </g>
  <g id="axes_1">
   <g id="patch_2">
    <path d="M 81.38 285.64 
L 450 285.64 
L 450 10.8 
L 81.38 10.8 
z
" style="fill: #ffffff"/>
   </g>
   <g id="matplotlib.axis_1">
    <g id="xtick_1">
     <g id="line2d_1">
      <defs>
       <path id="m5e97d27cf0" d="M 0 0 
L 0 3.5 
" style="stroke: #000000; stroke-width: 0.8"/>
      </defs>
      <g>
       <use xlink:href="#m5e97d27cf0" x="98.135455" y="285.64" style="stroke: #000000; stroke-width: 0.8"/>
      </g>
     </g>
     <g id="text_1">
      <!-- 0.0 -->
      <g transform="translate(85.412955 304.7975) scale(0.16 -0.16)">
       <defs>
        <path id="DejaVuSans-30" d="M 2034 4250 
Q 1547 4250 1301 3770 
Q 1056 3291 1056 2328 
Q 1056 1369 1301 889 
Q 1547 409 2034 409 
Q 2525 409 2770 889 
Q 3016 1369 3016 2328 
Q 3016 3291 2770 3770 
Q 2525 4250 2034 4250 
z
M 2034 4750 
Q 2819 4750 3233 4129 
Q 3647 3509 3647 2328 
Q 3647 1150 3233 529 
Q 2819 -91 2034 -91 
Q 1250 -91 836 529 
Q 422 1150 422 2328 
Q 422 3509 836 4129 
Q 1250 4750 2034 4750 
z
" transform="scale(0.015625)"/>
        <path id="DejaVuSans-2e" d="M 684 794 
L 1344 794 
L 1344 0 
L 684 0 
L 684 794 
z
" transform="scale(0.015625)"/>
       </defs>
       <use xlink:href="#DejaVuSans-30"/>
       <use xlink:href="#DejaVuSans-2e" x="63.623047"/>
       <use xlink:href="#DejaVuSans-30" x="95.410156"/>
      </g>
     </g>
    </g>
    <g id="xtick_2">
     <g id="line2d_2">
      <g>
       <use xlink:href="#m5e97d27cf0" x="165.157273" y="285.64" style="stroke: #000000; stroke-width: 0.8"/>
      </g>
     </g>
     <g id="text_2">
      <!-- 0.2 -->
      <g transform="translate(152.434773 304.7975) scale(0.16 -0.16)">
       <defs>
        <path id="DejaVuSans-32" d="M 1228 531 
L 3431 531 
L 3431 0 
L 469 0 
L 469 531 
Q 828 903 1448 1529 
Q 2069 2156 2228 2338 
Q 2531 2678 2651 2914 
Q 2772 3150 2772 3378 
Q 2772 3750 2511 3984 
Q 2250 4219 1831 4219 
Q 1534 4219 1204 4116 
Q 875 4013 500 3803 
L 500 4441 
Q 881 4594 1212 4672 
Q 1544 4750 1819 4750 
Q 2544 4750 2975 4387 
Q 3406 4025 3406 3419 
Q 3406 3131 3298 2873 
Q 3191 2616 2906 2266 
Q 2828 2175 2409 1742 
Q 1991 1309 1228 531 
z
" transform="scale(0.015625)"/>
       </defs>
       <use xlink:href="#DejaVuSans-30"/>
       <use xlink:href="#DejaVuSans-2e" x="63.623047"/>
       <use xlink:href="#DejaVuSans-32" x="95.410156"/>
      </g>
     </g>
    </g>
    <g id="xtick_3">
     <g id="line2d_3">
      <g>
       <use xlink:href="#m5e97d27cf0" x="232.179091" y="285.64" style="stroke: #000000; stroke-width: 0.8"/>
      </g>
     </g>
     <g id="text_3">
      <!-- 0.4 -->
      <g transform="translate(219.456591 304.7975) scale(0.16 -0.16)">
       <defs>
        <path id="DejaVuSans-34" d="M 2419 4116 
L 825 1625 
L 2419 1625 
L 2419 4116 
z
M 2253 4666 
L 3047 4666 
L 3047 1625 
L 3713 1625 
L 3713 1100 
L 3047 1100 
L 3047 0 
L 2419 0 
L 2419 1100 
L 313 1100 
L 313 1709 
L 2253 4666 
z
" transform="scale(0.015625)"/>
       </defs>
       <use xlink:href="#DejaVuSans-30"/>
       <use xlink:href="#DejaVuSans-2e" x="63.623047"/>
       <use xlink:href="#DejaVuSans-34" x="95.410156"/>
      </g>
     </g>
    </g>
    <g id="xtick_4">
     <g id="line2d_4">
      <g>
       <use xlink:href="#m5e97d27cf0" x="299.200909" y="285.64" style="stroke: #000000; stroke-width: 0.8"/>
      </g>
     </g>
     <g id="text_4">
      <!-- 0.6 -->
      <g transform="translate(286.478409 304.7975) scale(0.16 -0.16)">
       <defs>
        <path id="DejaVuSans-36" d="M 2113 2584 
Q 1688 2584 1439 2293 
Q 1191 2003 1191 1497 
Q 1191 994 1439 701 
Q 1688 409 2113 409 
Q 2538 409 2786 701 
Q 3034 994 3034 1497 
Q 3034 2003 2786 2293 
Q 2538 2584 2113 2584 
z
M 3366 4563 
L 3366 3988 
Q 3128 4100 2886 4159 
Q 2644 4219 2406 4219 
Q 1781 4219 1451 3797 
Q 1122 3375 1075 2522 
Q 1259 2794 1537 2939 
Q 1816 3084 2150 3084 
Q 2853 3084 3261 2657 
Q 3669 2231 3669 1497 
Q 3669 778 3244 343 
Q 2819 -91 2113 -91 
Q 1303 -91 875 529 
Q 447 1150 447 2328 
Q 447 3434 972 4092 
Q 1497 4750 2381 4750 
Q 2619 4750 2861 4703 
Q 3103 4656 3366 4563 
z
" transform="scale(0.015625)"/>
       </defs>
       <use xlink:href="#DejaVuSans-30"/>
       <use xlink:href="#DejaVuSans-2e" x="63.623047"/>
       <use xlink:href="#DejaVuSans-36" x="95.410156"/>
      </g>
     </g>
    </g>
    <g id="xtick_5">
     <g id="line2d_5">
      <g>
       <use xlink:href="#m5e97d27cf0" x="366.222727" y="285.64" style="stroke: #000000; stroke-width: 0.8"/>
      </g>
     </g>
     <g id="text_5">
      <!-- 0.8 -->
      <g transform="translate(353.500227 304.7975) scale(0.16 -0.16)">
       <defs>
        <path id="DejaVuSans-38" d="M 2034 2216 
Q 1584 2216 1326 1975 
Q 1069 1734 1069 1313 
Q 1069 891 1326 650 
Q 1584 409 2034 409 
Q 2484 409 2743 651 
Q 3003 894 3003 1313 
Q 3003 1734 2745 1975 
Q 2488 2216 2034 2216 
z
M 1403 2484 
Q 997 2584 770 2862 
Q 544 3141 544 3541 
Q 544 4100 942 4425 
Q 1341 4750 2034 4750 
Q 2731 4750 3128 4425 
Q 3525 4100 3525 3541 
Q 3525 3141 3298 2862 
Q 3072 2584 2669 2484 
Q 3125 2378 3379 2068 
Q 3634 1759 3634 1313 
Q 3634 634 3220 271 
Q 2806 -91 2034 -91 
Q 1263 -91 848 271 
Q 434 634 434 1313 
Q 434 1759 690 2068 
Q 947 2378 1403 2484 
z
M 1172 3481 
Q 1172 3119 1398 2916 
Q 1625 2713 2034 2713 
Q 2441 2713 2670 2916 
Q 2900 3119 2900 3481 
Q 2900 3844 2670 4047 
Q 2441 4250 2034 4250 
Q 1625 4250 1398 4047 
Q 1172 3844 1172 3481 
z
" transform="scale(0.015625)"/>
       </defs>
       <use xlink:href="#DejaVuSans-30"/>
       <use xlink:href="#DejaVuSans-2e" x="63.623047"/>
       <use xlink:href="#DejaVuSans-38" x="95.410156"/>
      </g>
     </g>
    </g>
    <g id="xtick_6">
     <g id="line2d_6">
      <g>
       <use xlink:href="#m5e97d27cf0" x="433.244545" y="285.64" style="stroke: #000000; stroke-width: 0.8"/>
      </g>
     </g>
     <g id="text_6">
      <!-- 1.0 -->
      <g transform="translate(420.522045 304.7975) scale(0.16 -0.16)">
       <defs>
        <path id="DejaVuSans-31" d="M 794 531 
L 1825 531 
L 1825 4091 
L 703 3866 
L 703 4441 
L 1819 4666 
L 2450 4666 
L 2450 531 
L 3481 531 
L 3481 0 
L 794 0 
L 794 531 
z
" transform="scale(0.015625)"/>
       </defs>
       <use xlink:href="#DejaVuSans-31"/>
       <use xlink:href="#DejaVuSans-2e" x="63.623047"/>
       <use xlink:href="#DejaVuSans-30" x="95.410156"/>
      </g>
     </g>
    </g>
    <g id="text_7">
     <!-- time -->
     <g transform="translate(238.579375 330.36125) scale(0.24 -0.24)">
      <defs>
       <path id="DejaVuSans-74" d="M 1172 4494 
L 1172 3500 
L 2356 3500 
L 2356 3053 
L 1172 3053 
L 1172 1153 
Q 1172 725 1289 603 
Q 1406 481 1766 481 
L 2356 481 
L 2356 0 
L 1766 0 
Q 1100 0 847 248 
Q 594 497 594 1153 
L 594 3053 
L 172 3053 
L 172 3500 
L 594 3500 
L 594 4494 
L 1172 4494 
z
" transform="scale(0.015625)"/>
       <path id="DejaVuSans-69" d="M 603 3500 
L 1178 3500 
L 1178 0 
L 603 0 
L 603 3500 
z
M 603 4863 
L 1178 4863 
L 1178 4134 
L 603 4134 
L 603 4863 
z
" transform="scale(0.015625)"/>
       <path id="DejaVuSans-6d" d="M 3328 2828 
Q 3544 3216 3844 3400 
Q 4144 3584 4550 3584 
Q 5097 3584 5394 3201 
Q 5691 2819 5691 2113 
L 5691 0 
L 5113 0 
L 5113 2094 
Q 5113 2597 4934 2840 
Q 4756 3084 4391 3084 
Q 3944 3084 3684 2787 
Q 3425 2491 3425 1978 
L 3425 0 
L 2847 0 
L 2847 2094 
Q 2847 2600 2669 2842 
Q 2491 3084 2119 3084 
Q 1678 3084 1418 2786 
Q 1159 2488 1159 1978 
L 1159 0 
L 581 0 
L 581 3500 
L 1159 3500 
L 1159 2956 
Q 1356 3278 1631 3431 
Q 1906 3584 2284 3584 
Q 2666 3584 2933 3390 
Q 3200 3197 3328 2828 
z
" transform="scale(0.015625)"/>
       <path id="DejaVuSans-65" d="M 3597 1894 
L 3597 1613 
L 953 1613 
Q 991 1019 1311 708 
Q 1631 397 2203 397 
Q 2534 397 2845 478 
Q 3156 559 3463 722 
L 3463 178 
Q 3153 47 2828 -22 
Q 2503 -91 2169 -91 
Q 1331 -91 842 396 
Q 353 884 353 1716 
Q 353 2575 817 3079 
Q 1281 3584 2069 3584 
Q 2775 3584 3186 3129 
Q 3597 2675 3597 1894 
z
M 3022 2063 
Q 3016 2534 2758 2815 
Q 2500 3097 2075 3097 
Q 1594 3097 1305 2825 
Q 1016 2553 972 2059 
L 3022 2063 
z
" transform="scale(0.015625)"/>
      </defs>
      <use xlink:href="#DejaVuSans-74"/>
      <use xlink:href="#DejaVuSans-69" x="39.208984"/>
      <use xlink:href="#DejaVuSans-6d" x="66.992188"/>
      <use xlink:href="#DejaVuSans-65" x="164.404297"/>
     </g>
    </g>
   </g>
   <g id="matplotlib.axis_2">
    <g id="ytick_1">
     <g id="line2d_7">
      <defs>
       <path id="mf3d2d47dce" d="M 0 0 
L -3.5 0 
" style="stroke: #000000; stroke-width: 0.8"/>
      </defs>
      <g>
       <use xlink:href="#mf3d2d47dce" x="81.38" y="273.147273" style="stroke: #000000; stroke-width: 0.8"/>
      </g>
     </g>
     <g id="text_8">
      <!-- 0.00 -->
      <g transform="translate(38.755 279.226023) scale(0.16 -0.16)">
       <use xlink:href="#DejaVuSans-30"/>
       <use xlink:href="#DejaVuSans-2e" x="63.623047"/>
       <use xlink:href="#DejaVuSans-30" x="95.410156"/>
       <use xlink:href="#DejaVuSans-30" x="159.033203"/>
      </g>
     </g>
    </g>
    <g id="ytick_2">
     <g id="line2d_8">
      <g>
       <use xlink:href="#mf3d2d47dce" x="81.38" y="212.187604" style="stroke: #000000; stroke-width: 0.8"/>
      </g>
     </g>
     <g id="text_9">
      <!-- 0.02 -->
      <g transform="translate(38.755 218.266354) scale(0.16 -0.16)">
       <use xlink:href="#DejaVuSans-30"/>
       <use xlink:href="#DejaVuSans-2e" x="63.623047"/>
       <use xlink:href="#DejaVuSans-30" x="95.410156"/>
       <use xlink:href="#DejaVuSans-32" x="159.033203"/>
      </g>
     </g>
    </g>
    <g id="ytick_3">
     <g id="line2d_9">
      <g>
       <use xlink:href="#mf3d2d47dce" x="81.38" y="151.227935" style="stroke: #000000; stroke-width: 0.8"/>
      </g>
     </g>
     <g id="text_10">
      <!-- 0.04 -->
      <g transform="translate(38.755 157.306685) scale(0.16 -0.16)">
       <use xlink:href="#DejaVuSans-30"/>
       <use xlink:href="#DejaVuSans-2e" x="63.623047"/>
       <use xlink:href="#DejaVuSans-30" x="95.410156"/>
       <use xlink:href="#DejaVuSans-34" x="159.033203"/>
      </g>
     </g>
    </g>
    <g id="ytick_4">
     <g id="line2d_10">
      <g>
       <use xlink:href="#mf3d2d47dce" x="81.38" y="90.268266" style="stroke: #000000; stroke-width: 0.8"/>
      </g>
     </g>
     <g id="text_11">
      <!-- 0.06 -->
      <g transform="translate(38.755 96.347016) scale(0.16 -0.16)">
       <use xlink:href="#DejaVuSans-30"/>
       <use xlink:href="#DejaVuSans-2e" x="63.623047"/>
       <use xlink:href="#DejaVuSans-30" x="95.410156"/>
       <use xlink:href="#DejaVuSans-36" x="159.033203"/>
      </g>
     </g>
    </g>
    <g id="ytick_5">
     <g id="line2d_11">
      <g>
       <use xlink:href="#mf3d2d47dce" x="81.38" y="29.308597" style="stroke: #000000; stroke-width: 0.8"/>
      </g>
     </g>
     <g id="text_12">
      <!-- 0.08 -->
      <g transform="translate(38.755 35.387347) scale(0.16 -0.16)">
       <use xlink:href="#DejaVuSans-30"/>
       <use xlink:href="#DejaVuSans-2e" x="63.623047"/>
       <use xlink:href="#DejaVuSans-30" x="95.410156"/>
       <use xlink:href="#DejaVuSans-38" x="159.033203"/>
      </g>
     </g>
    </g>
    <g id="text_13">
     <!-- tip displacement -->
     <g transform="translate(29.76375 248.5625) rotate(-90) scale(0.24 -0.24)">
      <defs>
       <path id="DejaVuSans-70" d="M 1159 525 
L 1159 -1331 
L 581 -1331 
L 581 3500 
L 1159 3500 
L 1159 2969 
Q 1341 3281 1617 3432 
Q 1894 3584 2278 3584 
Q 2916 3584 3314 3078 
Q 3713 2572 3713 1747 
Q 3713 922 3314 415 
Q 2916 -91 2278 -91 
Q 1894 -91 1617 61 
Q 1341 213 1159 525 
z
M 3116 1747 
Q 3116 2381 2855 2742 
Q 2594 3103 2138 3103 
Q 1681 3103 1420 2742 
Q 1159 2381 1159 1747 
Q 1159 1113 1420 752 
Q 1681 391 2138 391 
Q 2594 391 2855 752 
Q 3116 1113 3116 1747 
z
" transform="scale(0.015625)"/>
       <path id="DejaVuSans-20" transform="scale(0.015625)"/>
       <path id="DejaVuSans-64" d="M 2906 2969 
L 2906 4863 
L 3481 4863 
L 3481 0 
L 2906 0 
L 2906 525 
Q 2725 213 2448 61 
Q 2172 -91 1784 -91 
Q 1150 -91 751 415 
Q 353 922 353 1747 
Q 353 2572 751 3078 
Q 1150 3584 1784 3584 
Q 2172 3584 2448 3432 
Q 2725 3281 2906 2969 
z
M 947 1747 
Q 947 1113 1208 752 
Q 1469 391 1925 391 
Q 2381 391 2643 752 
Q 2906 1113 2906 1747 
Q 2906 2381 2643 2742 
Q 2381 3103 1925 3103 
Q 1469 3103 1208 2742 
Q 947 2381 947 1747 
z
" transform="scale(0.015625)"/>
       <path id="DejaVuSans-73" d="M 2834 3397 
L 2834 2853 
Q 2591 2978 2328 3040 
Q 2066 3103 1784 3103 
Q 1356 3103 1142 2972 
Q 928 2841 928 2578 
Q 928 2378 1081 2264 
Q 1234 2150 1697 2047 
L 1894 2003 
Q 2506 1872 2764 1633 
Q 3022 1394 3022 966 
Q 3022 478 2636 193 
Q 2250 -91 1575 -91 
Q 1294 -91 989 -36 
Q 684 19 347 128 
L 347 722 
Q 666 556 975 473 
Q 1284 391 1588 391 
Q 1994 391 2212 530 
Q 2431 669 2431 922 
Q 2431 1156 2273 1281 
Q 2116 1406 1581 1522 
L 1381 1569 
Q 847 1681 609 1914 
Q 372 2147 372 2553 
Q 372 3047 722 3315 
Q 1072 3584 1716 3584 
Q 2034 3584 2315 3537 
Q 2597 3491 2834 3397 
z
" transform="scale(0.015625)"/>
       <path id="DejaVuSans-6c" d="M 603 4863 
L 1178 4863 
L 1178 0 
L 603 0 
L 603 4863 
z
" transform="scale(0.015625)"/>
       <path id="DejaVuSans-61" d="M 2194 1759 
Q 1497 1759 1228 1600 
Q 959 1441 959 1056 
Q 959 750 1161 570 
Q 1363 391 1709 391 
Q 2188 391 2477 730 
Q 2766 1069 2766 1631 
L 2766 1759 
L 2194 1759 
z
M 3341 1997 
L 3341 0 
L 2766 0 
L 2766 531 
Q 2569 213 2275 61 
Q 1981 -91 1556 -91 
Q 1019 -91 701 211 
Q 384 513 384 1019 
Q 384 1609 779 1909 
Q 1175 2209 1959 2209 
L 2766 2209 
L 2766 2266 
Q 2766 2663 2505 2880 
Q 2244 3097 1772 3097 
Q 1472 3097 1187 3025 
Q 903 2953 641 2809 
L 641 3341 
Q 956 3463 1253 3523 
Q 1550 3584 1831 3584 
Q 2591 3584 2966 3190 
Q 3341 2797 3341 1997 
z
" transform="scale(0.015625)"/>
       <path id="DejaVuSans-63" d="M 3122 3366 
L 3122 2828 
Q 2878 2963 2633 3030 
Q 2388 3097 2138 3097 
Q 1578 3097 1268 2742 
Q 959 2388 959 1747 
Q 959 1106 1268 751 
Q 1578 397 2138 397 
Q 2388 397 2633 464 
Q 2878 531 3122 666 
L 3122 134 
Q 2881 22 2623 -34 
Q 2366 -91 2075 -91 
Q 1284 -91 818 406 
Q 353 903 353 1747 
Q 353 2603 823 3093 
Q 1294 3584 2113 3584 
Q 2378 3584 2631 3529 
Q 2884 3475 3122 3366 
z
" transform="scale(0.015625)"/>
       <path id="DejaVuSans-6e" d="M 3513 2113 
L 3513 0 
L 2938 0 
L 2938 2094 
Q 2938 2591 2744 2837 
Q 2550 3084 2163 3084 
Q 1697 3084 1428 2787 
Q 1159 2491 1159 1978 
L 1159 0 
L 581 0 
L 581 3500 
L 1159 3500 
L 1159 2956 
Q 1366 3272 1645 3428 
Q 1925 3584 2291 3584 
Q 2894 3584 3203 3211 
Q 3513 2838 3513 2113 
z
" transform="scale(0.015625)"/>
      </defs>
      <use xlink:href="#DejaVuSans-74"/>
      <use xlink:href="#DejaVuSans-69" x="39.208984"/>
      <use xlink:href="#DejaVuSans-70" x="66.992188"/>
      <use xlink:href="#DejaVuSans-20" x="130.46875"/>
      <use xlink:href="#DejaVuSans-64" x="162.255859"/>
      <use xlink:href="#DejaVuSans-69" x="225.732422"/>
      <use xlink:href="#DejaVuSans-73" x="253.515625"/>
      <use xlink:href="#DejaVuSans-70" x="305.615234"/>
      <use xlink:href="#DejaVuSans-6c" x="369.091797"/>
      <use xlink:href="#DejaVuSans-61" x="396.875"/>
      <use xlink:href="#DejaVuSans-63" x="458.154297"/>
      <use xlink:href="#DejaVuSans-65" x="513.134766"/>
      <use xlink:href="#DejaVuSans-6d" x="574.658203"/>
      <use xlink:href="#DejaVuSans-65" x="672.070312"/>
      <use xlink:href="#DejaVuSans-6e" x="733.59375"/>
      <use xlink:href="#DejaVuSans-74" x="796.972656"/>
     </g>
    </g>
   </g>
   <g id="line2d_12">
    <path d="M 98.135455 273.147273 
L 103.4972 273.077703 
L 106.178073 272.874435 
L 108.858945 272.389975 
L 110.199382 271.996666 
L 111.539818 271.483025 
L 112.880255 270.835657 
L 114.220691 270.046231 
L 115.561127 269.111517 
L 116.901564 268.027339 
L 118.242 266.790686 
L 120.922873 263.848621 
L 123.603745 260.251492 
L 126.284618 255.940282 
L 128.965491 250.856397 
L 131.646364 244.970465 
L 134.327236 238.286809 
L 137.008109 230.845048 
L 139.688982 222.690614 
L 142.369855 213.870469 
L 145.050727 204.426527 
L 149.072036 189.213167 
L 153.093345 172.996673 
L 159.795527 144.801929 
L 166.497709 116.776216 
L 170.519018 100.801908 
L 174.540327 85.943351 
L 177.2212 76.825948 
L 179.902073 68.427395 
L 182.582945 60.794742 
L 185.263818 53.955535 
L 187.944691 47.919867 
L 190.625564 42.68051 
L 193.306436 38.214267 
L 195.987309 34.4784 
L 198.668182 31.414392 
L 201.349055 28.951558 
L 204.029927 27.024712 
L 206.7108 25.565851 
L 209.391673 24.514238 
L 212.072545 23.81504 
L 214.753418 23.4205 
L 217.434291 23.292727 
L 220.115164 23.402709 
L 222.796036 23.734963 
L 225.476909 24.280408 
L 228.157782 25.043336 
L 230.838655 26.02997 
L 233.519527 27.25167 
L 236.2004 28.705788 
L 240.221709 31.241459 
L 256.306945 41.959897 
L 263.009127 46.119131 
L 268.370873 49.143489 
L 275.073055 52.650935 
L 281.775236 55.938713 
L 289.817855 59.60932 
L 303.222218 65.46072 
L 317.967018 71.600194 
L 327.350073 75.230072 
L 334.052255 77.616824 
L 340.754436 79.767874 
L 347.456618 81.654185 
L 352.818364 82.958456 
L 358.180109 84.078485 
L 364.882291 85.226286 
L 371.584473 86.113294 
L 378.286655 86.771059 
L 386.329273 87.307456 
L 395.712327 87.672354 
L 407.776255 87.878908 
L 429.223236 87.947065 
L 433.244545 87.949658 
L 433.244545 87.949658 
" clip-path="url(#p9da7139fee)" style="fill: none; stroke: #1f77b4; stroke-width: 1.5; stroke-linecap: square"/>
   </g>
   <g id="line2d_13">
    <path d="M 98.135455 273.147273 
L 100.087122 273.036338 
L 100.809614 272.755432 
L 101.44766 272.264294 
L 102.123237 271.444786 
L 102.888623 270.150045 
L 103.733094 268.263039 
L 104.586949 265.797713 
L 105.494421 262.456543 
L 106.553361 257.641324 
L 107.892452 250.462178 
L 109.396415 241.167124 
L 115.176354 203.936182 
L 116.388103 198.191483 
L 117.515406 193.880798 
L 118.459069 191.082415 
L 119.259307 189.354152 
L 119.999225 188.261319 
L 120.7311 187.559409 
L 121.500507 187.12499 
L 122.25383 186.945137 
L 123.080875 186.985503 
L 125.322076 187.244156 
L 126.007036 186.98805 
L 126.724167 186.476901 
L 127.431915 185.6922 
L 128.141003 184.563793 
L 128.860814 182.976267 
L 129.671775 180.614429 
L 130.638225 177.062355 
L 131.77223 172.018549 
L 132.996044 165.528375 
L 134.628689 155.507398 
L 138.875174 129.061444 
L 140.009179 123.650395 
L 140.97697 120.041001 
L 141.778548 117.837707 
L 142.420614 116.664655 
L 142.954106 116.109761 
L 143.409852 115.932882 
L 143.849513 116.000962 
L 144.342792 116.315549 
L 144.941965 116.982719 
L 145.724776 118.219541 
L 146.802483 120.381073 
L 148.530298 123.822399 
L 149.276919 124.801647 
L 149.890836 125.267689 
L 150.441753 125.419355 
L 150.96184 125.3352 
L 151.480587 125.018102 
L 152.046249 124.396351 
L 152.677592 123.350818 
L 153.44834 121.604156 
L 154.491195 118.637493 
L 156.129202 113.237686 
L 159.328811 102.516746 
L 160.587475 99.309083 
L 161.744267 96.933309 
L 162.675867 95.497153 
L 163.596743 94.477941 
L 165.07926 93.233428 
L 169.008063 89.980507 
L 170.541516 88.067409 
L 172.82561 84.939652 
L 175.812091 80.621622 
L 180.405748 74.692172 
L 187.556947 65.991221 
L 189.299507 63.920134 
L 191.025983 61.919502 
L 193.275226 59.443318 
L 194.891786 57.671249 
L 197.326008 55.192593 
L 198.76161 53.739986 
L 201.53094 51.191902 
L 202.733307 50.137232 
L 205.391382 48.048408 
L 206.556216 47.149369 
L 211.231639 44.427763 
L 212.513092 43.916173 
L 214.598802 42.908593 
L 217.239451 42.29315 
L 218.183115 42.019635 
L 218.94716 42.047632 
L 220.451124 42.158387 
L 222.473834 42.003242 
L 223.398732 42.378152 
L 224.324969 42.66362 
L 225.354421 42.693856 
L 226.097019 42.830666 
L 226.769916 43.199147 
L 228.49371 44.261669 
L 230.283185 44.939478 
L 231.048571 45.680239 
L 232.233512 46.801623 
L 233.055197 47.226115 
L 234.001541 47.756062 
L 234.840651 48.537016 
L 235.807101 49.369853 
L 236.386168 49.570818 
L 237.150213 49.566148 
L 237.880748 49.639866 
L 238.473219 49.944186 
L 240.108545 50.933097 
L 240.701015 50.902166 
L 241.828318 50.799453 
L 242.353766 51.034541 
L 243.304132 51.781243 
L 243.931454 52.104476 
L 244.450201 52.120252 
L 246.043973 51.969465 
L 246.584167 52.322681 
L 247.881704 53.260777 
L 248.3656 53.27678 
L 249.094794 53.028765 
L 249.70335 52.929269 
L 250.161777 53.085807 
L 250.732801 53.546834 
L 251.735443 54.359546 
L 252.195211 54.430188 
L 252.719319 54.266805 
L 253.646898 53.96072 
L 254.077176 54.084963 
L 254.579838 54.486202 
L 255.794268 55.543618 
L 256.223206 55.573191 
L 256.737932 55.36086 
L 257.599829 55.008169 
L 258.00732 55.104405 
L 258.460385 55.46287 
L 259.882583 56.761507 
L 260.283372 56.731755 
L 260.820884 56.434697 
L 261.542036 56.08419 
L 261.930761 56.146243 
L 262.342274 56.457263 
L 263.087553 57.378622 
L 263.671981 57.920694 
L 264.064727 58.002925 
L 264.466857 57.847697 
L 265.737585 57.189731 
L 266.099502 57.367645 
L 266.556589 57.874014 
L 267.686572 59.215434 
L 268.055191 59.281235 
L 268.435873 59.109004 
L 269.736091 58.328607 
L 270.077901 58.511366 
L 270.513541 59.031721 
L 271.69178 60.562342 
L 272.038951 60.616036 
L 272.398187 60.431412 
L 273.746661 59.509958 
L 274.072385 59.708737 
L 274.493281 60.263612 
L 275.671519 61.955077 
L 276.002606 62.014979 
L 276.336373 61.83458 
L 276.908737 61.207388 
L 277.455633 60.74472 
L 277.777337 60.739409 
L 278.089657 60.973063 
L 278.513233 61.610811 
L 279.616408 63.384994 
L 279.939452 63.479187 
L 280.24641 63.32705 
L 280.694114 62.810785 
L 281.417947 62.018953 
L 281.731608 61.982092 
L 282.023822 62.186142 
L 282.405845 62.765263 
L 283.69668 64.959129 
L 283.987553 64.979085 
L 284.291831 64.755279 
L 284.797174 64.043919 
L 285.396346 63.322763 
L 285.701965 63.263621 
L 285.976753 63.449592 
L 286.330627 63.999467 
L 287.762207 66.564604 
L 288.027612 66.518878 
L 288.337252 66.208181 
L 288.975297 65.148133 
L 289.437746 64.614228 
L 289.719236 64.583543 
L 289.983301 64.797873 
L 290.335835 65.416362 
L 291.715138 68.177901 
L 291.96982 68.154555 
L 292.252651 67.873895 
L 292.724483 67.023567 
L 293.358507 66.001755 
L 293.65072 65.893003 
L 293.894679 66.045511 
L 294.202978 66.544309 
L 294.715023 67.882459 
L 295.420089 69.575424 
L 295.740452 69.850824 
L 295.977709 69.788047 
L 296.259199 69.444856 
L 296.75784 68.403894 
L 297.346289 67.346547 
L 297.631801 67.215086 
L 297.862355 67.355248 
L 298.153228 67.838738 
L 298.617017 69.122659 
L 299.410552 71.250648 
L 299.720192 71.534841 
L 299.944044 71.471396 
L 300.21079 71.123888 
L 300.658494 70.098838 
L 301.327369 68.683334 
L 301.61154 68.519125 
L 301.82869 68.643723 
L 302.100798 69.101346 
L 302.521693 70.320267 
L 303.426484 72.977369 
L 303.718698 73.231041 
L 303.930486 73.147177 
L 304.19187 72.75753 
L 304.634212 71.615886 
L 305.313811 69.981225 
L 305.595301 69.786633 
L 305.801728 69.900407 
L 306.05909 70.344576 
L 306.453177 71.545207 
L 307.445096 74.703571 
L 307.717203 74.918293 
L 307.916928 74.812251 
L 308.175631 74.37088 
L 308.615292 73.09057 
L 309.300252 71.226244 
L 309.579062 70.997676 
L 309.774765 71.099595 
L 310.018723 71.528912 
L 310.387342 72.704288 
L 311.474432 76.42307 
L 311.722411 76.578304 
L 311.914093 76.436848 
L 312.175477 75.910387 
L 312.635245 74.376441 
L 313.284013 72.404327 
L 313.562823 72.134121 
L 313.749143 72.223916 
L 313.979697 72.636223 
L 314.326869 73.791332 
L 315.507788 78.105248 
L 315.7303 78.193652 
L 315.91796 78.003762 
L 316.188727 77.34935 
L 316.692729 75.411139 
L 317.274476 73.481736 
L 317.550605 73.177581 
L 317.728883 73.261011 
L 317.948713 73.667697 
L 318.2798 74.826846 
L 319.531762 79.718994 
L 319.730146 79.754449 
L 319.916466 79.516327 
L 320.193935 78.731217 
L 320.743512 76.329621 
L 321.277003 74.427284 
L 321.54643 74.112735 
L 321.716665 74.200029 
L 321.929793 74.621956 
L 322.252837 75.837935 
L 323.532949 81.246808 
L 323.717928 81.258907 
L 323.900227 80.990323 
L 324.177696 80.109287 
L 324.727273 77.427197 
L 325.262105 75.292312 
L 325.531531 74.930574 
L 325.693724 75.007644 
L 325.896129 75.416043 
L 326.204428 76.626259 
L 326.892069 80.538946 
L 327.351837 82.419748 
L 327.603838 82.735863 
L 327.757987 82.636931 
L 327.964414 82.168865 
L 328.292819 80.772606 
L 329.375888 75.755797 
L 329.589016 75.624964 
L 329.748527 75.806702 
L 329.980422 76.481254 
L 330.34636 78.348474 
L 331.363747 83.84337 
L 331.599663 84.113461 
L 331.74711 83.990749 
L 331.954877 83.45163 
L 332.287304 81.859835 
L 333.350265 76.355317 
L 333.567415 76.178149 
L 333.717544 76.340442 
L 333.936034 76.980191 
L 334.277844 78.78502 
L 335.403806 85.257626 
L 335.610232 85.415482 
L 335.756339 85.233737 
L 335.97751 84.521439 
L 336.339427 82.46771 
L 337.271026 76.964034 
L 337.519006 76.59557 
L 337.658411 76.692528 
L 337.848752 77.175552 
L 338.143647 78.636586 
L 338.728075 82.95856 
L 339.254864 86.106158 
L 339.52161 86.659298 
L 339.659674 86.599235 
L 339.83259 86.191698 
L 340.106038 84.875778 
L 340.64221 80.924265 
L 341.197149 77.50289 
L 341.471937 76.893705 
L 341.614023 76.940156 
L 341.782917 77.319659 
L 342.045641 78.555735 
L 342.493345 81.939952 
L 343.218519 87.1564 
L 343.493307 87.837113 
L 343.631371 87.792351 
L 343.794904 87.402401 
L 344.054947 86.101768 
L 344.52946 82.345409 
L 345.166165 77.797983 
L 345.448996 77.054555 
L 345.592422 77.084548 
L 345.753274 77.449153 
L 346.005275 78.675064 
L 346.423489 82.018817 
L 347.221045 88.306963 
L 347.486451 88.974421 
L 347.615132 88.919063 
L 347.775984 88.500467 
L 348.033347 87.0976 
L 348.498476 83.066218 
L 349.151266 77.905783 
L 349.434097 77.080089 
L 349.570821 77.097598 
L 349.574842 77.102324 
L 349.728992 77.462331 
L 349.97295 78.704438 
L 350.372399 82.101113 
L 351.226253 89.428184 
L 351.482276 90.069182 
L 351.601574 89.99972 
L 351.761085 89.540729 
L 352.018448 87.997654 
L 352.483578 83.566421 
L 353.136367 77.894075 
L 353.420539 76.977027 
L 353.543859 76.976814 
L 353.559944 76.994979 
L 353.710072 77.364457 
L 353.948669 78.654127 
L 354.336053 82.183003 
L 355.22878 90.506029 
L 355.47542 91.128689 
L 355.588016 91.047418 
L 355.746187 90.547029 
L 356.002209 88.866854 
L 356.464658 84.039921 
L 357.121469 77.76762 
L 357.406981 76.750857 
L 357.522258 76.738356 
L 357.543705 76.761897 
L 357.688471 77.130705 
L 357.920366 78.445438 
L 358.294346 82.068291 
L 359.23935 91.599761 
L 359.473925 92.165027 
L 359.579819 92.06248 
L 359.740671 91.483704 
L 360.002055 89.557682 
L 360.48327 83.987049 
L 361.107911 77.524107 
L 361.393422 76.405768 
L 361.500657 76.37988 
L 361.530146 76.411424 
L 361.670892 76.789306 
L 361.898765 78.160234 
L 362.263362 81.939514 
L 363.245898 92.66315 
L 363.46975 93.186587 
L 363.570282 93.066767 
L 363.732475 92.414453 
L 363.995199 90.271241 
L 364.485797 84.024442 
L 365.095693 77.166903 
L 365.381205 75.94407 
L 365.483077 75.908733 
L 365.516588 75.944273 
L 365.653312 76.328875 
L 365.877164 77.752198 
L 366.233719 81.699284 
L 367.253787 93.730269 
L 367.462894 94.204305 
L 367.468256 94.2028 
L 367.567448 94.050701 
L 367.733661 93.278354 
L 368.004428 90.776223 
L 368.533898 83.294487 
L 369.094199 76.628716 
L 369.375689 75.361539 
L 369.47086 75.328426 
L 369.505711 75.367278 
L 369.641094 75.775008 
L 369.862266 77.282258 
L 370.213458 81.462413 
L 371.257654 94.784114 
L 371.450676 95.22996 
L 371.46274 95.225685 
L 371.560592 95.050321 
L 371.729486 94.171441 
L 372.004274 91.35089 
L 372.559213 82.738312 
L 373.092704 75.984733 
L 373.370173 74.67024 
L 373.458642 74.63801 
L 373.496174 74.681838 
L 373.628877 75.108708 
L 373.848707 76.710115 
L 374.195879 81.151634 
L 375.261522 95.851353 
L 375.441139 96.270363 
L 375.459905 96.261328 
L 375.559097 96.046868 
L 375.732013 95.0191 
L 376.013503 91.773447 
L 376.632783 81.230628 
L 377.113997 75.054551 
L 377.378062 73.856471 
L 377.455807 73.847979 
L 377.490658 73.895569 
L 377.624701 74.372077 
L 377.845873 76.134938 
L 378.194385 80.994537 
L 379.251985 96.869737 
L 379.431602 97.334321 
L 379.450368 97.325342 
L 379.545539 97.111442 
L 379.714433 96.055263 
L 379.990562 92.666821 
L 380.557564 82.199118 
L 381.076311 74.521712 
L 381.353781 72.984029 
L 381.435547 72.939462 
L 381.478441 72.991457 
L 381.607122 73.455704 
L 381.821591 75.218899 
L 382.158039 80.132244 
L 383.284001 98.121409 
L 383.426087 98.427529 
L 383.459598 98.400525 
L 383.565492 98.066447 
L 383.751812 96.591023 
L 384.054749 92.113612 
L 385.255775 72.284989 
L 385.415286 71.933841 
L 385.442095 71.95038 
L 385.545308 72.216035 
L 385.724926 73.426444 
L 386.007757 77.101326 
L 386.501036 87.011082 
L 387.108251 97.876024 
L 387.373656 99.527286 
L 387.432635 99.55132 
L 387.476869 99.485479 
L 387.601529 98.916484 
L 387.814658 96.696714 
L 388.165851 90.293111 
L 389.112195 72.211203 
L 389.368217 70.85656 
L 389.431218 70.847167 
L 389.47009 70.905429 
L 389.598772 71.443552 
L 389.813241 73.478431 
L 390.145667 79.093739 
L 391.294417 100.455832 
L 391.416396 100.726764 
L 391.456609 100.686428 
L 391.565184 100.257366 
L 391.756866 98.399544 
L 392.067846 92.840091 
L 393.211233 70.274606 
L 393.406936 69.64437 
L 393.41766 69.648127 
L 393.503447 69.820682 
L 393.658937 70.770101 
L 393.908257 73.918087 
L 394.299663 82.151863 
L 395.158879 100.593899 
L 395.397476 101.937224 
L 395.453774 101.900845 
L 395.473881 101.85476 
L 395.5972 101.194919 
L 395.808988 98.618933 
L 396.1575 91.184335 
L 397.102504 70.014905 
L 397.361208 68.393626 
L 397.420186 68.368591 
L 397.465761 68.436745 
L 397.590421 69.008746 
L 397.800869 71.217955 
L 398.122572 77.308567 
L 399.339684 103.078936 
L 399.418769 103.20069 
L 399.468365 103.12852 
L 399.584983 102.510973 
L 399.787388 100.010339 
L 400.118474 92.680361 
L 401.141223 68.355489 
L 401.383841 67.005351 
L 401.437458 67.017869 
L 401.469629 67.07903 
L 401.595629 67.701801 
L 401.807417 70.086364 
L 402.129121 76.619536 
L 403.350253 104.399872 
L 403.422637 104.509595 
L 403.473573 104.429267 
L 403.59019 103.759201 
L 403.793936 101.033227 
L 404.126363 93.064678 
L 405.135707 67.111604 
L 405.382347 65.568276 
L 405.431943 65.562811 
L 405.472156 65.632582 
L 405.595475 66.256417 
L 405.803242 68.670545 
L 406.118243 75.337349 
L 406.79248 95.960173 
L 407.206673 104.604314 
L 407.425163 105.868536 
L 407.427844 105.868167 
L 407.493525 105.738124 
L 407.620866 104.830413 
L 407.838016 101.391172 
L 408.197252 91.53546 
L 409.079255 66.553206 
L 409.354044 64.125649 
L 409.426427 64.038549 
L 409.476023 64.110071 
L 409.595321 64.713323 
L 409.797726 67.098865 
L 410.103345 73.745574 
L 410.652921 91.720642 
L 411.156923 105.071714 
L 411.407584 107.254132 
L 411.446457 107.270882 
L 411.490691 107.183652 
L 411.605968 106.429424 
L 411.807032 103.36506 
L 412.134098 94.395599 
L 413.155506 64.187915 
L 413.402145 62.474339 
L 413.44772 62.465332 
L 413.489273 62.539233 
L 413.609912 63.19206 
L 413.813658 65.744819 
L 414.117935 72.77176 
L 414.650087 91.386077 
L 415.166153 106.28627 
L 415.418154 108.700768 
L 415.457026 108.727028 
L 415.505282 108.629595 
L 415.620559 107.819342 
L 415.822964 104.506881 
L 416.150029 94.874574 
L 417.163395 62.73379 
L 417.412715 60.846147 
L 417.45829 60.827323 
L 417.503864 60.906965 
L 417.624503 61.586563 
L 417.828249 64.250064 
L 418.129845 71.549281 
L 418.635188 90.318518 
L 419.176722 107.482646 
L 419.432744 110.191718 
L 419.472957 110.227523 
L 419.522553 110.12476 
L 419.63783 109.265349 
L 419.838895 105.77214 
L 420.163279 95.611576 
L 421.182007 61.142134 
L 421.429987 59.167871 
L 421.475561 59.144869 
L 421.522476 59.228189 
L 421.641775 59.921739 
L 421.84418 62.653323 
L 422.141755 70.129092 
L 422.618949 88.812378 
L 423.193994 108.748121 
L 423.451357 111.723981 
L 423.49425 111.770784 
L 423.543846 111.663949 
L 423.657783 110.771762 
L 423.857507 107.117178 
L 424.179211 96.452265 
L 425.207321 59.471222 
L 425.45396 57.446929 
L 425.498195 57.42463 
L 425.54511 57.510242 
L 425.664408 58.226335 
L 425.866813 61.052873 
L 426.161708 68.754668 
L 426.618795 87.598525 
L 427.220649 110.143664 
L 427.478011 113.30487 
L 427.519565 113.354344 
L 427.570501 113.239715 
L 427.684438 112.292434 
L 427.884162 108.4159 
L 428.204525 97.136948 
L 429.231295 57.854345 
L 429.479275 55.701508 
L 429.523509 55.673519 
L 429.571765 55.760717 
L 429.689722 56.481678 
L 429.890787 59.349217 
L 430.181661 67.158558 
L 430.61596 85.844687 
L 431.255346 111.647916 
L 431.510028 114.924504 
L 431.550241 114.974853 
L 431.601177 114.856007 
L 431.715114 113.860151 
L 431.914838 109.771202 
L 432.23386 97.888693 
L 433.244545 56.481187 
L 433.244545 56.481187 
" clip-path="url(#p9da7139fee)" style="fill: none; stroke: #ff7f0e; stroke-width: 1.5; stroke-linecap: square"/>
   </g>
   <g id="patch_3">
    <path d="M 81.38 285.64 
L 81.38 10.8 
" style="fill: none; stroke: #000000; stroke-width: 0.8; stroke-linejoin: miter; stroke-linecap: square"/>
   </g>
   <g id="patch_4">
    <path d="M 450 285.64 
L 450 10.8 
" style="fill: none; stroke: #000000; stroke-width: 0.8; stroke-linejoin: miter; stroke-linecap: square"/>
   </g>
   <g id="patch_5">
    <path d="M 81.38 285.64 
L 450 285.64 
" style="fill: none; stroke: #000000; stroke-width: 0.8; stroke-linejoin: miter; stroke-linecap: square"/>
   </g>
   <g id="patch_6">
    <path d="M 81.38 10.8 
L 450 10.8 
" style="fill: none; stroke: #000000; stroke-width: 0.8; stroke-linejoin: miter; stroke-linecap: square"/>
   </g>
   <g id="legend_1">
    <g id="patch_7">
     <path d="M 121.64 277.64 
L 438.8 277.64 
Q 442 277.64 442 274.44 
L 442 229.07 
Q 442 225.87 438.8 225.87 
L 121.64 225.87 
Q 118.44 225.87 118.44 229.07 
L 118.44 274.44 
Q 118.44 277.64 121.64 277.64 
z
" style="fill: #ffffff; opacity: 0.8; stroke: #cccccc; stroke-linejoin: miter"/>
    </g>
    <g id="line2d_14">
     <path d="M 124.84 238.8275 
L 140.84 238.8275 
L 156.84 238.8275 
" style="fill: none; stroke: #1f77b4; stroke-width: 1.5; stroke-linecap: square"/>
    </g>
    <g id="text_14">
     <!-- displacement criterion, dt = 1e-1 -->
     <g transform="translate(169.64 244.4275) scale(0.16 -0.16)">
      <defs>
       <path id="DejaVuSans-72" d="M 2631 2963 
Q 2534 3019 2420 3045 
Q 2306 3072 2169 3072 
Q 1681 3072 1420 2755 
Q 1159 2438 1159 1844 
L 1159 0 
L 581 0 
L 581 3500 
L 1159 3500 
L 1159 2956 
Q 1341 3275 1631 3429 
Q 1922 3584 2338 3584 
Q 2397 3584 2469 3576 
Q 2541 3569 2628 3553 
L 2631 2963 
z
" transform="scale(0.015625)"/>
       <path id="DejaVuSans-6f" d="M 1959 3097 
Q 1497 3097 1228 2736 
Q 959 2375 959 1747 
Q 959 1119 1226 758 
Q 1494 397 1959 397 
Q 2419 397 2687 759 
Q 2956 1122 2956 1747 
Q 2956 2369 2687 2733 
Q 2419 3097 1959 3097 
z
M 1959 3584 
Q 2709 3584 3137 3096 
Q 3566 2609 3566 1747 
Q 3566 888 3137 398 
Q 2709 -91 1959 -91 
Q 1206 -91 779 398 
Q 353 888 353 1747 
Q 353 2609 779 3096 
Q 1206 3584 1959 3584 
z
" transform="scale(0.015625)"/>
       <path id="DejaVuSans-2c" d="M 750 794 
L 1409 794 
L 1409 256 
L 897 -744 
L 494 -744 
L 750 256 
L 750 794 
z
" transform="scale(0.015625)"/>
       <path id="DejaVuSans-3d" d="M 678 2906 
L 4684 2906 
L 4684 2381 
L 678 2381 
L 678 2906 
z
M 678 1631 
L 4684 1631 
L 4684 1100 
L 678 1100 
L 678 1631 
z
" transform="scale(0.015625)"/>
       <path id="DejaVuSans-2d" d="M 313 2009 
L 1997 2009 
L 1997 1497 
L 313 1497 
L 313 2009 
z
" transform="scale(0.015625)"/>
      </defs>
      <use xlink:href="#DejaVuSans-64"/>
      <use xlink:href="#DejaVuSans-69" x="63.476562"/>
      <use xlink:href="#DejaVuSans-73" x="91.259766"/>
      <use xlink:href="#DejaVuSans-70" x="143.359375"/>
      <use xlink:href="#DejaVuSans-6c" x="206.835938"/>
      <use xlink:href="#DejaVuSans-61" x="234.619141"/>
      <use xlink:href="#DejaVuSans-63" x="295.898438"/>
      <use xlink:href="#DejaVuSans-65" x="350.878906"/>
      <use xlink:href="#DejaVuSans-6d" x="412.402344"/>
      <use xlink:href="#DejaVuSans-65" x="509.814453"/>
      <use xlink:href="#DejaVuSans-6e" x="571.337891"/>
      <use xlink:href="#DejaVuSans-74" x="634.716797"/>
      <use xlink:href="#DejaVuSans-20" x="673.925781"/>
      <use xlink:href="#DejaVuSans-63" x="705.712891"/>
      <use xlink:href="#DejaVuSans-72" x="760.693359"/>
      <use xlink:href="#DejaVuSans-69" x="801.806641"/>
      <use xlink:href="#DejaVuSans-74" x="829.589844"/>
      <use xlink:href="#DejaVuSans-65" x="868.798828"/>
      <use xlink:href="#DejaVuSans-72" x="930.322266"/>
      <use xlink:href="#DejaVuSans-69" x="971.435547"/>
      <use xlink:href="#DejaVuSans-6f" x="999.21875"/>
      <use xlink:href="#DejaVuSans-6e" x="1060.400391"/>
      <use xlink:href="#DejaVuSans-2c" x="1123.779297"/>
      <use xlink:href="#DejaVuSans-20" x="1155.566406"/>
      <use xlink:href="#DejaVuSans-64" x="1187.353516"/>
      <use xlink:href="#DejaVuSans-74" x="1250.830078"/>
      <use xlink:href="#DejaVuSans-20" x="1290.039062"/>
      <use xlink:href="#DejaVuSans-3d" x="1321.826172"/>
      <use xlink:href="#DejaVuSans-20" x="1405.615234"/>
      <use xlink:href="#DejaVuSans-31" x="1437.402344"/>
      <use xlink:href="#DejaVuSans-65" x="1501.025391"/>
      <use xlink:href="#DejaVuSans-2d" x="1562.548828"/>
      <use xlink:href="#DejaVuSans-31" x="1598.632812"/>
     </g>
    </g>
    <g id="line2d_15">
     <path d="M 124.84 262.3125 
L 140.84 262.3125 
L 156.84 262.3125 
" style="fill: none; stroke: #ff7f0e; stroke-width: 1.5; stroke-linecap: square"/>
    </g>
    <g id="text_15">
     <!-- displacement criterion, dt = 5e-3 -->
     <g transform="translate(169.64 267.9125) scale(0.16 -0.16)">
      <defs>
       <path id="DejaVuSans-35" d="M 691 4666 
L 3169 4666 
L 3169 4134 
L 1269 4134 
L 1269 2991 
Q 1406 3038 1543 3061 
Q 1681 3084 1819 3084 
Q 2600 3084 3056 2656 
Q 3513 2228 3513 1497 
Q 3513 744 3044 326 
Q 2575 -91 1722 -91 
Q 1428 -91 1123 -41 
Q 819 9 494 109 
L 494 744 
Q 775 591 1075 516 
Q 1375 441 1709 441 
Q 2250 441 2565 725 
Q 2881 1009 2881 1497 
Q 2881 1984 2565 2268 
Q 2250 2553 1709 2553 
Q 1456 2553 1204 2497 
Q 953 2441 691 2322 
L 691 4666 
z
" transform="scale(0.015625)"/>
       <path id="DejaVuSans-33" d="M 2597 2516 
Q 3050 2419 3304 2112 
Q 3559 1806 3559 1356 
Q 3559 666 3084 287 
Q 2609 -91 1734 -91 
Q 1441 -91 1130 -33 
Q 819 25 488 141 
L 488 750 
Q 750 597 1062 519 
Q 1375 441 1716 441 
Q 2309 441 2620 675 
Q 2931 909 2931 1356 
Q 2931 1769 2642 2001 
Q 2353 2234 1838 2234 
L 1294 2234 
L 1294 2753 
L 1863 2753 
Q 2328 2753 2575 2939 
Q 2822 3125 2822 3475 
Q 2822 3834 2567 4026 
Q 2313 4219 1838 4219 
Q 1578 4219 1281 4162 
Q 984 4106 628 3988 
L 628 4550 
Q 988 4650 1302 4700 
Q 1616 4750 1894 4750 
Q 2613 4750 3031 4423 
Q 3450 4097 3450 3541 
Q 3450 3153 3228 2886 
Q 3006 2619 2597 2516 
z
" transform="scale(0.015625)"/>
      </defs>
      <use xlink:href="#DejaVuSans-64"/>
      <use xlink:href="#DejaVuSans-69" x="63.476562"/>
      <use xlink:href="#DejaVuSans-73" x="91.259766"/>
      <use xlink:href="#DejaVuSans-70" x="143.359375"/>
      <use xlink:href="#DejaVuSans-6c" x="206.835938"/>
      <use xlink:href="#DejaVuSans-61" x="234.619141"/>
      <use xlink:href="#DejaVuSans-63" x="295.898438"/>
      <use xlink:href="#DejaVuSans-65" x="350.878906"/>
      <use xlink:href="#DejaVuSans-6d" x="412.402344"/>
      <use xlink:href="#DejaVuSans-65" x="509.814453"/>
      <use xlink:href="#DejaVuSans-6e" x="571.337891"/>
      <use xlink:href="#DejaVuSans-74" x="634.716797"/>
      <use xlink:href="#DejaVuSans-20" x="673.925781"/>
      <use xlink:href="#DejaVuSans-63" x="705.712891"/>
      <use xlink:href="#DejaVuSans-72" x="760.693359"/>
      <use xlink:href="#DejaVuSans-69" x="801.806641"/>
      <use xlink:href="#DejaVuSans-74" x="829.589844"/>
      <use xlink:href="#DejaVuSans-65" x="868.798828"/>
      <use xlink:href="#DejaVuSans-72" x="930.322266"/>
      <use xlink:href="#DejaVuSans-69" x="971.435547"/>
      <use xlink:href="#DejaVuSans-6f" x="999.21875"/>
      <use xlink:href="#DejaVuSans-6e" x="1060.400391"/>
      <use xlink:href="#DejaVuSans-2c" x="1123.779297"/>
      <use xlink:href="#DejaVuSans-20" x="1155.566406"/>
      <use xlink:href="#DejaVuSans-64" x="1187.353516"/>
      <use xlink:href="#DejaVuSans-74" x="1250.830078"/>
      <use xlink:href="#DejaVuSans-20" x="1290.039062"/>
      <use xlink:href="#DejaVuSans-3d" x="1321.826172"/>
      <use xlink:href="#DejaVuSans-20" x="1405.615234"/>
      <use xlink:href="#DejaVuSans-35" x="1437.402344"/>
      <use xlink:href="#DejaVuSans-65" x="1501.025391"/>
      <use xlink:href="#DejaVuSans-2d" x="1562.548828"/>
      <use xlink:href="#DejaVuSans-33" x="1598.632812"/>
     </g>
    </g>
   </g>
  </g>
 </g>
 <defs>
  <clipPath id="p9da7139fee">
   <rect x="81.38" y="10.8" width="368.62" height="274.84"/>
  </clipPath>
 </defs>
</svg>
