<?xml version="1.0" encoding="utf-8" standalone="no"?>
<!DOCTYPE svg PUBLIC "-//W3C//DTD SVG 1.1//EN"
  "http://www.w3.org/Graphics/SVG/1.1/DTD/svg11.dtd">
<svg xmlns:xlink="http://www.w3.org/1999/xlink" width="460.8pt" height="345.6pt" viewBox="0 0 460.8 345.6" xmlns="http://www.w3.org/2000/svg" version="1.1">
 <metadata>
  <rdf:RDF xmlns:dc="http://purl.org/dc/elements/1.1/" xmlns:cc="http://creativecommons.org/ns#" xmlns:rdf="http://www.w3.org/1999/02/22-rdf-syntax-ns#">
   <cc:Work>
    <dc:type rdf:resource="http://purl.org/dc/dcmitype/StillImage"/>
    <dc:date>2023-09-12T18:19:19.293850</dc:date>
    <dc:format>image/svg+xml</dc:format>
    <dc:creator>
     <cc:Agent>
      <dc:title>Matplotlib v3.7.2, https://matplotlib.org/</dc:title>
     </cc:Agent>
    </dc:creator>
   </cc:Work>
  </rdf:RDF>
 </metadata>
 <defs>
  <style type="text/css">*{stroke-linejoin: round; stroke-linecap: butt}</style>
 </defs>
 <g id="figure_1">
  <g id="patch_1">
   <path d="M 0 345.6 
L 460.8 345.6 
L 460.8 0 
L 0 0 
z
" style="fill: #ffffff"/>
  </g>
  <g id="axes_1">
   <g id="patch_2">
    <path d="M 81.2 284.56 
L 450 284.56 
L 450 10.8 
L 81.2 10.8 
z
" style="fill: #ffffff"/>
   </g>
   <g id="matplotlib.axis_1">
    <g id="xtick_1">
     <g id="line2d_1">
      <defs>
       <path id="m74442a7fb2" d="M 0 0 
L 0 3.5 
" style="stroke: #000000; stroke-width: 0.8"/>
      </defs>
      <g>
       <use xlink:href="#m74442a7fb2" x="97.963636" y="284.56" style="stroke: #000000; stroke-width: 0.8"/>
      </g>
     </g>
     <g id="text_1">
      <!-- 0 -->
      <g transform="translate(92.873636 303.7175) scale(0.16 -0.16)">
       <defs>
        <path id="DejaVuSans-30" d="M 2034 4250 
Q 1547 4250 1301 3770 
Q 1056 3291 1056 2328 
Q 1056 1369 1301 889 
Q 1547 409 2034 409 
Q 2525 409 2770 889 
Q 3016 1369 3016 2328 
Q 3016 3291 2770 3770 
Q 2525 4250 2034 4250 
z
M 2034 4750 
Q 2819 4750 3233 4129 
Q 3647 3509 3647 2328 
Q 3647 1150 3233 529 
Q 2819 -91 2034 -91 
Q 1250 -91 836 529 
Q 422 1150 422 2328 
Q 422 3509 836 4129 
Q 1250 4750 2034 4750 
z
" transform="scale(0.015625)"/>
       </defs>
       <use xlink:href="#DejaVuSans-30"/>
      </g>
     </g>
    </g>
    <g id="xtick_2">
     <g id="line2d_2">
      <g>
       <use xlink:href="#m74442a7fb2" x="165.018182" y="284.56" style="stroke: #000000; stroke-width: 0.8"/>
      </g>
     </g>
     <g id="text_2">
      <!-- 5 -->
      <g transform="translate(159.928182 303.7175) scale(0.16 -0.16)">
       <defs>
        <path id="DejaVuSans-35" d="M 691 4666 
L 3169 4666 
L 3169 4134 
L 1269 4134 
L 1269 2991 
Q 1406 3038 1543 3061 
Q 1681 3084 1819 3084 
Q 2600 3084 3056 2656 
Q 3513 2228 3513 1497 
Q 3513 744 3044 326 
Q 2575 -91 1722 -91 
Q 1428 -91 1123 -41 
Q 819 9 494 109 
L 494 744 
Q 775 591 1075 516 
Q 1375 441 1709 441 
Q 2250 441 2565 725 
Q 2881 1009 2881 1497 
Q 2881 1984 2565 2268 
Q 2250 2553 1709 2553 
Q 1456 2553 1204 2497 
Q 953 2441 691 2322 
L 691 4666 
z
" transform="scale(0.015625)"/>
       </defs>
       <use xlink:href="#DejaVuSans-35"/>
      </g>
     </g>
    </g>
    <g id="xtick_3">
     <g id="line2d_3">
      <g>
       <use xlink:href="#m74442a7fb2" x="232.072727" y="284.56" style="stroke: #000000; stroke-width: 0.8"/>
      </g>
     </g>
     <g id="text_3">
      <!-- 10 -->
      <g transform="translate(221.892727 303.7175) scale(0.16 -0.16)">
       <defs>
        <path id="DejaVuSans-31" d="M 794 531 
L 1825 531 
L 1825 4091 
L 703 3866 
L 703 4441 
L 1819 4666 
L 2450 4666 
L 2450 531 
L 3481 531 
L 3481 0 
L 794 0 
L 794 531 
z
" transform="scale(0.015625)"/>
       </defs>
       <use xlink:href="#DejaVuSans-31"/>
       <use xlink:href="#DejaVuSans-30" x="63.623047"/>
      </g>
     </g>
    </g>
    <g id="xtick_4">
     <g id="line2d_4">
      <g>
       <use xlink:href="#m74442a7fb2" x="299.127273" y="284.56" style="stroke: #000000; stroke-width: 0.8"/>
      </g>
     </g>
     <g id="text_4">
      <!-- 15 -->
      <g transform="translate(288.947273 303.7175) scale(0.16 -0.16)">
       <use xlink:href="#DejaVuSans-31"/>
       <use xlink:href="#DejaVuSans-35" x="63.623047"/>
      </g>
     </g>
    </g>
    <g id="xtick_5">
     <g id="line2d_5">
      <g>
       <use xlink:href="#m74442a7fb2" x="366.181818" y="284.56" style="stroke: #000000; stroke-width: 0.8"/>
      </g>
     </g>
     <g id="text_5">
      <!-- 20 -->
      <g transform="translate(356.001818 303.7175) scale(0.16 -0.16)">
       <defs>
        <path id="DejaVuSans-32" d="M 1228 531 
L 3431 531 
L 3431 0 
L 469 0 
L 469 531 
Q 828 903 1448 1529 
Q 2069 2156 2228 2338 
Q 2531 2678 2651 2914 
Q 2772 3150 2772 3378 
Q 2772 3750 2511 3984 
Q 2250 4219 1831 4219 
Q 1534 4219 1204 4116 
Q 875 4013 500 3803 
L 500 4441 
Q 881 4594 1212 4672 
Q 1544 4750 1819 4750 
Q 2544 4750 2975 4387 
Q 3406 4025 3406 3419 
Q 3406 3131 3298 2873 
Q 3191 2616 2906 2266 
Q 2828 2175 2409 1742 
Q 1991 1309 1228 531 
z
" transform="scale(0.015625)"/>
       </defs>
       <use xlink:href="#DejaVuSans-32"/>
       <use xlink:href="#DejaVuSans-30" x="63.623047"/>
      </g>
     </g>
    </g>
    <g id="xtick_6">
     <g id="line2d_6">
      <g>
       <use xlink:href="#m74442a7fb2" x="433.236364" y="284.56" style="stroke: #000000; stroke-width: 0.8"/>
      </g>
     </g>
     <g id="text_6">
      <!-- 25 -->
      <g transform="translate(423.056364 303.7175) scale(0.16 -0.16)">
       <use xlink:href="#DejaVuSans-32"/>
       <use xlink:href="#DejaVuSans-35" x="63.623047"/>
      </g>
     </g>
    </g>
    <g id="text_7">
     <!-- time -->
     <g transform="translate(238.489375 329.28125) scale(0.24 -0.24)">
      <defs>
       <path id="DejaVuSans-74" d="M 1172 4494 
L 1172 3500 
L 2356 3500 
L 2356 3053 
L 1172 3053 
L 1172 1153 
Q 1172 725 1289 603 
Q 1406 481 1766 481 
L 2356 481 
L 2356 0 
L 1766 0 
Q 1100 0 847 248 
Q 594 497 594 1153 
L 594 3053 
L 172 3053 
L 172 3500 
L 594 3500 
L 594 4494 
L 1172 4494 
z
" transform="scale(0.015625)"/>
       <path id="DejaVuSans-69" d="M 603 3500 
L 1178 3500 
L 1178 0 
L 603 0 
L 603 3500 
z
M 603 4863 
L 1178 4863 
L 1178 4134 
L 603 4134 
L 603 4863 
z
" transform="scale(0.015625)"/>
       <path id="DejaVuSans-6d" d="M 3328 2828 
Q 3544 3216 3844 3400 
Q 4144 3584 4550 3584 
Q 5097 3584 5394 3201 
Q 5691 2819 5691 2113 
L 5691 0 
L 5113 0 
L 5113 2094 
Q 5113 2597 4934 2840 
Q 4756 3084 4391 3084 
Q 3944 3084 3684 2787 
Q 3425 2491 3425 1978 
L 3425 0 
L 2847 0 
L 2847 2094 
Q 2847 2600 2669 2842 
Q 2491 3084 2119 3084 
Q 1678 3084 1418 2786 
Q 1159 2488 1159 1978 
L 1159 0 
L 581 0 
L 581 3500 
L 1159 3500 
L 1159 2956 
Q 1356 3278 1631 3431 
Q 1906 3584 2284 3584 
Q 2666 3584 2933 3390 
Q 3200 3197 3328 2828 
z
" transform="scale(0.015625)"/>
       <path id="DejaVuSans-65" d="M 3597 1894 
L 3597 1613 
L 953 1613 
Q 991 1019 1311 708 
Q 1631 397 2203 397 
Q 2534 397 2845 478 
Q 3156 559 3463 722 
L 3463 178 
Q 3153 47 2828 -22 
Q 2503 -91 2169 -91 
Q 1331 -91 842 396 
Q 353 884 353 1716 
Q 353 2575 817 3079 
Q 1281 3584 2069 3584 
Q 2775 3584 3186 3129 
Q 3597 2675 3597 1894 
z
M 3022 2063 
Q 3016 2534 2758 2815 
Q 2500 3097 2075 3097 
Q 1594 3097 1305 2825 
Q 1016 2553 972 2059 
L 3022 2063 
z
" transform="scale(0.015625)"/>
      </defs>
      <use xlink:href="#DejaVuSans-74"/>
      <use xlink:href="#DejaVuSans-69" x="39.208984"/>
      <use xlink:href="#DejaVuSans-6d" x="66.992188"/>
      <use xlink:href="#DejaVuSans-65" x="164.404297"/>
     </g>
    </g>
   </g>
   <g id="matplotlib.axis_2">
    <g id="ytick_1">
     <g id="line2d_7">
      <defs>
       <path id="m131d6de727" d="M 0 0 
L -3.5 0 
" style="stroke: #000000; stroke-width: 0.8"/>
      </defs>
      <g>
       <use xlink:href="#m131d6de727" x="81.2" y="272.116364" style="stroke: #000000; stroke-width: 0.8"/>
      </g>
     </g>
     <g id="text_8">
      <!-- 0.00 -->
      <g transform="translate(38.575 278.195114) scale(0.16 -0.16)">
       <defs>
        <path id="DejaVuSans-2e" d="M 684 794 
L 1344 794 
L 1344 0 
L 684 0 
L 684 794 
z
" transform="scale(0.015625)"/>
       </defs>
       <use xlink:href="#DejaVuSans-30"/>
       <use xlink:href="#DejaVuSans-2e" x="63.623047"/>
       <use xlink:href="#DejaVuSans-30" x="95.410156"/>
       <use xlink:href="#DejaVuSans-30" x="159.033203"/>
      </g>
     </g>
    </g>
    <g id="ytick_2">
     <g id="line2d_8">
      <g>
       <use xlink:href="#m131d6de727" x="81.2" y="211.396239" style="stroke: #000000; stroke-width: 0.8"/>
      </g>
     </g>
     <g id="text_9">
      <!-- 0.02 -->
      <g transform="translate(38.575 217.474989) scale(0.16 -0.16)">
       <use xlink:href="#DejaVuSans-30"/>
       <use xlink:href="#DejaVuSans-2e" x="63.623047"/>
       <use xlink:href="#DejaVuSans-30" x="95.410156"/>
       <use xlink:href="#DejaVuSans-32" x="159.033203"/>
      </g>
     </g>
    </g>
    <g id="ytick_3">
     <g id="line2d_9">
      <g>
       <use xlink:href="#m131d6de727" x="81.2" y="150.676115" style="stroke: #000000; stroke-width: 0.8"/>
      </g>
     </g>
     <g id="text_10">
      <!-- 0.04 -->
      <g transform="translate(38.575 156.754865) scale(0.16 -0.16)">
       <defs>
        <path id="DejaVuSans-34" d="M 2419 4116 
L 825 1625 
L 2419 1625 
L 2419 4116 
z
M 2253 4666 
L 3047 4666 
L 3047 1625 
L 3713 1625 
L 3713 1100 
L 3047 1100 
L 3047 0 
L 2419 0 
L 2419 1100 
L 313 1100 
L 313 1709 
L 2253 4666 
z
" transform="scale(0.015625)"/>
       </defs>
       <use xlink:href="#DejaVuSans-30"/>
       <use xlink:href="#DejaVuSans-2e" x="63.623047"/>
       <use xlink:href="#DejaVuSans-30" x="95.410156"/>
       <use xlink:href="#DejaVuSans-34" x="159.033203"/>
      </g>
     </g>
    </g>
    <g id="ytick_4">
     <g id="line2d_10">
      <g>
       <use xlink:href="#m131d6de727" x="81.2" y="89.955991" style="stroke: #000000; stroke-width: 0.8"/>
      </g>
     </g>
     <g id="text_11">
      <!-- 0.06 -->
      <g transform="translate(38.575 96.034741) scale(0.16 -0.16)">
       <defs>
        <path id="DejaVuSans-36" d="M 2113 2584 
Q 1688 2584 1439 2293 
Q 1191 2003 1191 1497 
Q 1191 994 1439 701 
Q 1688 409 2113 409 
Q 2538 409 2786 701 
Q 3034 994 3034 1497 
Q 3034 2003 2786 2293 
Q 2538 2584 2113 2584 
z
M 3366 4563 
L 3366 3988 
Q 3128 4100 2886 4159 
Q 2644 4219 2406 4219 
Q 1781 4219 1451 3797 
Q 1122 3375 1075 2522 
Q 1259 2794 1537 2939 
Q 1816 3084 2150 3084 
Q 2853 3084 3261 2657 
Q 3669 2231 3669 1497 
Q 3669 778 3244 343 
Q 2819 -91 2113 -91 
Q 1303 -91 875 529 
Q 447 1150 447 2328 
Q 447 3434 972 4092 
Q 1497 4750 2381 4750 
Q 2619 4750 2861 4703 
Q 3103 4656 3366 4563 
z
" transform="scale(0.015625)"/>
       </defs>
       <use xlink:href="#DejaVuSans-30"/>
       <use xlink:href="#DejaVuSans-2e" x="63.623047"/>
       <use xlink:href="#DejaVuSans-30" x="95.410156"/>
       <use xlink:href="#DejaVuSans-36" x="159.033203"/>
      </g>
     </g>
    </g>
    <g id="ytick_5">
     <g id="line2d_11">
      <g>
       <use xlink:href="#m131d6de727" x="81.2" y="29.235867" style="stroke: #000000; stroke-width: 0.8"/>
      </g>
     </g>
     <g id="text_12">
      <!-- 0.08 -->
      <g transform="translate(38.575 35.314617) scale(0.16 -0.16)">
       <defs>
        <path id="DejaVuSans-38" d="M 2034 2216 
Q 1584 2216 1326 1975 
Q 1069 1734 1069 1313 
Q 1069 891 1326 650 
Q 1584 409 2034 409 
Q 2484 409 2743 651 
Q 3003 894 3003 1313 
Q 3003 1734 2745 1975 
Q 2488 2216 2034 2216 
z
M 1403 2484 
Q 997 2584 770 2862 
Q 544 3141 544 3541 
Q 544 4100 942 4425 
Q 1341 4750 2034 4750 
Q 2731 4750 3128 4425 
Q 3525 4100 3525 3541 
Q 3525 3141 3298 2862 
Q 3072 2584 2669 2484 
Q 3125 2378 3379 2068 
Q 3634 1759 3634 1313 
Q 3634 634 3220 271 
Q 2806 -91 2034 -91 
Q 1263 -91 848 271 
Q 434 634 434 1313 
Q 434 1759 690 2068 
Q 947 2378 1403 2484 
z
M 1172 3481 
Q 1172 3119 1398 2916 
Q 1625 2713 2034 2713 
Q 2441 2713 2670 2916 
Q 2900 3119 2900 3481 
Q 2900 3844 2670 4047 
Q 2441 4250 2034 4250 
Q 1625 4250 1398 4047 
Q 1172 3844 1172 3481 
z
" transform="scale(0.015625)"/>
       </defs>
       <use xlink:href="#DejaVuSans-30"/>
       <use xlink:href="#DejaVuSans-2e" x="63.623047"/>
       <use xlink:href="#DejaVuSans-30" x="95.410156"/>
       <use xlink:href="#DejaVuSans-38" x="159.033203"/>
      </g>
     </g>
    </g>
    <g id="text_13">
     <!-- tip displacement -->
     <g transform="translate(29.58375 248.0225) rotate(-90) scale(0.24 -0.24)">
      <defs>
       <path id="DejaVuSans-70" d="M 1159 525 
L 1159 -1331 
L 581 -1331 
L 581 3500 
L 1159 3500 
L 1159 2969 
Q 1341 3281 1617 3432 
Q 1894 3584 2278 3584 
Q 2916 3584 3314 3078 
Q 3713 2572 3713 1747 
Q 3713 922 3314 415 
Q 2916 -91 2278 -91 
Q 1894 -91 1617 61 
Q 1341 213 1159 525 
z
M 3116 1747 
Q 3116 2381 2855 2742 
Q 2594 3103 2138 3103 
Q 1681 3103 1420 2742 
Q 1159 2381 1159 1747 
Q 1159 1113 1420 752 
Q 1681 391 2138 391 
Q 2594 391 2855 752 
Q 3116 1113 3116 1747 
z
" transform="scale(0.015625)"/>
       <path id="DejaVuSans-20" transform="scale(0.015625)"/>
       <path id="DejaVuSans-64" d="M 2906 2969 
L 2906 4863 
L 3481 4863 
L 3481 0 
L 2906 0 
L 2906 525 
Q 2725 213 2448 61 
Q 2172 -91 1784 -91 
Q 1150 -91 751 415 
Q 353 922 353 1747 
Q 353 2572 751 3078 
Q 1150 3584 1784 3584 
Q 2172 3584 2448 3432 
Q 2725 3281 2906 2969 
z
M 947 1747 
Q 947 1113 1208 752 
Q 1469 391 1925 391 
Q 2381 391 2643 752 
Q 2906 1113 2906 1747 
Q 2906 2381 2643 2742 
Q 2381 3103 1925 3103 
Q 1469 3103 1208 2742 
Q 947 2381 947 1747 
z
" transform="scale(0.015625)"/>
       <path id="DejaVuSans-73" d="M 2834 3397 
L 2834 2853 
Q 2591 2978 2328 3040 
Q 2066 3103 1784 3103 
Q 1356 3103 1142 2972 
Q 928 2841 928 2578 
Q 928 2378 1081 2264 
Q 1234 2150 1697 2047 
L 1894 2003 
Q 2506 1872 2764 1633 
Q 3022 1394 3022 966 
Q 3022 478 2636 193 
Q 2250 -91 1575 -91 
Q 1294 -91 989 -36 
Q 684 19 347 128 
L 347 722 
Q 666 556 975 473 
Q 1284 391 1588 391 
Q 1994 391 2212 530 
Q 2431 669 2431 922 
Q 2431 1156 2273 1281 
Q 2116 1406 1581 1522 
L 1381 1569 
Q 847 1681 609 1914 
Q 372 2147 372 2553 
Q 372 3047 722 3315 
Q 1072 3584 1716 3584 
Q 2034 3584 2315 3537 
Q 2597 3491 2834 3397 
z
" transform="scale(0.015625)"/>
       <path id="DejaVuSans-6c" d="M 603 4863 
L 1178 4863 
L 1178 0 
L 603 0 
L 603 4863 
z
" transform="scale(0.015625)"/>
       <path id="DejaVuSans-61" d="M 2194 1759 
Q 1497 1759 1228 1600 
Q 959 1441 959 1056 
Q 959 750 1161 570 
Q 1363 391 1709 391 
Q 2188 391 2477 730 
Q 2766 1069 2766 1631 
L 2766 1759 
L 2194 1759 
z
M 3341 1997 
L 3341 0 
L 2766 0 
L 2766 531 
Q 2569 213 2275 61 
Q 1981 -91 1556 -91 
Q 1019 -91 701 211 
Q 384 513 384 1019 
Q 384 1609 779 1909 
Q 1175 2209 1959 2209 
L 2766 2209 
L 2766 2266 
Q 2766 2663 2505 2880 
Q 2244 3097 1772 3097 
Q 1472 3097 1187 3025 
Q 903 2953 641 2809 
L 641 3341 
Q 956 3463 1253 3523 
Q 1550 3584 1831 3584 
Q 2591 3584 2966 3190 
Q 3341 2797 3341 1997 
z
" transform="scale(0.015625)"/>
       <path id="DejaVuSans-63" d="M 3122 3366 
L 3122 2828 
Q 2878 2963 2633 3030 
Q 2388 3097 2138 3097 
Q 1578 3097 1268 2742 
Q 959 2388 959 1747 
Q 959 1106 1268 751 
Q 1578 397 2138 397 
Q 2388 397 2633 464 
Q 2878 531 3122 666 
L 3122 134 
Q 2881 22 2623 -34 
Q 2366 -91 2075 -91 
Q 1284 -91 818 406 
Q 353 903 353 1747 
Q 353 2603 823 3093 
Q 1294 3584 2113 3584 
Q 2378 3584 2631 3529 
Q 2884 3475 3122 3366 
z
" transform="scale(0.015625)"/>
       <path id="DejaVuSans-6e" d="M 3513 2113 
L 3513 0 
L 2938 0 
L 2938 2094 
Q 2938 2591 2744 2837 
Q 2550 3084 2163 3084 
Q 1697 3084 1428 2787 
Q 1159 2491 1159 1978 
L 1159 0 
L 581 0 
L 581 3500 
L 1159 3500 
L 1159 2956 
Q 1366 3272 1645 3428 
Q 1925 3584 2291 3584 
Q 2894 3584 3203 3211 
Q 3513 2838 3513 2113 
z
" transform="scale(0.015625)"/>
      </defs>
      <use xlink:href="#DejaVuSans-74"/>
      <use xlink:href="#DejaVuSans-69" x="39.208984"/>
      <use xlink:href="#DejaVuSans-70" x="66.992188"/>
      <use xlink:href="#DejaVuSans-20" x="130.46875"/>
      <use xlink:href="#DejaVuSans-64" x="162.255859"/>
      <use xlink:href="#DejaVuSans-69" x="225.732422"/>
      <use xlink:href="#DejaVuSans-73" x="253.515625"/>
      <use xlink:href="#DejaVuSans-70" x="305.615234"/>
      <use xlink:href="#DejaVuSans-6c" x="369.091797"/>
      <use xlink:href="#DejaVuSans-61" x="396.875"/>
      <use xlink:href="#DejaVuSans-63" x="458.154297"/>
      <use xlink:href="#DejaVuSans-65" x="513.134766"/>
      <use xlink:href="#DejaVuSans-6d" x="574.658203"/>
      <use xlink:href="#DejaVuSans-65" x="672.070312"/>
      <use xlink:href="#DejaVuSans-6e" x="733.59375"/>
      <use xlink:href="#DejaVuSans-74" x="796.972656"/>
     </g>
    </g>
   </g>
   <g id="line2d_12">
    <path d="M 97.963636 272.116364 
L 103.328 272.047067 
L 106.010182 271.844598 
L 108.692364 271.362041 
L 110.033455 270.970279 
L 111.374545 270.458656 
L 112.715636 269.813831 
L 114.056727 269.027507 
L 115.397818 268.096467 
L 116.738909 267.016549 
L 118.08 265.784755 
L 120.762182 262.854251 
L 123.444364 259.271258 
L 126.126545 254.976989 
L 128.808727 249.913081 
L 131.490909 244.050278 
L 134.173091 237.392886 
L 136.855273 229.980368 
L 139.537455 221.857978 
L 142.219636 213.072492 
L 144.901818 203.66566 
L 148.925091 188.512082 
L 152.948364 172.359312 
L 159.653818 144.27536 
L 166.359273 116.359777 
L 170.382545 100.44824 
L 174.405818 85.648071 
L 177.088 76.566496 
L 179.770182 68.200945 
L 182.452364 60.598285 
L 185.134545 53.785953 
L 187.816727 47.774002 
L 190.498909 42.555234 
L 193.181091 38.106541 
L 195.863273 34.385354 
L 198.545455 31.333387 
L 201.227636 28.880231 
L 203.909818 26.960956 
L 206.592 25.507828 
L 209.274182 24.460347 
L 211.956364 23.763896 
L 214.638545 23.370907 
L 217.320727 23.243636 
L 220.002909 23.353186 
L 222.685091 23.684134 
L 225.367273 24.227436 
L 228.049455 24.987366 
L 230.731636 25.970123 
L 233.413818 27.187022 
L 236.096 28.635427 
L 240.119273 31.161134 
L 256.212364 41.837452 
L 262.917818 45.980342 
L 268.282182 48.992816 
L 274.987636 52.486479 
L 281.693091 55.761338 
L 289.739636 59.417521 
L 303.150545 65.245927 
L 317.902545 71.361277 
L 327.290182 74.97689 
L 333.995636 77.354263 
L 340.701091 79.496861 
L 347.406545 81.37576 
L 352.770909 82.674905 
L 358.135273 83.790533 
L 364.840727 84.933824 
L 371.546182 85.817346 
L 378.251636 86.472527 
L 386.298182 87.006815 
L 395.685818 87.37028 
L 407.755636 87.576022 
L 429.213091 87.643911 
L 433.236364 87.646494 
L 433.236364 87.646494 
" clip-path="url(#p9b7cdcdf47)" style="fill: none; stroke: #005293; stroke-width: 1.5; stroke-linecap: square"/>
   </g>
   <g id="line2d_13">
    <path d="M 97.963636 272.116364 
L 99.917598 272.005556 
L 100.641784 271.724539 
L 101.281482 271.232915 
L 101.95873 270.412882 
L 102.725831 269.117901 
L 103.572056 267.231006 
L 104.426328 264.769506 
L 105.335584 261.42925 
L 106.397723 256.611903 
L 107.74015 249.435915 
L 109.246189 240.156582 
L 114.983353 203.331199 
L 116.197035 197.574733 
L 117.326229 193.251923 
L 118.275718 190.428436 
L 119.079028 188.686023 
L 119.819307 187.586455 
L 120.55154 186.878836 
L 121.321323 186.439611 
L 122.077696 186.254394 
L 122.902463 186.290121 
L 125.191696 186.544781 
L 125.879673 186.279 
L 126.598495 185.75751 
L 127.307929 184.960167 
L 128.016022 183.82039 
L 128.738867 182.211025 
L 129.554247 179.819421 
L 130.531899 176.208563 
L 131.67048 171.124789 
L 132.898915 164.589716 
L 134.573931 154.306115 
L 138.676311 128.845406 
L 139.817575 123.377121 
L 140.791203 119.724015 
L 141.599878 117.480799 
L 142.247622 116.280739 
L 142.785397 115.708956 
L 143.244049 115.521511 
L 143.683925 115.581375 
L 144.174762 115.88486 
L 144.770204 116.535183 
L 145.545351 117.742581 
L 146.604809 119.844687 
L 148.39784 123.401569 
L 149.142143 124.365841 
L 149.755019 124.823178 
L 150.306205 124.969456 
L 150.827887 124.880474 
L 151.348229 124.557955 
L 151.915508 123.929901 
L 152.549841 122.874556 
L 153.32633 121.110637 
L 154.380423 118.110845 
L 156.033982 112.66788 
L 159.149323 102.261778 
L 160.408603 99.047316 
L 161.572665 96.649919 
L 162.508743 95.199352 
L 163.428727 94.175656 
L 164.874417 92.961344 
L 168.882922 89.655675 
L 170.434558 87.72589 
L 172.691605 84.646295 
L 175.676862 80.349031 
L 180.278126 74.436131 
L 187.408678 65.796248 
L 189.1655 63.719823 
L 190.899524 61.718625 
L 193.151206 59.250564 
L 194.768555 57.485791 
L 197.201285 55.019657 
L 198.640269 53.570093 
L 201.406929 51.035873 
L 202.612565 49.982654 
L 205.273278 47.900836 
L 206.438682 47.005717 
L 211.121752 44.293562 
L 212.398466 43.785315 
L 214.483854 42.78242 
L 217.128475 42.168282 
L 218.072599 41.896665 
L 218.8397 41.925635 
L 220.33501 42.035688 
L 222.369437 41.882509 
L 223.308197 42.262833 
L 224.224158 42.539687 
L 225.287639 42.570245 
L 226.014507 42.714917 
L 226.695779 43.09612 
L 228.342632 44.116422 
L 230.238927 44.855668 
L 231.056989 45.668027 
L 232.117788 46.653771 
L 232.93585 47.077209 
L 233.896067 47.610841 
L 234.736928 48.390096 
L 235.70385 49.219048 
L 236.283199 49.418654 
L 237.052983 49.413477 
L 237.781192 49.488517 
L 238.375293 49.794039 
L 240.000689 50.774649 
L 240.593448 50.745598 
L 241.73203 50.643514 
L 242.259077 50.880765 
L 243.276961 51.672748 
L 243.876426 51.952648 
L 244.40079 51.94876 
L 245.866597 51.777222 
L 246.385597 52.079535 
L 247.898341 53.11839 
L 248.39052 53.081756 
L 249.825481 52.810581 
L 250.306931 53.086993 
L 251.9739 54.262946 
L 252.45535 54.167628 
L 253.691831 53.807081 
L 254.127684 54.006287 
L 254.719102 54.558755 
L 255.58142 55.318601 
L 256.022638 55.411153 
L 256.487994 55.267899 
L 257.607801 54.837406 
L 258.012809 54.987751 
L 258.50901 55.439427 
L 259.639545 56.533014 
L 260.047235 56.586696 
L 260.49784 56.403876 
L 261.553274 55.900494 
L 261.934143 56.018443 
L 262.376701 56.414347 
L 263.733879 57.797283 
L 264.113407 57.787897 
L 264.572058 57.527819 
L 265.459857 57.003358 
L 265.825973 57.066778 
L 266.216229 57.380454 
L 266.869337 58.258968 
L 267.510376 58.973482 
L 267.895268 59.097367 
L 268.261384 58.975183 
L 268.859508 58.484907 
L 269.418741 58.145359 
L 269.770106 58.180929 
L 270.130858 58.461145 
L 270.661927 59.205123 
L 271.469261 60.278853 
L 271.842083 60.430097 
L 272.182718 60.326108 
L 272.662827 59.906258 
L 273.373602 59.332481 
L 273.712897 59.33492 
L 274.046827 59.577397 
L 274.502796 60.226225 
L 275.505928 61.70142 
L 275.85327 61.821923 
L 276.176471 61.692497 
L 276.645851 61.21894 
L 277.352603 60.556031 
L 277.679828 60.538454 
L 277.99096 60.759809 
L 278.406696 61.370208 
L 279.556007 63.193864 
L 279.875185 63.269318 
L 280.186317 63.101298 
L 280.658379 62.543027 
L 281.330263 61.820467 
L 281.646759 61.780176 
L 281.939116 61.981329 
L 282.319984 62.553542 
L 283.620837 64.748897 
L 283.911853 64.764289 
L 284.21762 64.535985 
L 284.735279 63.805885 
L 285.318651 63.114719 
L 285.623078 63.05781 
L 285.898 63.244158 
L 286.252047 63.793036 
L 287.681644 66.345126 
L 287.94852 66.299928 
L 288.259652 65.988627 
L 288.906055 64.919599 
L 289.364706 64.399796 
L 289.644993 64.373681 
L 289.910528 64.592399 
L 290.265916 65.219384 
L 291.627118 67.948254 
L 291.884606 67.933428 
L 292.164893 67.6644 
L 292.624885 66.848117 
L 293.282017 65.784836 
L 293.574374 65.676512 
L 293.818451 65.828421 
L 294.126901 66.325258 
L 294.639196 67.65815 
L 295.344607 69.344463 
L 295.665126 69.61878 
L 295.902498 69.55625 
L 296.185467 69.212195 
L 296.687033 68.168469 
L 297.271747 67.124344 
L 297.558739 66.993564 
L 297.789406 67.134474 
L 298.080421 67.617527 
L 298.545778 68.901865 
L 299.337019 71.013104 
L 299.64815 71.296472 
L 299.873453 71.230897 
L 300.14167 70.879681 
L 300.594957 69.841756 
L 301.25343 68.457465 
L 301.53774 68.292234 
L 301.756337 68.416423 
L 302.029918 68.87525 
L 302.45236 70.095373 
L 303.35357 72.730926 
L 303.645926 72.98553 
L 303.857818 72.903398 
L 304.11933 72.516752 
L 304.560547 71.384663 
L 305.243159 69.748669 
L 305.524787 69.554841 
L 305.731314 69.668168 
L 305.990144 70.113707 
L 306.385764 71.316122 
L 307.374144 74.450404 
L 307.647726 74.666336 
L 307.847547 74.560711 
L 308.106377 74.121075 
L 308.546253 72.845796 
L 309.230207 70.990875 
L 309.510493 70.761126 
L 309.707633 70.864098 
L 309.951711 71.293487 
L 310.32185 72.47125 
L 311.402765 76.159584 
L 311.652207 76.320199 
L 311.843982 76.182407 
L 312.104153 75.665113 
L 312.558781 74.161142 
L 313.217254 72.162249 
L 313.4962 71.893105 
L 313.683952 71.983991 
L 313.914618 72.396539 
L 314.263301 73.554608 
L 315.438092 77.836046 
L 315.662053 77.929803 
L 315.848464 77.746157 
L 316.116681 77.108577 
L 316.6102 75.228916 
L 317.206983 73.240769 
L 317.484588 72.932688 
L 317.662952 73.014106 
L 317.882891 73.417223 
L 318.214139 74.56952 
L 319.470736 79.450659 
L 319.669216 79.481903 
L 319.856968 79.238431 
L 320.137255 78.440076 
L 320.703193 75.969718 
L 321.220852 74.163129 
L 321.487728 73.863401 
L 321.658046 73.955666 
L 321.873961 74.38972 
L 322.201186 75.632093 
L 323.456442 80.95655 
L 323.648217 80.987542 
L 323.827923 80.737589 
L 324.098822 79.906191 
L 324.612458 77.437982 
L 325.187783 75.071768 
L 325.464047 74.680248 
L 325.62766 74.749198 
L 325.828822 75.14336 
L 326.133249 76.31575 
L 326.767582 79.909708 
L 327.263784 82.067789 
L 327.527978 82.450658 
L 327.683544 82.3736 
L 327.883365 81.953527 
L 328.197179 80.681044 
L 329.361242 75.438971 
L 329.554358 75.382285 
L 329.721994 75.61634 
L 329.971436 76.424415 
L 330.375102 78.62243 
L 331.241444 83.387136 
L 331.506979 83.821501 
L 331.65718 83.748772 
L 331.847614 83.330892 
L 332.148017 82.035888 
L 333.396568 75.953959 
L 333.565545 75.953453 
L 333.735863 76.249786 
L 333.994692 77.230885 
L 334.426522 79.902877 
L 335.201669 84.570311 
L 335.476592 85.11981 
L 335.62277 85.067473 
L 335.799793 84.684676 
L 336.078739 83.454304 
L 336.643336 79.682361 
L 337.169042 76.847535 
L 337.4386 76.343213 
L 337.583437 76.406089 
L 337.763143 76.810368 
L 338.040747 78.080786 
L 338.535608 81.612057 
L 339.173965 85.708924 
L 339.45291 86.353458 
L 339.596407 86.312999 
L 339.764042 85.943868 
L 340.029577 84.720746 
L 340.523097 81.157818 
L 341.130608 77.292538 
L 341.410895 76.63886 
L 341.557074 76.675497 
L 341.724709 77.041018 
L 341.98488 78.241436 
L 342.423415 81.513086 
L 343.1704 86.873221 
L 343.443981 87.536032 
L 343.580772 87.488084 
L 343.745725 87.092094 
L 344.008578 85.771583 
L 344.490028 81.960269 
L 345.116315 77.528845 
L 345.397943 76.794204 
L 345.541439 76.824079 
L 345.702369 77.187251 
L 345.954493 78.408345 
L 346.372912 81.738958 
L 347.170858 88.002395 
L 347.436393 88.66723 
L 347.565137 88.61209 
L 347.726067 88.195138 
L 347.983556 86.797784 
L 348.448912 82.782244 
L 349.102021 77.642087 
L 349.38499 76.819637 
L 349.521781 76.837078 
L 349.525804 76.841785 
L 349.680029 77.200378 
L 349.924106 78.437604 
L 350.32375 81.820931 
L 351.178021 89.11921 
L 351.434169 89.757689 
L 351.553525 89.6885 
L 351.713114 89.231312 
L 351.970603 87.694301 
L 352.43596 83.280481 
L 353.089068 77.630425 
L 353.373378 76.716981 
L 353.498099 76.718117 
L 353.512851 76.734862 
L 353.663053 77.102888 
L 353.901766 78.38749 
L 354.28934 81.902499 
L 355.182503 90.19282 
L 355.429263 90.813033 
L 355.541914 90.732081 
L 355.700162 90.233658 
L 355.956309 88.560086 
L 356.418984 83.752121 
L 357.076116 77.504467 
L 357.361767 76.491699 
L 357.4771 76.479247 
L 357.499899 76.50443 
L 357.646077 76.880242 
L 357.880767 78.219589 
L 358.258953 81.895333 
L 359.186984 91.244326 
L 359.425697 91.844762 
L 359.531643 91.751114 
L 359.689891 91.200497 
L 359.94738 89.347714 
L 360.412736 84.0357 
L 361.063163 77.270538 
L 361.348814 76.149677 
L 361.457442 76.12218 
L 361.485605 76.151813 
L 361.625078 76.519378 
L 361.851721 77.863908 
L 362.213814 81.578 
L 363.2089 92.366306 
L 363.430179 92.862528 
L 363.532101 92.734144 
L 363.697055 92.055173 
L 363.965272 89.833341 
L 364.476226 83.297282 
L 365.059598 76.868772 
L 365.342567 75.684406 
L 365.444489 75.654862 
L 365.476675 75.690183 
L 365.614807 76.082667 
L 365.84011 77.522948 
L 366.198179 81.491434 
L 367.209358 93.385385 
L 367.422591 93.876563 
L 367.425273 93.875899 
L 367.524513 93.730731 
L 367.689467 92.980214 
L 367.957684 90.539482 
L 368.474002 83.307543 
L 369.050668 76.40011 
L 369.333637 75.111708 
L 369.430196 75.073913 
L 369.466405 75.113557 
L 369.601855 75.519685 
L 369.823134 77.021012 
L 370.174498 81.184741 
L 371.219204 94.454094 
L 371.41232 94.898187 
L 371.42439 94.893929 
L 371.522289 94.719255 
L 371.691266 93.843828 
L 371.966188 91.03436 
L 372.521398 82.455626 
L 373.05515 75.728586 
L 373.332755 74.419258 
L 373.421266 74.387155 
L 373.458817 74.43081 
L 373.591584 74.856003 
L 373.811522 76.451117 
L 374.158863 80.875183 
L 375.225026 95.517138 
L 375.404732 95.934502 
L 375.423507 95.925503 
L 375.522747 95.711885 
L 375.695747 94.688156 
L 375.977375 91.455257 
L 376.596957 80.953866 
L 377.077065 74.81257 
L 377.3426 73.608686 
L 377.420383 73.600228 
L 377.455251 73.647631 
L 377.58936 74.122267 
L 377.810639 75.878201 
L 378.159321 80.718704 
L 379.217438 96.531521 
L 379.397143 96.994279 
L 379.415919 96.985336 
L 379.511136 96.772276 
L 379.680112 95.720247 
L 379.956376 92.345121 
L 380.523655 81.918551 
L 381.042655 74.271314 
L 381.32026 72.739674 
L 381.402066 72.695282 
L 381.444981 72.747072 
L 381.573725 73.209495 
L 381.788299 74.965761 
L 382.124911 79.859799 
L 383.250082 97.772204 
L 383.393578 98.083191 
L 383.425764 98.058096 
L 383.53171 97.730073 
L 383.718121 96.268301 
L 384.021206 91.81833 
L 385.226842 72.031189 
L 385.383749 71.693612 
L 385.411912 71.711477 
L 385.516517 71.985797 
L 385.698904 73.230439 
L 385.984556 76.972738 
L 386.490145 87.149445 
L 387.080222 97.56244 
L 387.344416 99.180584 
L 387.403424 99.201631 
L 387.446339 99.136985 
L 387.57106 98.570225 
L 387.784292 96.359177 
L 388.135657 89.980738 
L 389.082463 71.969884 
L 389.338611 70.620564 
L 389.401642 70.611208 
L 389.440533 70.669241 
L 389.569277 71.20525 
L 389.783851 73.232132 
L 390.11644 78.825374 
L 391.26575 100.103524 
L 391.387789 100.373391 
L 391.428022 100.333214 
L 391.53665 99.905838 
L 391.728425 98.055317 
L 392.039557 92.51771 
L 393.183503 70.040897 
L 393.379301 69.413138 
L 393.39003 69.41688 
L 393.475859 69.588757 
L 393.631425 70.534445 
L 393.879526 73.648229 
L 394.269782 81.805757 
L 395.133441 100.2551 
L 395.370813 101.579094 
L 395.427139 101.542859 
L 395.447255 101.496955 
L 395.570635 100.839707 
L 395.782527 98.273843 
L 396.131209 90.86846 
L 397.076674 69.782217 
L 397.335504 68.167309 
L 397.394511 68.142372 
L 397.440108 68.210258 
L 397.564829 68.780011 
L 397.77538 70.980539 
L 398.09724 77.047217 
L 399.314946 102.716321 
L 399.39407 102.837596 
L 399.44369 102.76571 
L 399.560365 102.150589 
L 399.762868 99.659782 
L 400.094117 92.358607 
L 401.117365 68.129321 
L 401.360101 66.784489 
L 401.413745 66.796958 
L 401.445931 66.857879 
L 401.571993 67.478202 
L 401.783884 69.853395 
L 402.105745 76.360894 
L 403.327474 104.032066 
L 403.399892 104.141358 
L 403.450854 104.061345 
L 403.567528 103.393912 
L 403.771373 100.67865 
L 404.103962 92.741414 
L 405.1138 66.890325 
L 405.36056 65.353061 
L 405.41018 65.347617 
L 405.450412 65.417114 
L 405.573792 66.038498 
L 405.78166 68.44314 
L 406.095474 75.048736 
L 406.757971 95.242473 
L 407.179072 104.157561 
L 407.403033 105.494996 
L 407.467405 105.384299 
L 407.590785 104.556476 
L 407.802676 101.3377 
L 408.150017 92.076303 
L 409.082072 66.007882 
L 409.347607 63.882863 
L 409.409297 63.830491 
L 409.457576 63.903975 
L 409.578274 64.521874 
L 409.782119 66.941719 
L 410.089227 73.643859 
L 410.649801 91.944931 
L 411.14332 104.784133 
L 411.391421 106.879058 
L 411.428972 106.890816 
L 411.471886 106.804907 
L 411.58722 106.053643 
L 411.788383 103.00132 
L 412.115607 94.067105 
L 413.137515 63.978124 
L 413.382933 62.272972 
L 413.42853 62.261233 
L 413.471445 62.335921 
L 413.592143 62.986183 
L 413.795988 65.52891 
L 414.100414 72.528238 
L 414.631484 91.0203 
L 415.149143 105.911051 
L 415.401267 108.316061 
L 415.440158 108.342218 
L 415.488438 108.245168 
L 415.603771 107.438099 
L 415.806275 104.138654 
L 416.1335 94.544198 
L 417.14736 62.529713 
L 417.395461 60.651534 
L 417.442399 60.630738 
L 417.487996 60.710066 
L 417.608694 61.386994 
L 417.812539 64.040029 
L 418.114283 71.310563 
L 418.619872 90.006046 
L 419.161671 107.102725 
L 419.417818 109.801152 
L 419.458051 109.836817 
L 419.507671 109.734458 
L 419.623004 108.878424 
L 419.824167 105.398942 
L 420.14871 95.278304 
L 421.167935 60.944312 
L 421.416036 58.977806 
L 421.461633 58.954895 
L 421.508571 59.037887 
L 421.627927 59.728713 
L 421.830431 62.449562 
L 422.128152 69.895955 
L 422.604237 88.44849 
L 423.180904 108.363228 
L 423.438393 111.327394 
L 423.481307 111.374013 
L 423.530928 111.267598 
L 423.64492 110.378917 
L 423.844742 106.738694 
L 424.166602 96.11569 
L 425.195215 59.279965 
L 425.441974 57.263627 
L 425.48623 57.241416 
L 425.533168 57.326691 
L 425.652525 58.039971 
L 425.855029 60.855401 
L 426.150068 68.526931 
L 426.606037 87.235425 
L 427.209525 109.753287 
L 427.467014 112.902072 
L 427.508587 112.951351 
L 427.559549 112.837172 
L 427.673541 111.893614 
L 427.873363 108.032312 
L 428.193882 96.797682 
L 429.221154 57.669442 
L 429.469254 55.525065 
L 429.51351 55.497185 
L 429.561789 55.584042 
L 429.679805 56.302169 
L 429.880968 59.15844 
L 430.171983 66.937094 
L 430.606495 85.549795 
L 431.246193 111.251628 
L 431.500999 114.515341 
L 431.541232 114.565492 
L 431.592193 114.447113 
L 431.706185 113.45517 
L 431.906007 109.382289 
L 432.223844 97.607108 
L 433.236364 56.30168 
L 433.236364 56.30168 
" clip-path="url(#p9b7cdcdf47)" style="fill: none; stroke: #e37222; stroke-width: 1.5; stroke-linecap: square"/>
   </g>
   <g id="patch_3">
    <path d="M 81.2 284.56 
L 81.2 10.8 
" style="fill: none; stroke: #000000; stroke-width: 0.8; stroke-linejoin: miter; stroke-linecap: square"/>
   </g>
   <g id="patch_4">
    <path d="M 450 284.56 
L 450 10.8 
" style="fill: none; stroke: #000000; stroke-width: 0.8; stroke-linejoin: miter; stroke-linecap: square"/>
   </g>
   <g id="patch_5">
    <path d="M 81.2 284.56 
L 450 284.56 
" style="fill: none; stroke: #000000; stroke-width: 0.8; stroke-linejoin: miter; stroke-linecap: square"/>
   </g>
   <g id="patch_6">
    <path d="M 81.2 10.8 
L 450 10.8 
" style="fill: none; stroke: #000000; stroke-width: 0.8; stroke-linejoin: miter; stroke-linecap: square"/>
   </g>
   <g id="legend_1">
    <g id="patch_7">
     <path d="M 120.72 276.56 
L 438.8 276.56 
Q 442 276.56 442 273.36 
L 442 227.92 
Q 442 224.72 438.8 224.72 
L 120.72 224.72 
Q 117.52 224.72 117.52 227.92 
L 117.52 273.36 
Q 117.52 276.56 120.72 276.56 
z
" style="fill: #ffffff; opacity: 0.8; stroke: #cccccc; stroke-linejoin: miter"/>
    </g>
    <g id="line2d_14">
     <path d="M 123.92 237.68 
L 139.92 237.68 
L 155.92 237.68 
" style="fill: none; stroke: #005293; stroke-width: 1.5; stroke-linecap: square"/>
    </g>
    <g id="text_14">
     <!-- displacement criterion, $\Delta$t = 1e-1 -->
     <g transform="translate(168.72 243.28) scale(0.16 -0.16)">
      <defs>
       <path id="DejaVuSans-72" d="M 2631 2963 
Q 2534 3019 2420 3045 
Q 2306 3072 2169 3072 
Q 1681 3072 1420 2755 
Q 1159 2438 1159 1844 
L 1159 0 
L 581 0 
L 581 3500 
L 1159 3500 
L 1159 2956 
Q 1341 3275 1631 3429 
Q 1922 3584 2338 3584 
Q 2397 3584 2469 3576 
Q 2541 3569 2628 3553 
L 2631 2963 
z
" transform="scale(0.015625)"/>
       <path id="DejaVuSans-6f" d="M 1959 3097 
Q 1497 3097 1228 2736 
Q 959 2375 959 1747 
Q 959 1119 1226 758 
Q 1494 397 1959 397 
Q 2419 397 2687 759 
Q 2956 1122 2956 1747 
Q 2956 2369 2687 2733 
Q 2419 3097 1959 3097 
z
M 1959 3584 
Q 2709 3584 3137 3096 
Q 3566 2609 3566 1747 
Q 3566 888 3137 398 
Q 2709 -91 1959 -91 
Q 1206 -91 779 398 
Q 353 888 353 1747 
Q 353 2609 779 3096 
Q 1206 3584 1959 3584 
z
" transform="scale(0.015625)"/>
       <path id="DejaVuSans-2c" d="M 750 794 
L 1409 794 
L 1409 256 
L 897 -744 
L 494 -744 
L 750 256 
L 750 794 
z
" transform="scale(0.015625)"/>
       <path id="DejaVuSans-394" d="M 2188 4044 
L 906 525 
L 3472 525 
L 2188 4044 
z
M 50 0 
L 1831 4666 
L 2547 4666 
L 4325 0 
L 50 0 
z
" transform="scale(0.015625)"/>
       <path id="DejaVuSans-3d" d="M 678 2906 
L 4684 2906 
L 4684 2381 
L 678 2381 
L 678 2906 
z
M 678 1631 
L 4684 1631 
L 4684 1100 
L 678 1100 
L 678 1631 
z
" transform="scale(0.015625)"/>
       <path id="DejaVuSans-2d" d="M 313 2009 
L 1997 2009 
L 1997 1497 
L 313 1497 
L 313 2009 
z
" transform="scale(0.015625)"/>
      </defs>
      <use xlink:href="#DejaVuSans-64" transform="translate(0 0.015625)"/>
      <use xlink:href="#DejaVuSans-69" transform="translate(63.476562 0.015625)"/>
      <use xlink:href="#DejaVuSans-73" transform="translate(91.259766 0.015625)"/>
      <use xlink:href="#DejaVuSans-70" transform="translate(143.359375 0.015625)"/>
      <use xlink:href="#DejaVuSans-6c" transform="translate(206.835938 0.015625)"/>
      <use xlink:href="#DejaVuSans-61" transform="translate(234.619141 0.015625)"/>
      <use xlink:href="#DejaVuSans-63" transform="translate(295.898438 0.015625)"/>
      <use xlink:href="#DejaVuSans-65" transform="translate(350.878906 0.015625)"/>
      <use xlink:href="#DejaVuSans-6d" transform="translate(412.402344 0.015625)"/>
      <use xlink:href="#DejaVuSans-65" transform="translate(509.814453 0.015625)"/>
      <use xlink:href="#DejaVuSans-6e" transform="translate(571.337891 0.015625)"/>
      <use xlink:href="#DejaVuSans-74" transform="translate(634.716797 0.015625)"/>
      <use xlink:href="#DejaVuSans-20" transform="translate(673.925781 0.015625)"/>
      <use xlink:href="#DejaVuSans-63" transform="translate(705.712891 0.015625)"/>
      <use xlink:href="#DejaVuSans-72" transform="translate(760.693359 0.015625)"/>
      <use xlink:href="#DejaVuSans-69" transform="translate(801.806641 0.015625)"/>
      <use xlink:href="#DejaVuSans-74" transform="translate(829.589844 0.015625)"/>
      <use xlink:href="#DejaVuSans-65" transform="translate(868.798828 0.015625)"/>
      <use xlink:href="#DejaVuSans-72" transform="translate(930.322266 0.015625)"/>
      <use xlink:href="#DejaVuSans-69" transform="translate(971.435547 0.015625)"/>
      <use xlink:href="#DejaVuSans-6f" transform="translate(999.21875 0.015625)"/>
      <use xlink:href="#DejaVuSans-6e" transform="translate(1060.400391 0.015625)"/>
      <use xlink:href="#DejaVuSans-2c" transform="translate(1123.779297 0.015625)"/>
      <use xlink:href="#DejaVuSans-20" transform="translate(1155.566406 0.015625)"/>
      <use xlink:href="#DejaVuSans-394" transform="translate(1187.353516 0.015625)"/>
      <use xlink:href="#DejaVuSans-74" transform="translate(1255.761719 0.015625)"/>
      <use xlink:href="#DejaVuSans-20" transform="translate(1294.970703 0.015625)"/>
      <use xlink:href="#DejaVuSans-3d" transform="translate(1326.757812 0.015625)"/>
      <use xlink:href="#DejaVuSans-20" transform="translate(1410.546875 0.015625)"/>
      <use xlink:href="#DejaVuSans-31" transform="translate(1442.333984 0.015625)"/>
      <use xlink:href="#DejaVuSans-65" transform="translate(1505.957031 0.015625)"/>
      <use xlink:href="#DejaVuSans-2d" transform="translate(1567.480469 0.015625)"/>
      <use xlink:href="#DejaVuSans-31" transform="translate(1603.564453 0.015625)"/>
     </g>
    </g>
    <g id="line2d_15">
     <path d="M 123.92 261.2 
L 139.92 261.2 
L 155.92 261.2 
" style="fill: none; stroke: #e37222; stroke-width: 1.5; stroke-linecap: square"/>
    </g>
    <g id="text_15">
     <!-- explicit physical, $\Delta$t = 5e-3 -->
     <g transform="translate(168.72 266.8) scale(0.16 -0.16)">
      <defs>
       <path id="DejaVuSans-78" d="M 3513 3500 
L 2247 1797 
L 3578 0 
L 2900 0 
L 1881 1375 
L 863 0 
L 184 0 
L 1544 1831 
L 300 3500 
L 978 3500 
L 1906 2253 
L 2834 3500 
L 3513 3500 
z
" transform="scale(0.015625)"/>
       <path id="DejaVuSans-68" d="M 3513 2113 
L 3513 0 
L 2938 0 
L 2938 2094 
Q 2938 2591 2744 2837 
Q 2550 3084 2163 3084 
Q 1697 3084 1428 2787 
Q 1159 2491 1159 1978 
L 1159 0 
L 581 0 
L 581 4863 
L 1159 4863 
L 1159 2956 
Q 1366 3272 1645 3428 
Q 1925 3584 2291 3584 
Q 2894 3584 3203 3211 
Q 3513 2838 3513 2113 
z
" transform="scale(0.015625)"/>
       <path id="DejaVuSans-79" d="M 2059 -325 
Q 1816 -950 1584 -1140 
Q 1353 -1331 966 -1331 
L 506 -1331 
L 506 -850 
L 844 -850 
Q 1081 -850 1212 -737 
Q 1344 -625 1503 -206 
L 1606 56 
L 191 3500 
L 800 3500 
L 1894 763 
L 2988 3500 
L 3597 3500 
L 2059 -325 
z
" transform="scale(0.015625)"/>
       <path id="DejaVuSans-33" d="M 2597 2516 
Q 3050 2419 3304 2112 
Q 3559 1806 3559 1356 
Q 3559 666 3084 287 
Q 2609 -91 1734 -91 
Q 1441 -91 1130 -33 
Q 819 25 488 141 
L 488 750 
Q 750 597 1062 519 
Q 1375 441 1716 441 
Q 2309 441 2620 675 
Q 2931 909 2931 1356 
Q 2931 1769 2642 2001 
Q 2353 2234 1838 2234 
L 1294 2234 
L 1294 2753 
L 1863 2753 
Q 2328 2753 2575 2939 
Q 2822 3125 2822 3475 
Q 2822 3834 2567 4026 
Q 2313 4219 1838 4219 
Q 1578 4219 1281 4162 
Q 984 4106 628 3988 
L 628 4550 
Q 988 4650 1302 4700 
Q 1616 4750 1894 4750 
Q 2613 4750 3031 4423 
Q 3450 4097 3450 3541 
Q 3450 3153 3228 2886 
Q 3006 2619 2597 2516 
z
" transform="scale(0.015625)"/>
      </defs>
      <use xlink:href="#DejaVuSans-65" transform="translate(0 0.015625)"/>
      <use xlink:href="#DejaVuSans-78" transform="translate(61.523438 0.015625)"/>
      <use xlink:href="#DejaVuSans-70" transform="translate(120.703125 0.015625)"/>
      <use xlink:href="#DejaVuSans-6c" transform="translate(184.179688 0.015625)"/>
      <use xlink:href="#DejaVuSans-69" transform="translate(211.962891 0.015625)"/>
      <use xlink:href="#DejaVuSans-63" transform="translate(239.746094 0.015625)"/>
      <use xlink:href="#DejaVuSans-69" transform="translate(294.726562 0.015625)"/>
      <use xlink:href="#DejaVuSans-74" transform="translate(322.509766 0.015625)"/>
      <use xlink:href="#DejaVuSans-20" transform="translate(361.71875 0.015625)"/>
      <use xlink:href="#DejaVuSans-70" transform="translate(393.505859 0.015625)"/>
      <use xlink:href="#DejaVuSans-68" transform="translate(456.982422 0.015625)"/>
      <use xlink:href="#DejaVuSans-79" transform="translate(520.361328 0.015625)"/>
      <use xlink:href="#DejaVuSans-73" transform="translate(579.541016 0.015625)"/>
      <use xlink:href="#DejaVuSans-69" transform="translate(631.640625 0.015625)"/>
      <use xlink:href="#DejaVuSans-63" transform="translate(659.423828 0.015625)"/>
      <use xlink:href="#DejaVuSans-61" transform="translate(714.404297 0.015625)"/>
      <use xlink:href="#DejaVuSans-6c" transform="translate(775.683594 0.015625)"/>
      <use xlink:href="#DejaVuSans-2c" transform="translate(803.466797 0.015625)"/>
      <use xlink:href="#DejaVuSans-20" transform="translate(835.253906 0.015625)"/>
      <use xlink:href="#DejaVuSans-394" transform="translate(867.041016 0.015625)"/>
      <use xlink:href="#DejaVuSans-74" transform="translate(935.449219 0.015625)"/>
      <use xlink:href="#DejaVuSans-20" transform="translate(974.658203 0.015625)"/>
      <use xlink:href="#DejaVuSans-3d" transform="translate(1006.445312 0.015625)"/>
      <use xlink:href="#DejaVuSans-20" transform="translate(1090.234375 0.015625)"/>
      <use xlink:href="#DejaVuSans-35" transform="translate(1122.021484 0.015625)"/>
      <use xlink:href="#DejaVuSans-65" transform="translate(1185.644531 0.015625)"/>
      <use xlink:href="#DejaVuSans-2d" transform="translate(1247.167969 0.015625)"/>
      <use xlink:href="#DejaVuSans-33" transform="translate(1283.251953 0.015625)"/>
     </g>
    </g>
   </g>
  </g>
 </g>
 <defs>
  <clipPath id="p9b7cdcdf47">
   <rect x="81.2" y="10.8" width="368.8" height="273.76"/>
  </clipPath>
 </defs>
</svg>
