<?xml version="1.0" encoding="utf-8" standalone="no"?>
<!DOCTYPE svg PUBLIC "-//W3C//DTD SVG 1.1//EN"
  "http://www.w3.org/Graphics/SVG/1.1/DTD/svg11.dtd">
<svg xmlns:xlink="http://www.w3.org/1999/xlink" width="460.8pt" height="345.6pt" viewBox="0 0 460.8 345.6" xmlns="http://www.w3.org/2000/svg" version="1.1">
 <metadata>
  <rdf:RDF xmlns:dc="http://purl.org/dc/elements/1.1/" xmlns:cc="http://creativecommons.org/ns#" xmlns:rdf="http://www.w3.org/1999/02/22-rdf-syntax-ns#">
   <cc:Work>
    <dc:type rdf:resource="http://purl.org/dc/dcmitype/StillImage"/>
    <dc:date>2023-09-09T16:42:38.661939</dc:date>
    <dc:format>image/svg+xml</dc:format>
    <dc:creator>
     <cc:Agent>
      <dc:title>Matplotlib v3.6.1, https://matplotlib.org/</dc:title>
     </cc:Agent>
    </dc:creator>
   </cc:Work>
  </rdf:RDF>
 </metadata>
 <defs>
  <style type="text/css">*{stroke-linejoin: round; stroke-linecap: butt}</style>
 </defs>
 <g id="figure_1">
  <g id="patch_1">
   <path d="M 0 345.6 
L 460.8 345.6 
L 460.8 0 
L 0 0 
z
" style="fill: #ffffff"/>
  </g>
  <g id="axes_1">
   <g id="patch_2">
    <path d="M 55.82 285.64 
L 450 285.64 
L 450 10.8 
L 55.82 10.8 
z
" style="fill: #ffffff"/>
   </g>
   <g id="matplotlib.axis_1">
    <g id="xtick_1">
     <g id="line2d_1">
      <defs>
       <path id="mb4f40420df" d="M 0 0 
L 0 3.5 
" style="stroke: #000000; stroke-width: 0.8"/>
      </defs>
      <g>
       <use xlink:href="#mb4f40420df" x="73.737273" y="285.64" style="stroke: #000000; stroke-width: 0.8"/>
      </g>
     </g>
     <g id="text_1">
      <!-- 0.0 -->
      <g transform="translate(61.014773 304.7975) scale(0.16 -0.16)">
       <defs>
        <path id="DejaVuSans-30" d="M 2034 4250 
Q 1547 4250 1301 3770 
Q 1056 3291 1056 2328 
Q 1056 1369 1301 889 
Q 1547 409 2034 409 
Q 2525 409 2770 889 
Q 3016 1369 3016 2328 
Q 3016 3291 2770 3770 
Q 2525 4250 2034 4250 
z
M 2034 4750 
Q 2819 4750 3233 4129 
Q 3647 3509 3647 2328 
Q 3647 1150 3233 529 
Q 2819 -91 2034 -91 
Q 1250 -91 836 529 
Q 422 1150 422 2328 
Q 422 3509 836 4129 
Q 1250 4750 2034 4750 
z
" transform="scale(0.015625)"/>
        <path id="DejaVuSans-2e" d="M 684 794 
L 1344 794 
L 1344 0 
L 684 0 
L 684 794 
z
" transform="scale(0.015625)"/>
       </defs>
       <use xlink:href="#DejaVuSans-30"/>
       <use xlink:href="#DejaVuSans-2e" x="63.623047"/>
       <use xlink:href="#DejaVuSans-30" x="95.410156"/>
      </g>
     </g>
    </g>
    <g id="xtick_2">
     <g id="line2d_2">
      <g>
       <use xlink:href="#mb4f40420df" x="145.406364" y="285.64" style="stroke: #000000; stroke-width: 0.8"/>
      </g>
     </g>
     <g id="text_2">
      <!-- 0.2 -->
      <g transform="translate(132.683864 304.7975) scale(0.16 -0.16)">
       <defs>
        <path id="DejaVuSans-32" d="M 1228 531 
L 3431 531 
L 3431 0 
L 469 0 
L 469 531 
Q 828 903 1448 1529 
Q 2069 2156 2228 2338 
Q 2531 2678 2651 2914 
Q 2772 3150 2772 3378 
Q 2772 3750 2511 3984 
Q 2250 4219 1831 4219 
Q 1534 4219 1204 4116 
Q 875 4013 500 3803 
L 500 4441 
Q 881 4594 1212 4672 
Q 1544 4750 1819 4750 
Q 2544 4750 2975 4387 
Q 3406 4025 3406 3419 
Q 3406 3131 3298 2873 
Q 3191 2616 2906 2266 
Q 2828 2175 2409 1742 
Q 1991 1309 1228 531 
z
" transform="scale(0.015625)"/>
       </defs>
       <use xlink:href="#DejaVuSans-30"/>
       <use xlink:href="#DejaVuSans-2e" x="63.623047"/>
       <use xlink:href="#DejaVuSans-32" x="95.410156"/>
      </g>
     </g>
    </g>
    <g id="xtick_3">
     <g id="line2d_3">
      <g>
       <use xlink:href="#mb4f40420df" x="217.075455" y="285.64" style="stroke: #000000; stroke-width: 0.8"/>
      </g>
     </g>
     <g id="text_3">
      <!-- 0.4 -->
      <g transform="translate(204.352955 304.7975) scale(0.16 -0.16)">
       <defs>
        <path id="DejaVuSans-34" d="M 2419 4116 
L 825 1625 
L 2419 1625 
L 2419 4116 
z
M 2253 4666 
L 3047 4666 
L 3047 1625 
L 3713 1625 
L 3713 1100 
L 3047 1100 
L 3047 0 
L 2419 0 
L 2419 1100 
L 313 1100 
L 313 1709 
L 2253 4666 
z
" transform="scale(0.015625)"/>
       </defs>
       <use xlink:href="#DejaVuSans-30"/>
       <use xlink:href="#DejaVuSans-2e" x="63.623047"/>
       <use xlink:href="#DejaVuSans-34" x="95.410156"/>
      </g>
     </g>
    </g>
    <g id="xtick_4">
     <g id="line2d_4">
      <g>
       <use xlink:href="#mb4f40420df" x="288.744545" y="285.64" style="stroke: #000000; stroke-width: 0.8"/>
      </g>
     </g>
     <g id="text_4">
      <!-- 0.6 -->
      <g transform="translate(276.022045 304.7975) scale(0.16 -0.16)">
       <defs>
        <path id="DejaVuSans-36" d="M 2113 2584 
Q 1688 2584 1439 2293 
Q 1191 2003 1191 1497 
Q 1191 994 1439 701 
Q 1688 409 2113 409 
Q 2538 409 2786 701 
Q 3034 994 3034 1497 
Q 3034 2003 2786 2293 
Q 2538 2584 2113 2584 
z
M 3366 4563 
L 3366 3988 
Q 3128 4100 2886 4159 
Q 2644 4219 2406 4219 
Q 1781 4219 1451 3797 
Q 1122 3375 1075 2522 
Q 1259 2794 1537 2939 
Q 1816 3084 2150 3084 
Q 2853 3084 3261 2657 
Q 3669 2231 3669 1497 
Q 3669 778 3244 343 
Q 2819 -91 2113 -91 
Q 1303 -91 875 529 
Q 447 1150 447 2328 
Q 447 3434 972 4092 
Q 1497 4750 2381 4750 
Q 2619 4750 2861 4703 
Q 3103 4656 3366 4563 
z
" transform="scale(0.015625)"/>
       </defs>
       <use xlink:href="#DejaVuSans-30"/>
       <use xlink:href="#DejaVuSans-2e" x="63.623047"/>
       <use xlink:href="#DejaVuSans-36" x="95.410156"/>
      </g>
     </g>
    </g>
    <g id="xtick_5">
     <g id="line2d_5">
      <g>
       <use xlink:href="#mb4f40420df" x="360.413636" y="285.64" style="stroke: #000000; stroke-width: 0.8"/>
      </g>
     </g>
     <g id="text_5">
      <!-- 0.8 -->
      <g transform="translate(347.691136 304.7975) scale(0.16 -0.16)">
       <defs>
        <path id="DejaVuSans-38" d="M 2034 2216 
Q 1584 2216 1326 1975 
Q 1069 1734 1069 1313 
Q 1069 891 1326 650 
Q 1584 409 2034 409 
Q 2484 409 2743 651 
Q 3003 894 3003 1313 
Q 3003 1734 2745 1975 
Q 2488 2216 2034 2216 
z
M 1403 2484 
Q 997 2584 770 2862 
Q 544 3141 544 3541 
Q 544 4100 942 4425 
Q 1341 4750 2034 4750 
Q 2731 4750 3128 4425 
Q 3525 4100 3525 3541 
Q 3525 3141 3298 2862 
Q 3072 2584 2669 2484 
Q 3125 2378 3379 2068 
Q 3634 1759 3634 1313 
Q 3634 634 3220 271 
Q 2806 -91 2034 -91 
Q 1263 -91 848 271 
Q 434 634 434 1313 
Q 434 1759 690 2068 
Q 947 2378 1403 2484 
z
M 1172 3481 
Q 1172 3119 1398 2916 
Q 1625 2713 2034 2713 
Q 2441 2713 2670 2916 
Q 2900 3119 2900 3481 
Q 2900 3844 2670 4047 
Q 2441 4250 2034 4250 
Q 1625 4250 1398 4047 
Q 1172 3844 1172 3481 
z
" transform="scale(0.015625)"/>
       </defs>
       <use xlink:href="#DejaVuSans-30"/>
       <use xlink:href="#DejaVuSans-2e" x="63.623047"/>
       <use xlink:href="#DejaVuSans-38" x="95.410156"/>
      </g>
     </g>
    </g>
    <g id="xtick_6">
     <g id="line2d_6">
      <g>
       <use xlink:href="#mb4f40420df" x="432.082727" y="285.64" style="stroke: #000000; stroke-width: 0.8"/>
      </g>
     </g>
     <g id="text_6">
      <!-- 1.0 -->
      <g transform="translate(419.360227 304.7975) scale(0.16 -0.16)">
       <defs>
        <path id="DejaVuSans-31" d="M 794 531 
L 1825 531 
L 1825 4091 
L 703 3866 
L 703 4441 
L 1819 4666 
L 2450 4666 
L 2450 531 
L 3481 531 
L 3481 0 
L 794 0 
L 794 531 
z
" transform="scale(0.015625)"/>
       </defs>
       <use xlink:href="#DejaVuSans-31"/>
       <use xlink:href="#DejaVuSans-2e" x="63.623047"/>
       <use xlink:href="#DejaVuSans-30" x="95.410156"/>
      </g>
     </g>
    </g>
    <g id="text_7">
     <!-- time -->
     <g transform="translate(225.799375 330.36125) scale(0.24 -0.24)">
      <defs>
       <path id="DejaVuSans-74" d="M 1172 4494 
L 1172 3500 
L 2356 3500 
L 2356 3053 
L 1172 3053 
L 1172 1153 
Q 1172 725 1289 603 
Q 1406 481 1766 481 
L 2356 481 
L 2356 0 
L 1766 0 
Q 1100 0 847 248 
Q 594 497 594 1153 
L 594 3053 
L 172 3053 
L 172 3500 
L 594 3500 
L 594 4494 
L 1172 4494 
z
" transform="scale(0.015625)"/>
       <path id="DejaVuSans-69" d="M 603 3500 
L 1178 3500 
L 1178 0 
L 603 0 
L 603 3500 
z
M 603 4863 
L 1178 4863 
L 1178 4134 
L 603 4134 
L 603 4863 
z
" transform="scale(0.015625)"/>
       <path id="DejaVuSans-6d" d="M 3328 2828 
Q 3544 3216 3844 3400 
Q 4144 3584 4550 3584 
Q 5097 3584 5394 3201 
Q 5691 2819 5691 2113 
L 5691 0 
L 5113 0 
L 5113 2094 
Q 5113 2597 4934 2840 
Q 4756 3084 4391 3084 
Q 3944 3084 3684 2787 
Q 3425 2491 3425 1978 
L 3425 0 
L 2847 0 
L 2847 2094 
Q 2847 2600 2669 2842 
Q 2491 3084 2119 3084 
Q 1678 3084 1418 2786 
Q 1159 2488 1159 1978 
L 1159 0 
L 581 0 
L 581 3500 
L 1159 3500 
L 1159 2956 
Q 1356 3278 1631 3431 
Q 1906 3584 2284 3584 
Q 2666 3584 2933 3390 
Q 3200 3197 3328 2828 
z
" transform="scale(0.015625)"/>
       <path id="DejaVuSans-65" d="M 3597 1894 
L 3597 1613 
L 953 1613 
Q 991 1019 1311 708 
Q 1631 397 2203 397 
Q 2534 397 2845 478 
Q 3156 559 3463 722 
L 3463 178 
Q 3153 47 2828 -22 
Q 2503 -91 2169 -91 
Q 1331 -91 842 396 
Q 353 884 353 1716 
Q 353 2575 817 3079 
Q 1281 3584 2069 3584 
Q 2775 3584 3186 3129 
Q 3597 2675 3597 1894 
z
M 3022 2063 
Q 3016 2534 2758 2815 
Q 2500 3097 2075 3097 
Q 1594 3097 1305 2825 
Q 1016 2553 972 2059 
L 3022 2063 
z
" transform="scale(0.015625)"/>
      </defs>
      <use xlink:href="#DejaVuSans-74"/>
      <use xlink:href="#DejaVuSans-69" x="39.208984"/>
      <use xlink:href="#DejaVuSans-6d" x="66.992188"/>
      <use xlink:href="#DejaVuSans-65" x="164.404297"/>
     </g>
    </g>
   </g>
   <g id="matplotlib.axis_2">
    <g id="ytick_1">
     <g id="line2d_7">
      <defs>
       <path id="m086901dfc9" d="M 0 0 
L -3.5 0 
" style="stroke: #000000; stroke-width: 0.8"/>
      </defs>
      <g>
       <use xlink:href="#m086901dfc9" x="55.82" y="247.065466" style="stroke: #000000; stroke-width: 0.8"/>
      </g>
     </g>
     <g id="text_8">
      <!-- 0 -->
      <g transform="translate(38.64 253.144216) scale(0.16 -0.16)">
       <use xlink:href="#DejaVuSans-30"/>
      </g>
     </g>
    </g>
    <g id="ytick_2">
     <g id="line2d_8">
      <g>
       <use xlink:href="#m086901dfc9" x="55.82" y="196.378806" style="stroke: #000000; stroke-width: 0.8"/>
      </g>
     </g>
     <g id="text_9">
      <!-- 2 -->
      <g transform="translate(38.64 202.457556) scale(0.16 -0.16)">
       <use xlink:href="#DejaVuSans-32"/>
      </g>
     </g>
    </g>
    <g id="ytick_3">
     <g id="line2d_9">
      <g>
       <use xlink:href="#m086901dfc9" x="55.82" y="145.692145" style="stroke: #000000; stroke-width: 0.8"/>
      </g>
     </g>
     <g id="text_10">
      <!-- 4 -->
      <g transform="translate(38.64 151.770895) scale(0.16 -0.16)">
       <use xlink:href="#DejaVuSans-34"/>
      </g>
     </g>
    </g>
    <g id="ytick_4">
     <g id="line2d_10">
      <g>
       <use xlink:href="#m086901dfc9" x="55.82" y="95.005485" style="stroke: #000000; stroke-width: 0.8"/>
      </g>
     </g>
     <g id="text_11">
      <!-- 6 -->
      <g transform="translate(38.64 101.084235) scale(0.16 -0.16)">
       <use xlink:href="#DejaVuSans-36"/>
      </g>
     </g>
    </g>
    <g id="ytick_5">
     <g id="line2d_11">
      <g>
       <use xlink:href="#m086901dfc9" x="55.82" y="44.318824" style="stroke: #000000; stroke-width: 0.8"/>
      </g>
     </g>
     <g id="text_12">
      <!-- 8 -->
      <g transform="translate(38.64 50.397574) scale(0.16 -0.16)">
       <use xlink:href="#DejaVuSans-38"/>
      </g>
     </g>
    </g>
    <g id="text_13">
     <!-- tip pressure -->
     <g transform="translate(29.64875 219.509375) rotate(-90) scale(0.24 -0.24)">
      <defs>
       <path id="DejaVuSans-70" d="M 1159 525 
L 1159 -1331 
L 581 -1331 
L 581 3500 
L 1159 3500 
L 1159 2969 
Q 1341 3281 1617 3432 
Q 1894 3584 2278 3584 
Q 2916 3584 3314 3078 
Q 3713 2572 3713 1747 
Q 3713 922 3314 415 
Q 2916 -91 2278 -91 
Q 1894 -91 1617 61 
Q 1341 213 1159 525 
z
M 3116 1747 
Q 3116 2381 2855 2742 
Q 2594 3103 2138 3103 
Q 1681 3103 1420 2742 
Q 1159 2381 1159 1747 
Q 1159 1113 1420 752 
Q 1681 391 2138 391 
Q 2594 391 2855 752 
Q 3116 1113 3116 1747 
z
" transform="scale(0.015625)"/>
       <path id="DejaVuSans-20" transform="scale(0.015625)"/>
       <path id="DejaVuSans-72" d="M 2631 2963 
Q 2534 3019 2420 3045 
Q 2306 3072 2169 3072 
Q 1681 3072 1420 2755 
Q 1159 2438 1159 1844 
L 1159 0 
L 581 0 
L 581 3500 
L 1159 3500 
L 1159 2956 
Q 1341 3275 1631 3429 
Q 1922 3584 2338 3584 
Q 2397 3584 2469 3576 
Q 2541 3569 2628 3553 
L 2631 2963 
z
" transform="scale(0.015625)"/>
       <path id="DejaVuSans-73" d="M 2834 3397 
L 2834 2853 
Q 2591 2978 2328 3040 
Q 2066 3103 1784 3103 
Q 1356 3103 1142 2972 
Q 928 2841 928 2578 
Q 928 2378 1081 2264 
Q 1234 2150 1697 2047 
L 1894 2003 
Q 2506 1872 2764 1633 
Q 3022 1394 3022 966 
Q 3022 478 2636 193 
Q 2250 -91 1575 -91 
Q 1294 -91 989 -36 
Q 684 19 347 128 
L 347 722 
Q 666 556 975 473 
Q 1284 391 1588 391 
Q 1994 391 2212 530 
Q 2431 669 2431 922 
Q 2431 1156 2273 1281 
Q 2116 1406 1581 1522 
L 1381 1569 
Q 847 1681 609 1914 
Q 372 2147 372 2553 
Q 372 3047 722 3315 
Q 1072 3584 1716 3584 
Q 2034 3584 2315 3537 
Q 2597 3491 2834 3397 
z
" transform="scale(0.015625)"/>
       <path id="DejaVuSans-75" d="M 544 1381 
L 544 3500 
L 1119 3500 
L 1119 1403 
Q 1119 906 1312 657 
Q 1506 409 1894 409 
Q 2359 409 2629 706 
Q 2900 1003 2900 1516 
L 2900 3500 
L 3475 3500 
L 3475 0 
L 2900 0 
L 2900 538 
Q 2691 219 2414 64 
Q 2138 -91 1772 -91 
Q 1169 -91 856 284 
Q 544 659 544 1381 
z
M 1991 3584 
L 1991 3584 
z
" transform="scale(0.015625)"/>
      </defs>
      <use xlink:href="#DejaVuSans-74"/>
      <use xlink:href="#DejaVuSans-69" x="39.208984"/>
      <use xlink:href="#DejaVuSans-70" x="66.992188"/>
      <use xlink:href="#DejaVuSans-20" x="130.46875"/>
      <use xlink:href="#DejaVuSans-70" x="162.255859"/>
      <use xlink:href="#DejaVuSans-72" x="225.732422"/>
      <use xlink:href="#DejaVuSans-65" x="264.595703"/>
      <use xlink:href="#DejaVuSans-73" x="326.119141"/>
      <use xlink:href="#DejaVuSans-73" x="378.21875"/>
      <use xlink:href="#DejaVuSans-75" x="430.318359"/>
      <use xlink:href="#DejaVuSans-72" x="493.697266"/>
      <use xlink:href="#DejaVuSans-65" x="532.560547"/>
     </g>
    </g>
   </g>
   <g id="line2d_12">
    <path d="M 73.737273 246.589198 
L 74.972947 245.843813 
L 78.679969 244.050651 
L 79.915643 244.471389 
L 81.151317 240.527471 
L 82.386991 247.138699 
L 83.622665 234.922076 
L 84.858339 250.250673 
L 86.094013 229.530529 
L 87.329687 253.294223 
L 88.565361 224.118373 
L 89.801034 256.41662 
L 91.036708 218.590802 
L 92.272382 259.666638 
L 93.508056 212.920888 
L 94.74373 262.475653 
L 95.979404 208.463395 
L 97.215078 263.134893 
L 98.450752 208.516349 
L 99.686426 259.20835 
L 100.9221 208.50157 
L 102.157774 259.126748 
L 103.393448 204.779008 
L 104.629122 261.154472 
L 105.864796 200.422478 
L 107.10047 262.800176 
L 108.336144 196.817195 
L 109.571818 263.654196 
L 110.807492 193.655877 
L 112.043166 264.595763 
L 113.27884 190.071333 
L 114.514514 266.142573 
L 115.750188 185.822083 
L 116.985862 268.37825 
L 118.221536 180.780217 
L 119.45721 271.608132 
L 120.692884 175.723473 
L 121.928558 273.060434 
L 123.164232 172.753235 
L 124.399906 273.147273 
L 125.63558 170.533317 
L 126.871254 272.851661 
L 128.106928 168.768796 
L 129.342602 271.948807 
L 130.578276 167.669764 
L 131.81395 270.261122 
L 133.049624 167.369061 
L 134.285298 267.781996 
L 135.520972 167.842991 
L 136.756646 264.624345 
L 137.99232 168.931924 
L 139.227994 260.865232 
L 140.463668 170.644787 
L 141.699342 256.473633 
L 142.935016 172.963802 
L 144.17069 251.59154 
L 145.406364 175.62305 
L 146.642038 246.418159 
L 147.877712 178.54825 
L 149.113386 240.973975 
L 150.34906 181.784092 
L 151.584734 235.258212 
L 152.820408 185.217575 
L 154.056082 229.397853 
L 155.291755 188.709041 
L 156.527429 223.503107 
L 157.763103 192.178866 
L 158.998777 217.704391 
L 160.234451 195.485921 
L 161.470125 213.016471 
L 162.705799 196.647749 
L 163.941473 209.509566 
L 165.177147 197.962388 
L 166.412821 205.462819 
L 167.648495 197.0195 
L 168.884169 212.788283 
L 170.119843 183.027515 
L 171.355517 218.797778 
L 172.591191 181.603598 
L 173.826865 214.318496 
L 175.062539 183.577036 
L 176.298213 211.485929 
L 177.533887 182.975929 
L 178.769561 210.483588 
L 180.005235 181.201459 
L 181.240909 210.158953 
L 182.476583 178.838047 
L 183.712257 210.455927 
L 184.947931 176.081 
L 186.183605 211.156076 
L 187.419279 172.653572 
L 188.654953 212.225376 
L 189.890627 169.250898 
L 191.126301 212.913889 
L 192.361975 166.603584 
L 193.597649 213.146208 
L 194.833323 163.76308 
L 196.068997 213.88856 
L 197.304671 160.330139 
L 198.540345 215.101942 
L 199.776019 156.810619 
L 201.011693 216.337796 
L 202.247367 153.020934 
L 203.483041 217.860754 
L 204.718715 148.889428 
L 205.954389 219.7511 
L 207.190063 144.540574 
L 208.425737 221.951407 
L 209.661411 139.651781 
L 210.897085 223.909942 
L 212.132759 134.702832 
L 213.368433 227.926046 
L 214.604107 128.481502 
L 215.839781 231.417211 
L 217.075455 122.801991 
L 218.311129 234.87852 
L 219.546803 116.571451 
L 220.782476 238.907781 
L 222.01815 110.228083 
L 223.253824 242.927862 
L 224.489498 103.946878 
L 225.725172 241.354505 
L 226.960846 105.605332 
L 228.19652 230.805512 
L 229.432194 136.817099 
L 230.667868 191.477797 
L 231.903542 133.511743 
L 233.139216 248.360493 
L 234.37489 67.599001 
L 235.610564 250.798801 
L 236.846238 112.316887 
L 238.081912 213.596898 
L 239.317586 116.211585 
L 240.55326 225.781421 
L 241.788934 104.15287 
L 243.024608 225.852795 
L 244.260282 105.577422 
L 245.495956 221.978197 
L 246.73163 106.785984 
L 247.967304 219.378469 
L 249.202978 105.854113 
L 250.438652 219.46935 
L 251.674326 101.727255 
L 252.91 219.978878 
L 254.145674 101.58387 
L 255.381348 216.366795 
L 256.617022 102.882324 
L 257.852696 214.073893 
L 259.08837 100.947668 
L 260.324044 213.412159 
L 261.559718 100.327821 
L 262.795392 211.338103 
L 264.031066 100.127041 
L 265.26674 209.771355 
L 266.502414 98.776563 
L 267.738088 207.844634 
L 268.973762 99.468446 
L 270.209436 204.65593 
L 271.44511 100.19178 
L 272.680784 202.538154 
L 273.916458 98.844304 
L 275.152132 201.024896 
L 276.387806 116.419267 
L 277.62348 183.023147 
L 278.859154 111.44465 
L 280.094828 187.439676 
L 281.330502 108.292544 
L 282.566176 175.014911 
L 283.80185 97.845482 
L 285.037524 227.191231 
L 286.273197 54.774956 
L 287.508871 231.464266 
L 288.744545 82.331036 
L 289.980219 157.518267 
L 291.215893 118.312292 
L 292.451567 216.615836 
L 293.687241 35.61707 
L 294.922915 214.961291 
L 296.158589 102.927653 
L 297.394263 179.931519 
L 298.629937 73.622268 
L 299.865611 204.348128 
L 301.101285 108.555492 
L 302.336959 143.836907 
L 303.572633 100.649358 
L 304.808307 231.560146 
L 306.043981 31.06882 
L 307.279655 179.986562 
L 308.515329 112.323488 
L 309.751003 180.560433 
L 310.986677 63.737995 
L 312.222351 190.081702 
L 313.458025 109.604697 
L 314.693699 137.248133 
L 315.929373 102.039154 
L 317.165047 179.699311 
L 318.400721 70.418301 
L 319.636395 187.502357 
L 320.872069 75.027733 
L 322.107743 175.185433 
L 323.343417 85.179161 
L 324.579091 165.756678 
L 325.814765 82.218523 
L 327.050439 173.055367 
L 328.286113 76.846566 
L 329.521787 170.92818 
L 330.757461 79.820985 
L 331.993135 163.995232 
L 333.228809 79.088678 
L 334.464483 166.893208 
L 335.700157 74.244876 
L 336.935831 168.738794 
L 338.171505 72.951312 
L 339.407179 165.504626 
L 340.642853 72.707534 
L 341.878527 163.560054 
L 343.114201 71.784213 
L 344.349875 163.992571 
L 345.585549 71.916423 
L 346.821223 159.518536 
L 348.056897 71.441885 
L 349.292571 159.141915 
L 350.528245 68.952426 
L 351.763918 159.1819 
L 352.999592 68.325445 
L 354.235266 157.59755 
L 355.47094 67.064964 
L 356.706614 155.8116 
L 357.942288 64.806539 
L 359.177962 157.183441 
L 360.413636 63.030193 
L 361.64931 155.721859 
L 362.884984 62.326255 
L 364.120658 153.88725 
L 365.356332 61.694014 
L 366.592006 151.59591 
L 367.82768 61.897424 
L 369.063354 149.936314 
L 370.299028 62.627046 
L 371.534702 145.656562 
L 372.770376 62.064542 
L 374.00605 145.350725 
L 375.241724 62.123422 
L 376.477398 141.333862 
L 377.713072 61.296321 
L 378.948746 142.617557 
L 380.18442 61.524765 
L 381.420094 135.976301 
L 382.655768 47.152124 
L 383.891442 175.296822 
L 385.127116 23.292727 
L 386.36279 144.484308 
L 387.598464 67.46168 
L 388.834138 128.493532 
L 390.069812 52.585759 
L 391.305486 144.191299 
L 392.54116 47.503676 
L 393.776834 151.014008 
L 395.012508 39.685488 
L 396.248182 124.771682 
L 397.483856 60.372594 
L 398.71953 147.570145 
L 399.955204 26.967085 
L 401.190878 134.88932 
L 402.426552 61.938239 
L 403.662226 130.970469 
L 404.8979 50.860676 
L 406.133574 98.724199 
L 407.369248 89.612582 
L 408.604922 83.798983 
L 409.840596 89.383891 
L 411.07627 85.621933 
L 412.311944 71.282699 
L 413.547618 123.559379 
L 414.783292 57.423238 
L 416.018966 68.900844 
L 417.254639 106.330399 
L 418.490313 97.421394 
L 419.725987 31.68452 
L 420.961661 132.156377 
L 422.197335 49.934978 
L 423.433009 92.519762 
L 424.668683 59.219255 
L 425.904357 101.085833 
L 427.140031 91.173979 
L 428.375705 44.676088 
L 429.611379 97.12279 
L 430.847053 77.598353 
L 432.082727 86.035516 
L 432.082727 86.035516 
" clip-path="url(#pe262ea8835)" style="fill: none; stroke: #1f77b4; stroke-width: 1.5; stroke-linecap: square"/>
   </g>
   <g id="patch_3">
    <path d="M 55.82 285.64 
L 55.82 10.8 
" style="fill: none; stroke: #000000; stroke-width: 0.8; stroke-linejoin: miter; stroke-linecap: square"/>
   </g>
   <g id="patch_4">
    <path d="M 450 285.64 
L 450 10.8 
" style="fill: none; stroke: #000000; stroke-width: 0.8; stroke-linejoin: miter; stroke-linecap: square"/>
   </g>
   <g id="patch_5">
    <path d="M 55.82 285.64 
L 450 285.64 
" style="fill: none; stroke: #000000; stroke-width: 0.8; stroke-linejoin: miter; stroke-linecap: square"/>
   </g>
   <g id="patch_6">
    <path d="M 55.82 10.8 
L 450 10.8 
" style="fill: none; stroke: #000000; stroke-width: 0.8; stroke-linejoin: miter; stroke-linecap: square"/>
   </g>
   <g id="legend_1">
    <g id="patch_7">
     <path d="M 67.02 47.085 
L 384.18 47.085 
Q 387.38 47.085 387.38 43.885 
L 387.38 22 
Q 387.38 18.8 384.18 18.8 
L 67.02 18.8 
Q 63.82 18.8 63.82 22 
L 63.82 43.885 
Q 63.82 47.085 67.02 47.085 
z
" style="fill: #ffffff; opacity: 0.8; stroke: #cccccc; stroke-linejoin: miter"/>
    </g>
    <g id="line2d_13">
     <path d="M 70.22 31.7575 
L 86.22 31.7575 
L 102.22 31.7575 
" style="fill: none; stroke: #1f77b4; stroke-width: 1.5; stroke-linecap: square"/>
    </g>
    <g id="text_14">
     <!-- displacement criterion, dt = 5e-3 -->
     <g transform="translate(115.02 37.3575) scale(0.16 -0.16)">
      <defs>
       <path id="DejaVuSans-64" d="M 2906 2969 
L 2906 4863 
L 3481 4863 
L 3481 0 
L 2906 0 
L 2906 525 
Q 2725 213 2448 61 
Q 2172 -91 1784 -91 
Q 1150 -91 751 415 
Q 353 922 353 1747 
Q 353 2572 751 3078 
Q 1150 3584 1784 3584 
Q 2172 3584 2448 3432 
Q 2725 3281 2906 2969 
z
M 947 1747 
Q 947 1113 1208 752 
Q 1469 391 1925 391 
Q 2381 391 2643 752 
Q 2906 1113 2906 1747 
Q 2906 2381 2643 2742 
Q 2381 3103 1925 3103 
Q 1469 3103 1208 2742 
Q 947 2381 947 1747 
z
" transform="scale(0.015625)"/>
       <path id="DejaVuSans-6c" d="M 603 4863 
L 1178 4863 
L 1178 0 
L 603 0 
L 603 4863 
z
" transform="scale(0.015625)"/>
       <path id="DejaVuSans-61" d="M 2194 1759 
Q 1497 1759 1228 1600 
Q 959 1441 959 1056 
Q 959 750 1161 570 
Q 1363 391 1709 391 
Q 2188 391 2477 730 
Q 2766 1069 2766 1631 
L 2766 1759 
L 2194 1759 
z
M 3341 1997 
L 3341 0 
L 2766 0 
L 2766 531 
Q 2569 213 2275 61 
Q 1981 -91 1556 -91 
Q 1019 -91 701 211 
Q 384 513 384 1019 
Q 384 1609 779 1909 
Q 1175 2209 1959 2209 
L 2766 2209 
L 2766 2266 
Q 2766 2663 2505 2880 
Q 2244 3097 1772 3097 
Q 1472 3097 1187 3025 
Q 903 2953 641 2809 
L 641 3341 
Q 956 3463 1253 3523 
Q 1550 3584 1831 3584 
Q 2591 3584 2966 3190 
Q 3341 2797 3341 1997 
z
" transform="scale(0.015625)"/>
       <path id="DejaVuSans-63" d="M 3122 3366 
L 3122 2828 
Q 2878 2963 2633 3030 
Q 2388 3097 2138 3097 
Q 1578 3097 1268 2742 
Q 959 2388 959 1747 
Q 959 1106 1268 751 
Q 1578 397 2138 397 
Q 2388 397 2633 464 
Q 2878 531 3122 666 
L 3122 134 
Q 2881 22 2623 -34 
Q 2366 -91 2075 -91 
Q 1284 -91 818 406 
Q 353 903 353 1747 
Q 353 2603 823 3093 
Q 1294 3584 2113 3584 
Q 2378 3584 2631 3529 
Q 2884 3475 3122 3366 
z
" transform="scale(0.015625)"/>
       <path id="DejaVuSans-6e" d="M 3513 2113 
L 3513 0 
L 2938 0 
L 2938 2094 
Q 2938 2591 2744 2837 
Q 2550 3084 2163 3084 
Q 1697 3084 1428 2787 
Q 1159 2491 1159 1978 
L 1159 0 
L 581 0 
L 581 3500 
L 1159 3500 
L 1159 2956 
Q 1366 3272 1645 3428 
Q 1925 3584 2291 3584 
Q 2894 3584 3203 3211 
Q 3513 2838 3513 2113 
z
" transform="scale(0.015625)"/>
       <path id="DejaVuSans-6f" d="M 1959 3097 
Q 1497 3097 1228 2736 
Q 959 2375 959 1747 
Q 959 1119 1226 758 
Q 1494 397 1959 397 
Q 2419 397 2687 759 
Q 2956 1122 2956 1747 
Q 2956 2369 2687 2733 
Q 2419 3097 1959 3097 
z
M 1959 3584 
Q 2709 3584 3137 3096 
Q 3566 2609 3566 1747 
Q 3566 888 3137 398 
Q 2709 -91 1959 -91 
Q 1206 -91 779 398 
Q 353 888 353 1747 
Q 353 2609 779 3096 
Q 1206 3584 1959 3584 
z
" transform="scale(0.015625)"/>
       <path id="DejaVuSans-2c" d="M 750 794 
L 1409 794 
L 1409 256 
L 897 -744 
L 494 -744 
L 750 256 
L 750 794 
z
" transform="scale(0.015625)"/>
       <path id="DejaVuSans-3d" d="M 678 2906 
L 4684 2906 
L 4684 2381 
L 678 2381 
L 678 2906 
z
M 678 1631 
L 4684 1631 
L 4684 1100 
L 678 1100 
L 678 1631 
z
" transform="scale(0.015625)"/>
       <path id="DejaVuSans-35" d="M 691 4666 
L 3169 4666 
L 3169 4134 
L 1269 4134 
L 1269 2991 
Q 1406 3038 1543 3061 
Q 1681 3084 1819 3084 
Q 2600 3084 3056 2656 
Q 3513 2228 3513 1497 
Q 3513 744 3044 326 
Q 2575 -91 1722 -91 
Q 1428 -91 1123 -41 
Q 819 9 494 109 
L 494 744 
Q 775 591 1075 516 
Q 1375 441 1709 441 
Q 2250 441 2565 725 
Q 2881 1009 2881 1497 
Q 2881 1984 2565 2268 
Q 2250 2553 1709 2553 
Q 1456 2553 1204 2497 
Q 953 2441 691 2322 
L 691 4666 
z
" transform="scale(0.015625)"/>
       <path id="DejaVuSans-2d" d="M 313 2009 
L 1997 2009 
L 1997 1497 
L 313 1497 
L 313 2009 
z
" transform="scale(0.015625)"/>
       <path id="DejaVuSans-33" d="M 2597 2516 
Q 3050 2419 3304 2112 
Q 3559 1806 3559 1356 
Q 3559 666 3084 287 
Q 2609 -91 1734 -91 
Q 1441 -91 1130 -33 
Q 819 25 488 141 
L 488 750 
Q 750 597 1062 519 
Q 1375 441 1716 441 
Q 2309 441 2620 675 
Q 2931 909 2931 1356 
Q 2931 1769 2642 2001 
Q 2353 2234 1838 2234 
L 1294 2234 
L 1294 2753 
L 1863 2753 
Q 2328 2753 2575 2939 
Q 2822 3125 2822 3475 
Q 2822 3834 2567 4026 
Q 2313 4219 1838 4219 
Q 1578 4219 1281 4162 
Q 984 4106 628 3988 
L 628 4550 
Q 988 4650 1302 4700 
Q 1616 4750 1894 4750 
Q 2613 4750 3031 4423 
Q 3450 4097 3450 3541 
Q 3450 3153 3228 2886 
Q 3006 2619 2597 2516 
z
" transform="scale(0.015625)"/>
      </defs>
      <use xlink:href="#DejaVuSans-64"/>
      <use xlink:href="#DejaVuSans-69" x="63.476562"/>
      <use xlink:href="#DejaVuSans-73" x="91.259766"/>
      <use xlink:href="#DejaVuSans-70" x="143.359375"/>
      <use xlink:href="#DejaVuSans-6c" x="206.835938"/>
      <use xlink:href="#DejaVuSans-61" x="234.619141"/>
      <use xlink:href="#DejaVuSans-63" x="295.898438"/>
      <use xlink:href="#DejaVuSans-65" x="350.878906"/>
      <use xlink:href="#DejaVuSans-6d" x="412.402344"/>
      <use xlink:href="#DejaVuSans-65" x="509.814453"/>
      <use xlink:href="#DejaVuSans-6e" x="571.337891"/>
      <use xlink:href="#DejaVuSans-74" x="634.716797"/>
      <use xlink:href="#DejaVuSans-20" x="673.925781"/>
      <use xlink:href="#DejaVuSans-63" x="705.712891"/>
      <use xlink:href="#DejaVuSans-72" x="760.693359"/>
      <use xlink:href="#DejaVuSans-69" x="801.806641"/>
      <use xlink:href="#DejaVuSans-74" x="829.589844"/>
      <use xlink:href="#DejaVuSans-65" x="868.798828"/>
      <use xlink:href="#DejaVuSans-72" x="930.322266"/>
      <use xlink:href="#DejaVuSans-69" x="971.435547"/>
      <use xlink:href="#DejaVuSans-6f" x="999.21875"/>
      <use xlink:href="#DejaVuSans-6e" x="1060.400391"/>
      <use xlink:href="#DejaVuSans-2c" x="1123.779297"/>
      <use xlink:href="#DejaVuSans-20" x="1155.566406"/>
      <use xlink:href="#DejaVuSans-64" x="1187.353516"/>
      <use xlink:href="#DejaVuSans-74" x="1250.830078"/>
      <use xlink:href="#DejaVuSans-20" x="1290.039062"/>
      <use xlink:href="#DejaVuSans-3d" x="1321.826172"/>
      <use xlink:href="#DejaVuSans-20" x="1405.615234"/>
      <use xlink:href="#DejaVuSans-35" x="1437.402344"/>
      <use xlink:href="#DejaVuSans-65" x="1501.025391"/>
      <use xlink:href="#DejaVuSans-2d" x="1562.548828"/>
      <use xlink:href="#DejaVuSans-33" x="1598.632812"/>
     </g>
    </g>
   </g>
  </g>
 </g>
 <defs>
  <clipPath id="pe262ea8835">
   <rect x="55.82" y="10.8" width="394.18" height="274.84"/>
  </clipPath>
 </defs>
</svg>
