<?xml version="1.0" encoding="utf-8" standalone="no"?>
<!DOCTYPE svg PUBLIC "-//W3C//DTD SVG 1.1//EN"
  "http://www.w3.org/Graphics/SVG/1.1/DTD/svg11.dtd">
<svg xmlns:xlink="http://www.w3.org/1999/xlink" width="460.8pt" height="345.6pt" viewBox="0 0 460.8 345.6" xmlns="http://www.w3.org/2000/svg" version="1.1">
 <metadata>
  <rdf:RDF xmlns:dc="http://purl.org/dc/elements/1.1/" xmlns:cc="http://creativecommons.org/ns#" xmlns:rdf="http://www.w3.org/1999/02/22-rdf-syntax-ns#">
   <cc:Work>
    <dc:type rdf:resource="http://purl.org/dc/dcmitype/StillImage"/>
    <dc:date>2023-09-12T23:42:01.707797</dc:date>
    <dc:format>image/svg+xml</dc:format>
    <dc:creator>
     <cc:Agent>
      <dc:title>Matplotlib v3.7.2, https://matplotlib.org/</dc:title>
     </cc:Agent>
    </dc:creator>
   </cc:Work>
  </rdf:RDF>
 </metadata>
 <defs>
  <style type="text/css">*{stroke-linejoin: round; stroke-linecap: butt}</style>
 </defs>
 <g id="figure_1">
  <g id="patch_1">
   <path d="M 0 345.6 
L 460.8 345.6 
L 460.8 0 
L 0 0 
z
" style="fill: #ffffff"/>
  </g>
  <g id="axes_1">
   <g id="patch_2">
    <path d="M 55.775 284.56 
L 450 284.56 
L 450 10.8 
L 55.775 10.8 
z
" style="fill: #ffffff"/>
   </g>
   <g id="matplotlib.axis_1">
    <g id="xtick_1">
     <g id="line2d_1">
      <defs>
       <path id="mf8755ec394" d="M 0 0 
L 0 3.5 
" style="stroke: #000000; stroke-width: 0.8"/>
      </defs>
      <g>
       <use xlink:href="#mf8755ec394" x="73.694318" y="284.56" style="stroke: #000000; stroke-width: 0.8"/>
      </g>
     </g>
     <g id="text_1">
      <!-- 0.00 -->
      <g transform="translate(55.881818 303.7175) scale(0.16 -0.16)">
       <defs>
        <path id="DejaVuSans-30" d="M 2034 4250 
Q 1547 4250 1301 3770 
Q 1056 3291 1056 2328 
Q 1056 1369 1301 889 
Q 1547 409 2034 409 
Q 2525 409 2770 889 
Q 3016 1369 3016 2328 
Q 3016 3291 2770 3770 
Q 2525 4250 2034 4250 
z
M 2034 4750 
Q 2819 4750 3233 4129 
Q 3647 3509 3647 2328 
Q 3647 1150 3233 529 
Q 2819 -91 2034 -91 
Q 1250 -91 836 529 
Q 422 1150 422 2328 
Q 422 3509 836 4129 
Q 1250 4750 2034 4750 
z
" transform="scale(0.015625)"/>
        <path id="DejaVuSans-2e" d="M 684 794 
L 1344 794 
L 1344 0 
L 684 0 
L 684 794 
z
" transform="scale(0.015625)"/>
       </defs>
       <use xlink:href="#DejaVuSans-30"/>
       <use xlink:href="#DejaVuSans-2e" x="63.623047"/>
       <use xlink:href="#DejaVuSans-30" x="95.410156"/>
       <use xlink:href="#DejaVuSans-30" x="159.033203"/>
      </g>
     </g>
    </g>
    <g id="xtick_2">
     <g id="line2d_2">
      <g>
       <use xlink:href="#mf8755ec394" x="156.081988" y="284.56" style="stroke: #000000; stroke-width: 0.8"/>
      </g>
     </g>
     <g id="text_2">
      <!-- 0.02 -->
      <g transform="translate(138.269488 303.7175) scale(0.16 -0.16)">
       <defs>
        <path id="DejaVuSans-32" d="M 1228 531 
L 3431 531 
L 3431 0 
L 469 0 
L 469 531 
Q 828 903 1448 1529 
Q 2069 2156 2228 2338 
Q 2531 2678 2651 2914 
Q 2772 3150 2772 3378 
Q 2772 3750 2511 3984 
Q 2250 4219 1831 4219 
Q 1534 4219 1204 4116 
Q 875 4013 500 3803 
L 500 4441 
Q 881 4594 1212 4672 
Q 1544 4750 1819 4750 
Q 2544 4750 2975 4387 
Q 3406 4025 3406 3419 
Q 3406 3131 3298 2873 
Q 3191 2616 2906 2266 
Q 2828 2175 2409 1742 
Q 1991 1309 1228 531 
z
" transform="scale(0.015625)"/>
       </defs>
       <use xlink:href="#DejaVuSans-30"/>
       <use xlink:href="#DejaVuSans-2e" x="63.623047"/>
       <use xlink:href="#DejaVuSans-30" x="95.410156"/>
       <use xlink:href="#DejaVuSans-32" x="159.033203"/>
      </g>
     </g>
    </g>
    <g id="xtick_3">
     <g id="line2d_3">
      <g>
       <use xlink:href="#mf8755ec394" x="238.469658" y="284.56" style="stroke: #000000; stroke-width: 0.8"/>
      </g>
     </g>
     <g id="text_3">
      <!-- 0.04 -->
      <g transform="translate(220.657158 303.7175) scale(0.16 -0.16)">
       <defs>
        <path id="DejaVuSans-34" d="M 2419 4116 
L 825 1625 
L 2419 1625 
L 2419 4116 
z
M 2253 4666 
L 3047 4666 
L 3047 1625 
L 3713 1625 
L 3713 1100 
L 3047 1100 
L 3047 0 
L 2419 0 
L 2419 1100 
L 313 1100 
L 313 1709 
L 2253 4666 
z
" transform="scale(0.015625)"/>
       </defs>
       <use xlink:href="#DejaVuSans-30"/>
       <use xlink:href="#DejaVuSans-2e" x="63.623047"/>
       <use xlink:href="#DejaVuSans-30" x="95.410156"/>
       <use xlink:href="#DejaVuSans-34" x="159.033203"/>
      </g>
     </g>
    </g>
    <g id="xtick_4">
     <g id="line2d_4">
      <g>
       <use xlink:href="#mf8755ec394" x="320.857328" y="284.56" style="stroke: #000000; stroke-width: 0.8"/>
      </g>
     </g>
     <g id="text_4">
      <!-- 0.06 -->
      <g transform="translate(303.044828 303.7175) scale(0.16 -0.16)">
       <defs>
        <path id="DejaVuSans-36" d="M 2113 2584 
Q 1688 2584 1439 2293 
Q 1191 2003 1191 1497 
Q 1191 994 1439 701 
Q 1688 409 2113 409 
Q 2538 409 2786 701 
Q 3034 994 3034 1497 
Q 3034 2003 2786 2293 
Q 2538 2584 2113 2584 
z
M 3366 4563 
L 3366 3988 
Q 3128 4100 2886 4159 
Q 2644 4219 2406 4219 
Q 1781 4219 1451 3797 
Q 1122 3375 1075 2522 
Q 1259 2794 1537 2939 
Q 1816 3084 2150 3084 
Q 2853 3084 3261 2657 
Q 3669 2231 3669 1497 
Q 3669 778 3244 343 
Q 2819 -91 2113 -91 
Q 1303 -91 875 529 
Q 447 1150 447 2328 
Q 447 3434 972 4092 
Q 1497 4750 2381 4750 
Q 2619 4750 2861 4703 
Q 3103 4656 3366 4563 
z
" transform="scale(0.015625)"/>
       </defs>
       <use xlink:href="#DejaVuSans-30"/>
       <use xlink:href="#DejaVuSans-2e" x="63.623047"/>
       <use xlink:href="#DejaVuSans-30" x="95.410156"/>
       <use xlink:href="#DejaVuSans-36" x="159.033203"/>
      </g>
     </g>
    </g>
    <g id="xtick_5">
     <g id="line2d_5">
      <g>
       <use xlink:href="#mf8755ec394" x="403.244997" y="284.56" style="stroke: #000000; stroke-width: 0.8"/>
      </g>
     </g>
     <g id="text_5">
      <!-- 0.08 -->
      <g transform="translate(385.432497 303.7175) scale(0.16 -0.16)">
       <defs>
        <path id="DejaVuSans-38" d="M 2034 2216 
Q 1584 2216 1326 1975 
Q 1069 1734 1069 1313 
Q 1069 891 1326 650 
Q 1584 409 2034 409 
Q 2484 409 2743 651 
Q 3003 894 3003 1313 
Q 3003 1734 2745 1975 
Q 2488 2216 2034 2216 
z
M 1403 2484 
Q 997 2584 770 2862 
Q 544 3141 544 3541 
Q 544 4100 942 4425 
Q 1341 4750 2034 4750 
Q 2731 4750 3128 4425 
Q 3525 4100 3525 3541 
Q 3525 3141 3298 2862 
Q 3072 2584 2669 2484 
Q 3125 2378 3379 2068 
Q 3634 1759 3634 1313 
Q 3634 634 3220 271 
Q 2806 -91 2034 -91 
Q 1263 -91 848 271 
Q 434 634 434 1313 
Q 434 1759 690 2068 
Q 947 2378 1403 2484 
z
M 1172 3481 
Q 1172 3119 1398 2916 
Q 1625 2713 2034 2713 
Q 2441 2713 2670 2916 
Q 2900 3119 2900 3481 
Q 2900 3844 2670 4047 
Q 2441 4250 2034 4250 
Q 1625 4250 1398 4047 
Q 1172 3844 1172 3481 
z
" transform="scale(0.015625)"/>
       </defs>
       <use xlink:href="#DejaVuSans-30"/>
       <use xlink:href="#DejaVuSans-2e" x="63.623047"/>
       <use xlink:href="#DejaVuSans-30" x="95.410156"/>
       <use xlink:href="#DejaVuSans-38" x="159.033203"/>
      </g>
     </g>
    </g>
    <g id="text_6">
     <!-- time -->
     <g transform="translate(225.776875 329.28125) scale(0.24 -0.24)">
      <defs>
       <path id="DejaVuSans-74" d="M 1172 4494 
L 1172 3500 
L 2356 3500 
L 2356 3053 
L 1172 3053 
L 1172 1153 
Q 1172 725 1289 603 
Q 1406 481 1766 481 
L 2356 481 
L 2356 0 
L 1766 0 
Q 1100 0 847 248 
Q 594 497 594 1153 
L 594 3053 
L 172 3053 
L 172 3500 
L 594 3500 
L 594 4494 
L 1172 4494 
z
" transform="scale(0.015625)"/>
       <path id="DejaVuSans-69" d="M 603 3500 
L 1178 3500 
L 1178 0 
L 603 0 
L 603 3500 
z
M 603 4863 
L 1178 4863 
L 1178 4134 
L 603 4134 
L 603 4863 
z
" transform="scale(0.015625)"/>
       <path id="DejaVuSans-6d" d="M 3328 2828 
Q 3544 3216 3844 3400 
Q 4144 3584 4550 3584 
Q 5097 3584 5394 3201 
Q 5691 2819 5691 2113 
L 5691 0 
L 5113 0 
L 5113 2094 
Q 5113 2597 4934 2840 
Q 4756 3084 4391 3084 
Q 3944 3084 3684 2787 
Q 3425 2491 3425 1978 
L 3425 0 
L 2847 0 
L 2847 2094 
Q 2847 2600 2669 2842 
Q 2491 3084 2119 3084 
Q 1678 3084 1418 2786 
Q 1159 2488 1159 1978 
L 1159 0 
L 581 0 
L 581 3500 
L 1159 3500 
L 1159 2956 
Q 1356 3278 1631 3431 
Q 1906 3584 2284 3584 
Q 2666 3584 2933 3390 
Q 3200 3197 3328 2828 
z
" transform="scale(0.015625)"/>
       <path id="DejaVuSans-65" d="M 3597 1894 
L 3597 1613 
L 953 1613 
Q 991 1019 1311 708 
Q 1631 397 2203 397 
Q 2534 397 2845 478 
Q 3156 559 3463 722 
L 3463 178 
Q 3153 47 2828 -22 
Q 2503 -91 2169 -91 
Q 1331 -91 842 396 
Q 353 884 353 1716 
Q 353 2575 817 3079 
Q 1281 3584 2069 3584 
Q 2775 3584 3186 3129 
Q 3597 2675 3597 1894 
z
M 3022 2063 
Q 3016 2534 2758 2815 
Q 2500 3097 2075 3097 
Q 1594 3097 1305 2825 
Q 1016 2553 972 2059 
L 3022 2063 
z
" transform="scale(0.015625)"/>
      </defs>
      <use xlink:href="#DejaVuSans-74"/>
      <use xlink:href="#DejaVuSans-69" x="39.208984"/>
      <use xlink:href="#DejaVuSans-6d" x="66.992188"/>
      <use xlink:href="#DejaVuSans-65" x="164.404297"/>
     </g>
    </g>
   </g>
   <g id="matplotlib.axis_2">
    <g id="ytick_1">
     <g id="line2d_6">
      <defs>
       <path id="m949b0b1d81" d="M 0 0 
L -3.5 0 
" style="stroke: #000000; stroke-width: 0.8"/>
      </defs>
      <g>
       <use xlink:href="#m949b0b1d81" x="55.775" y="246.137047" style="stroke: #000000; stroke-width: 0.8"/>
      </g>
     </g>
     <g id="text_7">
      <!-- 0 -->
      <g transform="translate(38.595 252.215797) scale(0.16 -0.16)">
       <use xlink:href="#DejaVuSans-30"/>
      </g>
     </g>
    </g>
    <g id="ytick_2">
     <g id="line2d_7">
      <g>
       <use xlink:href="#m949b0b1d81" x="55.775" y="195.649563" style="stroke: #000000; stroke-width: 0.8"/>
      </g>
     </g>
     <g id="text_8">
      <!-- 2 -->
      <g transform="translate(38.595 201.728313) scale(0.16 -0.16)">
       <use xlink:href="#DejaVuSans-32"/>
      </g>
     </g>
    </g>
    <g id="ytick_3">
     <g id="line2d_8">
      <g>
       <use xlink:href="#m949b0b1d81" x="55.775" y="145.162078" style="stroke: #000000; stroke-width: 0.8"/>
      </g>
     </g>
     <g id="text_9">
      <!-- 4 -->
      <g transform="translate(38.595 151.240828) scale(0.16 -0.16)">
       <use xlink:href="#DejaVuSans-34"/>
      </g>
     </g>
    </g>
    <g id="ytick_4">
     <g id="line2d_9">
      <g>
       <use xlink:href="#m949b0b1d81" x="55.775" y="94.674594" style="stroke: #000000; stroke-width: 0.8"/>
      </g>
     </g>
     <g id="text_10">
      <!-- 6 -->
      <g transform="translate(38.595 100.753344) scale(0.16 -0.16)">
       <use xlink:href="#DejaVuSans-36"/>
      </g>
     </g>
    </g>
    <g id="ytick_5">
     <g id="line2d_10">
      <g>
       <use xlink:href="#m949b0b1d81" x="55.775" y="44.18711" style="stroke: #000000; stroke-width: 0.8"/>
      </g>
     </g>
     <g id="text_11">
      <!-- 8 -->
      <g transform="translate(38.595 50.26586) scale(0.16 -0.16)">
       <use xlink:href="#DejaVuSans-38"/>
      </g>
     </g>
    </g>
    <g id="text_12">
     <!-- Tip pressure -->
     <g transform="translate(29.60375 221.219375) rotate(-90) scale(0.24 -0.24)">
      <defs>
       <path id="DejaVuSans-54" d="M -19 4666 
L 3928 4666 
L 3928 4134 
L 2272 4134 
L 2272 0 
L 1638 0 
L 1638 4134 
L -19 4134 
L -19 4666 
z
" transform="scale(0.015625)"/>
       <path id="DejaVuSans-70" d="M 1159 525 
L 1159 -1331 
L 581 -1331 
L 581 3500 
L 1159 3500 
L 1159 2969 
Q 1341 3281 1617 3432 
Q 1894 3584 2278 3584 
Q 2916 3584 3314 3078 
Q 3713 2572 3713 1747 
Q 3713 922 3314 415 
Q 2916 -91 2278 -91 
Q 1894 -91 1617 61 
Q 1341 213 1159 525 
z
M 3116 1747 
Q 3116 2381 2855 2742 
Q 2594 3103 2138 3103 
Q 1681 3103 1420 2742 
Q 1159 2381 1159 1747 
Q 1159 1113 1420 752 
Q 1681 391 2138 391 
Q 2594 391 2855 752 
Q 3116 1113 3116 1747 
z
" transform="scale(0.015625)"/>
       <path id="DejaVuSans-20" transform="scale(0.015625)"/>
       <path id="DejaVuSans-72" d="M 2631 2963 
Q 2534 3019 2420 3045 
Q 2306 3072 2169 3072 
Q 1681 3072 1420 2755 
Q 1159 2438 1159 1844 
L 1159 0 
L 581 0 
L 581 3500 
L 1159 3500 
L 1159 2956 
Q 1341 3275 1631 3429 
Q 1922 3584 2338 3584 
Q 2397 3584 2469 3576 
Q 2541 3569 2628 3553 
L 2631 2963 
z
" transform="scale(0.015625)"/>
       <path id="DejaVuSans-73" d="M 2834 3397 
L 2834 2853 
Q 2591 2978 2328 3040 
Q 2066 3103 1784 3103 
Q 1356 3103 1142 2972 
Q 928 2841 928 2578 
Q 928 2378 1081 2264 
Q 1234 2150 1697 2047 
L 1894 2003 
Q 2506 1872 2764 1633 
Q 3022 1394 3022 966 
Q 3022 478 2636 193 
Q 2250 -91 1575 -91 
Q 1294 -91 989 -36 
Q 684 19 347 128 
L 347 722 
Q 666 556 975 473 
Q 1284 391 1588 391 
Q 1994 391 2212 530 
Q 2431 669 2431 922 
Q 2431 1156 2273 1281 
Q 2116 1406 1581 1522 
L 1381 1569 
Q 847 1681 609 1914 
Q 372 2147 372 2553 
Q 372 3047 722 3315 
Q 1072 3584 1716 3584 
Q 2034 3584 2315 3537 
Q 2597 3491 2834 3397 
z
" transform="scale(0.015625)"/>
       <path id="DejaVuSans-75" d="M 544 1381 
L 544 3500 
L 1119 3500 
L 1119 1403 
Q 1119 906 1312 657 
Q 1506 409 1894 409 
Q 2359 409 2629 706 
Q 2900 1003 2900 1516 
L 2900 3500 
L 3475 3500 
L 3475 0 
L 2900 0 
L 2900 538 
Q 2691 219 2414 64 
Q 2138 -91 1772 -91 
Q 1169 -91 856 284 
Q 544 659 544 1381 
z
M 1991 3584 
L 1991 3584 
z
" transform="scale(0.015625)"/>
      </defs>
      <use xlink:href="#DejaVuSans-54"/>
      <use xlink:href="#DejaVuSans-69" x="57.958984"/>
      <use xlink:href="#DejaVuSans-70" x="85.742188"/>
      <use xlink:href="#DejaVuSans-20" x="149.21875"/>
      <use xlink:href="#DejaVuSans-70" x="181.005859"/>
      <use xlink:href="#DejaVuSans-72" x="244.482422"/>
      <use xlink:href="#DejaVuSans-65" x="283.345703"/>
      <use xlink:href="#DejaVuSans-73" x="344.869141"/>
      <use xlink:href="#DejaVuSans-73" x="396.96875"/>
      <use xlink:href="#DejaVuSans-75" x="449.068359"/>
      <use xlink:href="#DejaVuSans-72" x="512.447266"/>
      <use xlink:href="#DejaVuSans-65" x="551.310547"/>
     </g>
    </g>
   </g>
   <g id="line2d_11">
    <path d="M 73.694318 245.66265 
L 74.930133 244.920195 
L 78.637578 243.134079 
L 79.873393 243.553164 
L 81.109208 239.624743 
L 82.345024 246.209993 
L 83.580839 234.041375 
L 84.816654 249.309738 
L 86.052469 228.671015 
L 87.288284 252.341327 
L 88.524099 223.280126 
L 89.759914 255.451455 
L 90.995729 217.774275 
L 92.231544 258.688702 
L 93.467359 212.126642 
L 94.703174 261.486679 
L 95.938989 207.686666 
L 97.174804 262.143328 
L 98.410619 207.739411 
L 99.646434 258.232215 
L 100.882249 207.72469 
L 102.118064 258.150934 
L 103.353879 204.016756 
L 104.589694 260.17069 
L 105.825509 199.677345 
L 107.061324 261.809926 
L 108.297139 196.086229 
L 109.532955 262.660591 
L 110.76877 192.937334 
L 112.004585 263.598457 
L 113.2404 189.366875 
L 114.476215 265.139189 
L 115.71203 185.134323 
L 116.947845 267.366081 
L 118.18366 180.11227 
L 119.419475 270.583271 
L 120.65529 175.075396 
L 121.891105 272.029866 
L 123.12692 172.11683 
L 124.362735 272.116364 
L 125.59855 169.905635 
L 126.834365 271.821913 
L 128.07018 168.148049 
L 129.305995 270.922607 
L 130.54181 167.053335 
L 131.777625 269.241554 
L 133.01344 166.753813 
L 134.249255 266.77217 
L 135.485071 167.225881 
L 136.720886 263.626927 
L 137.956701 168.310536 
L 139.192516 259.882586 
L 140.428331 170.016667 
L 141.664146 255.508244 
L 142.899961 172.32657 
L 144.135776 250.645336 
L 145.371591 174.975368 
L 146.607406 245.492284 
L 147.843221 177.889074 
L 149.079036 240.069493 
L 150.314851 181.1122 
L 151.550666 234.376191 
L 152.786481 184.532191 
L 154.022296 228.53886 
L 155.258111 188.009936 
L 156.493926 222.667278 
L 157.729741 191.466127 
L 158.965556 216.891348 
L 160.201371 194.760187 
L 161.437187 212.221849 
L 162.673002 195.917449 
L 163.908817 208.728725 
L 165.144632 197.226922 
L 166.380447 204.69788 
L 167.616262 196.28774 
L 168.852077 211.994558 
L 170.087892 182.350737 
L 171.323707 217.980439 
L 172.559522 180.932415 
L 173.795337 213.518759 
L 175.031152 182.898098 
L 176.266967 210.697321 
L 177.502782 182.299354 
L 178.738597 209.69892 
L 179.974412 180.531856 
L 181.210227 209.37556 
L 182.446042 178.177732 
L 183.681857 209.671368 
L 184.917672 175.431518 
L 186.153487 210.368765 
L 187.389303 172.017559 
L 188.625118 211.433863 
L 189.860933 168.628256 
L 191.096748 212.119671 
L 192.332563 165.991345 
L 193.568378 212.351077 
L 194.804193 163.162002 
L 196.040008 213.090512 
L 197.275823 159.742551 
L 198.511638 214.299125 
L 199.747453 156.236862 
L 200.983268 215.530123 
L 202.219083 152.462068 
L 203.454898 217.047096 
L 204.690713 148.346798 
L 205.926528 218.930015 
L 207.162343 144.015033 
L 208.398158 221.121676 
L 209.633973 139.145451 
L 210.869788 223.072514 
L 212.105603 134.215948 
L 213.341418 227.072837 
L 214.577234 128.019066 
L 215.813049 230.550283 
L 217.048864 122.361873 
L 218.284679 233.99799 
L 219.520494 116.155816 
L 220.756309 238.011418 
L 221.992124 109.837375 
L 223.227939 242.015702 
L 224.463754 103.580852 
L 225.699569 240.448527 
L 226.935384 105.232789 
L 228.171199 229.940988 
L 229.407014 136.321907 
L 230.642829 190.767813 
L 231.878644 133.029539 
L 233.114459 247.426985 
L 234.350274 67.375806 
L 235.586089 249.855712 
L 236.821904 111.917971 
L 238.057719 212.799995 
L 239.293534 115.797364 
L 240.52935 224.936639 
L 241.765165 103.786034 
L 243.00098 225.007732 
L 244.236795 105.204989 
L 245.47261 221.148359 
L 246.708425 106.408802 
L 247.94424 218.558848 
L 249.180055 105.480592 
L 250.41587 218.649371 
L 251.651685 101.369951 
L 252.8875 219.156897 
L 254.123315 101.227129 
L 255.35913 215.559008 
L 256.594945 102.520481 
L 257.83076 213.275116 
L 259.066575 100.593427 
L 260.30239 212.615982 
L 261.538205 99.976016 
L 262.77402 210.550077 
L 264.009835 99.776025 
L 265.24565 208.989486 
L 266.481466 98.430853 
L 267.717281 207.070335 
L 268.953096 99.120018 
L 270.188911 203.894162 
L 271.424726 99.840509 
L 272.660541 201.784707 
L 273.896356 98.498329 
L 275.132171 200.277396 
L 276.367986 116.004229 
L 277.603801 182.346386 
L 278.839616 111.049161 
L 280.075431 186.74556 
L 281.311246 107.909442 
L 282.547061 174.369619 
L 283.782876 97.503432 
L 285.018691 226.340909 
L 286.254506 54.602153 
L 287.490321 230.597153 
L 288.726136 82.04995 
L 289.961951 156.941729 
L 291.197766 117.889816 
L 292.433582 215.80707 
L 293.669397 35.51955 
L 294.905212 214.159027 
L 296.141027 102.565632 
L 297.376842 179.266907 
L 298.612657 73.375404 
L 299.848472 203.58757 
L 301.084287 108.171356 
L 302.320102 143.31413 
L 303.555917 100.29629 
L 304.791732 230.692656 
L 306.027547 30.989172 
L 307.263362 179.321733 
L 308.499177 111.924545 
L 309.734992 179.89335 
L 310.970807 63.529972 
L 312.206622 189.377204 
L 313.442437 109.216438 
L 314.678252 136.751248 
L 315.914067 101.680625 
L 317.149882 179.035611 
L 318.385697 70.184027 
L 319.621513 186.807995 
L 320.857328 74.775346 
L 322.093143 174.539471 
L 323.328958 84.886884 
L 324.564773 165.147767 
L 325.800588 81.937879 
L 327.036403 172.417775 
L 328.272218 76.587032 
L 329.508033 170.298947 
L 330.743848 79.549763 
L 331.979663 163.393243 
L 333.215478 78.820333 
L 334.451293 166.279831 
L 335.687108 73.995566 
L 336.922923 168.118164 
L 338.158738 72.707085 
L 339.394553 164.896705 
L 340.630368 72.464265 
L 341.866183 162.959775 
L 343.101998 71.544572 
L 344.337813 163.390592 
L 345.573629 71.676262 
L 346.809444 158.934138 
L 348.045259 71.203589 
L 349.281074 158.558996 
L 350.516889 68.723913 
L 351.752704 158.598825 
L 352.988519 68.099396 
L 354.224334 157.020701 
L 355.460149 66.843867 
L 356.695964 155.241768 
L 357.931779 64.594317 
L 359.167594 156.608218 
L 360.403409 62.824952 
L 361.639224 155.15238 
L 362.875039 62.123779 
L 364.110854 153.32498 
L 365.346669 61.494023 
L 366.582484 151.042644 
L 367.818299 61.696633 
L 369.054114 149.38957 
L 370.289929 62.423389 
L 371.525745 145.126635 
L 372.76156 61.863095 
L 373.997375 144.822 
L 375.23319 61.921744 
L 376.469005 140.820921 
L 377.70482 61.097892 
L 378.940635 142.099572 
L 380.17645 61.325439 
L 381.412265 135.484414 
L 382.64808 47.009276 
L 383.883895 174.650422 
L 385.11971 23.243636 
L 386.355525 143.958988 
L 387.59134 67.239025 
L 388.827155 128.031049 
L 390.06297 52.421559 
L 391.298785 143.66713 
L 392.5346 47.359447 
L 393.770415 150.463029 
L 395.00623 39.571981 
L 396.242045 124.323824 
L 397.477861 60.177795 
L 398.713676 147.032698 
L 399.949491 26.903555 
L 401.185306 134.401704 
L 402.421121 61.737288 
L 403.656936 130.498252 
L 404.892751 50.703255 
L 406.128566 98.378696 
L 407.364381 89.302883 
L 408.600196 83.51213 
L 409.836011 89.075091 
L 411.071826 85.327915 
L 412.307641 71.045029 
L 413.543456 123.116285 
L 414.779271 57.24003 
L 416.015086 68.672533 
L 417.250901 105.955007 
L 418.486716 97.08101 
L 419.722531 31.602453 
L 420.958346 131.6795 
L 422.194161 49.781194 
L 423.429976 92.198639 
L 424.665792 59.028989 
L 425.901607 100.73105 
L 427.137422 90.858145 
L 428.373237 44.54297 
L 429.609052 96.78358 
L 430.844867 77.335865 
L 432.080682 85.739874 
L 432.080682 85.739874 
" clip-path="url(#p5d70287581)" style="fill: none; stroke: #005293; stroke-width: 1.5; stroke-linecap: square"/>
   </g>
   <g id="patch_3">
    <path d="M 55.775 284.56 
L 55.775 10.8 
" style="fill: none; stroke: #000000; stroke-width: 0.8; stroke-linejoin: miter; stroke-linecap: square"/>
   </g>
   <g id="patch_4">
    <path d="M 450 284.56 
L 450 10.8 
" style="fill: none; stroke: #000000; stroke-width: 0.8; stroke-linejoin: miter; stroke-linecap: square"/>
   </g>
   <g id="patch_5">
    <path d="M 55.775 284.56 
L 450 284.56 
" style="fill: none; stroke: #000000; stroke-width: 0.8; stroke-linejoin: miter; stroke-linecap: square"/>
   </g>
   <g id="patch_6">
    <path d="M 55.775 10.8 
L 450 10.8 
" style="fill: none; stroke: #000000; stroke-width: 0.8; stroke-linejoin: miter; stroke-linecap: square"/>
   </g>
   <g id="legend_1">
    <g id="patch_7">
     <path d="M 66.975 47.085 
L 118.175 47.085 
Q 121.375 47.085 121.375 43.885 
L 121.375 22 
Q 121.375 18.8 118.175 18.8 
L 66.975 18.8 
Q 63.775 18.8 63.775 22 
L 63.775 43.885 
Q 63.775 47.085 66.975 47.085 
z
" style="fill: #ffffff; opacity: 0.8; stroke: #cccccc; stroke-linejoin: miter"/>
    </g>
    <g id="line2d_12">
     <path d="M 70.175 31.7575 
L 86.175 31.7575 
L 102.175 31.7575 
" style="fill: none; stroke: #005293; stroke-width: 1.5; stroke-linecap: square"/>
    </g>
   </g>
  </g>
 </g>
 <defs>
  <clipPath id="p5d70287581">
   <rect x="55.775" y="10.8" width="394.225" height="273.76"/>
  </clipPath>
 </defs>
</svg>
